STARTFONT 2.1
COMMENT
COMMENT Converted from OpenType font "DejaVuSansCondensed.ttf" by "otf2bdf 3.0".
COMMENT
FONT -FreeType-DejaVu Sans Condensed-Medium-R-Normal--44-320-100-100-P-222-ISO10646-1
SIZE 32 100 100
FONTBOUNDINGBOX 107 64 -40 -17
STARTPROPERTIES 19
FOUNDRY "FreeType"
FAMILY_NAME "DejaVu Sans Condensed"
WEIGHT_NAME "Medium"
SLANT "R"
SETWIDTH_NAME "Normal"
ADD_STYLE_NAME ""
PIXEL_SIZE 44
POINT_SIZE 320
RESOLUTION_X 100
RESOLUTION_Y 100
SPACING "P"
AVERAGE_WIDTH 222
CHARSET_REGISTRY "ISO10646"
CHARSET_ENCODING "1"
FONT_ASCENT 40
FONT_DESCENT 10
COPYRIGHT "Copyright (c) 2003 by Bitstream, Inc. All Rights Reserved.  Copyright (c) 2006 by Tavmjong Bah. All Rights Reserved.  DejaVu changes are in public domain  "
_OTF_FONTFILE "DejaVuSansCondensed.ttf"
_OTF_PSNAME "DejaVuSansCondensed"
ENDPROPERTIES
CHARS 5370
STARTCHAR 0020
ENCODING 32
SWIDTH 292 0
DWIDTH 13 0
BBX 0 0 0 0
BITMAP
ENDCHAR
STARTCHAR 0021
ENCODING 33
SWIDTH 360 0
DWIDTH 16 0
BBX 4 32 6 0
BITMAP
F0
F0
F0
F0
F0
F0
F0
F0
F0
F0
F0
F0
F0
F0
F0
F0
F0
F0
F0
F0
F0
F0
00
00
00
00
00
F0
F0
F0
F0
F0
ENDCHAR
STARTCHAR 0022
ENCODING 34
SWIDTH 405 0
DWIDTH 18 0
BBX 10 12 4 20
BITMAP
E1C0
E1C0
E1C0
E1C0
E1C0
E1C0
E1C0
E1C0
E1C0
E1C0
E1C0
E1C0
ENDCHAR
STARTCHAR 0023
ENCODING 35
SWIDTH 742 0
DWIDTH 33 0
BBX 27 32 3 0
BITMAP
001C0E00
001C0E00
001C0E00
001C1C00
00381C00
00381C00
00381C00
00383C00
00783800
3FFFFFE0
3FFFFFE0
3FFFFFE0
3FFFFFE0
00E07000
00E07000
00E07000
00E0F000
01E0E000
01C0E000
01C0E000
FFFFFF80
FFFFFF80
FFFFFF80
0381C000
0381C000
03838000
07038000
07038000
07038000
07078000
0F070000
0E070000
ENDCHAR
STARTCHAR 0024
ENCODING 36
SWIDTH 562 0
DWIDTH 25 0
BBX 19 39 3 -6
BITMAP
00C000
00C000
00C000
00C000
00C000
07FF00
1FFF80
3FFF80
7CC180
78C000
F0C000
F0C000
F0C000
F0C000
F8C000
7CC000
7FC000
3FF800
0FFE00
03FF80
00FFC0
00C7C0
00C3E0
00C1E0
00C1E0
00C1E0
00C1E0
80C1E0
E0C3C0
F8CFC0
FFFF80
7FFE00
07F800
00C000
00C000
00C000
00C000
00C000
00C000
ENDCHAR
STARTCHAR 0025
ENCODING 37
SWIDTH 855 0
DWIDTH 38 0
BBX 33 34 2 -1
BITMAP
070000E000
1FE000E000
3FF001C000
78F001C000
7078038000
7038078000
F038070000
E0380F0000
E03C0E0000
E03C1C0000
E0381C0000
E038380000
7038380000
7078700000
7870700000
3FF0E00000
1FE0E07800
0781C1FE00
0003C3FF00
0003878700
0007070780
00070F0380
000E0E0380
000E0E0380
001C0E0380
001C0E0380
00380E0380
00380E0380
0070070380
00F0070780
00E0078F00
01E003FE00
01C001FC00
0380007000
ENDCHAR
STARTCHAR 0026
ENCODING 38
SWIDTH 697 0
DWIDTH 31 0
BBX 27 34 2 -1
BITMAP
00380000
01FF8000
03FFC000
07FFC000
0F81C000
0F000000
0F000000
0E000000
0E000000
0F000000
0F000000
07800000
07C00000
03E00000
0FE00000
1FF00000
1EF801C0
3C7C01C0
783E03C0
781F03C0
780F8380
7007C380
F003C780
F003E700
7001FF00
7800FE00
78007E00
7C003E00
3E007F00
3F01FF80
1FFFE780
0FFFC7C0
03FF03E0
00700000
ENDCHAR
STARTCHAR 0027
ENCODING 39
SWIDTH 247 0
DWIDTH 11 0
BBX 3 12 4 20
BITMAP
E0
E0
E0
E0
E0
E0
E0
E0
E0
E0
E0
E0
ENDCHAR
STARTCHAR 0028
ENCODING 40
SWIDTH 337 0
DWIDTH 15 0
BBX 9 39 3 -6
BITMAP
0380
0700
0700
0E00
0E00
1E00
1C00
3C00
3C00
3800
3800
7800
7800
7800
7000
7000
F000
F000
F000
F000
F000
F000
7000
7000
7800
7800
7800
7800
3800
3C00
3C00
1C00
1E00
1E00
0E00
0F00
0700
0780
0380
ENDCHAR
STARTCHAR 0029
ENCODING 41
SWIDTH 337 0
DWIDTH 15 0
BBX 9 39 3 -6
BITMAP
7000
7000
3800
3800
3C00
1C00
1E00
1E00
0E00
0F00
0F00
0F00
0700
0780
0780
0780
0780
0780
0780
0780
0780
0780
0780
0780
0780
0700
0700
0F00
0F00
0E00
0E00
1E00
1C00
1C00
3800
3800
7800
7000
E000
ENDCHAR
STARTCHAR 002A
ENCODING 42
SWIDTH 450 0
DWIDTH 20 0
BBX 18 20 1 13
BITMAP
00C000
00C000
00C000
00C000
40C080
60C380
78C780
3CDE00
0FFC00
03F000
01E000
07F800
0FFC00
3CCF00
F8C7C0
60C180
40C080
00C000
00C000
00C000
ENDCHAR
STARTCHAR 002B
ENCODING 43
SWIDTH 742 0
DWIDTH 33 0
BBX 25 28 4 0
BITMAP
001C0000
001C0000
001C0000
001C0000
001C0000
001C0000
001C0000
001C0000
001C0000
001C0000
001C0000
001C0000
FFFFFF80
FFFFFF80
FFFFFF80
FFFFFF80
001C0000
001C0000
001C0000
001C0000
001C0000
001C0000
001C0000
001C0000
001C0000
001C0000
001C0000
001C0000
ENDCHAR
STARTCHAR 002C
ENCODING 44
SWIDTH 292 0
DWIDTH 13 0
BBX 6 10 3 -5
BITMAP
3C
3C
3C
3C
78
78
70
70
E0
E0
ENDCHAR
STARTCHAR 002D
ENCODING 45
SWIDTH 315 0
DWIDTH 14 0
BBX 10 4 2 10
BITMAP
FFC0
FFC0
FFC0
FFC0
ENDCHAR
STARTCHAR 002E
ENCODING 46
SWIDTH 292 0
DWIDTH 13 0
BBX 4 5 4 0
BITMAP
F0
F0
F0
F0
F0
ENDCHAR
STARTCHAR 002F
ENCODING 47
SWIDTH 292 0
DWIDTH 13 0
BBX 13 36 0 -4
BITMAP
0038
0038
0078
0070
0070
00F0
00F0
00E0
00E0
01E0
01C0
01C0
01C0
03C0
0380
0380
0780
0700
0700
0700
0F00
0E00
0E00
1E00
1E00
1C00
1C00
3C00
3800
3800
3800
7800
7000
7000
F000
E000
ENDCHAR
STARTCHAR 0030
ENCODING 48
SWIDTH 562 0
DWIDTH 25 0
BBX 20 34 3 -1
BITMAP
00E000
07FC00
0FFE00
1FFF00
3E0F80
3C0780
7803C0
7803C0
7801E0
F001E0
F001E0
F001E0
F001E0
F000E0
F000E0
F000F0
F000F0
F000F0
F000F0
F000E0
F001E0
F001E0
F001E0
F001E0
F001E0
7801E0
7803C0
7803C0
3C0780
3E0F80
1FFF00
0FFE00
07FC00
006000
ENDCHAR
STARTCHAR 0031
ENCODING 49
SWIDTH 562 0
DWIDTH 25 0
BBX 18 32 4 0
BITMAP
07E000
FFE000
FFE000
FFE000
F1E000
01E000
01E000
01E000
01E000
01E000
01E000
01E000
01E000
01E000
01E000
01E000
01E000
01E000
01E000
01E000
01E000
01E000
01E000
01E000
01E000
01E000
01E000
01E000
7FFFC0
7FFFC0
7FFFC0
7FFFC0
ENDCHAR
STARTCHAR 0032
ENCODING 50
SWIDTH 562 0
DWIDTH 25 0
BBX 18 33 3 0
BITMAP
03C000
1FF800
FFFE00
FFFF00
F81F80
E00F80
8007C0
0003C0
0003C0
0003C0
0003C0
0003C0
0003C0
000780
000780
000F00
001F00
003E00
007C00
007800
00F000
01E000
03E000
07C000
0F8000
1F0000
3E0000
7C0000
780000
FFFFC0
FFFFC0
FFFFC0
FFFFC0
ENDCHAR
STARTCHAR 0033
ENCODING 51
SWIDTH 562 0
DWIDTH 25 0
BBX 19 34 3 -1
BITMAP
01E000
3FFC00
7FFF00
7FFF80
781F80
0007C0
0003C0
0003C0
0003C0
0003C0
0003C0
0003C0
000780
000F80
07FF00
07FC00
07FE00
07FF80
000F80
0003C0
0003C0
0001E0
0001E0
0001E0
0001E0
0001E0
0001E0
0003C0
8007C0
F01F80
FFFF80
FFFE00
7FFC00
01C000
ENDCHAR
STARTCHAR 0034
ENCODING 52
SWIDTH 562 0
DWIDTH 25 0
BBX 21 32 2 0
BITMAP
000F80
001F80
003F80
003F80
007F80
007780
00E780
01E780
01C780
03C780
038780
078780
0F0780
0E0780
1E0780
1C0780
3C0780
380780
700780
F00780
E00780
FFFFF8
FFFFF8
FFFFF8
000780
000780
000780
000780
000780
000780
000780
000780
ENDCHAR
STARTCHAR 0035
ENCODING 53
SWIDTH 562 0
DWIDTH 25 0
BBX 19 33 3 -1
BITMAP
7FFF80
7FFF80
7FFF80
7FFF80
780000
780000
780000
780000
780000
780000
780000
7FF000
7FFC00
7FFF00
7EFF80
400F80
0007C0
0003C0
0003C0
0001E0
0001E0
0001E0
0001E0
0001E0
0003E0
0003C0
0007C0
800F80
F03F80
FFFF00
FFFE00
7FF800
038000
ENDCHAR
STARTCHAR 0036
ENCODING 54
SWIDTH 562 0
DWIDTH 25 0
BBX 20 34 3 -1
BITMAP
003800
01FF80
07FFC0
0FFFC0
1F81C0
1E0000
3C0000
3C0000
780000
780000
F00000
F00000
F1FC00
F7FF00
FFFF80
FF0FC0
FE03C0
FC03E0
F801E0
F801E0
F800F0
F000F0
F000F0
F000F0
F000F0
7801E0
7801E0
7801E0
3C03C0
3E07C0
1FFF80
0FFF00
03FE00
006000
ENDCHAR
STARTCHAR 0037
ENCODING 55
SWIDTH 562 0
DWIDTH 25 0
BBX 19 32 3 0
BITMAP
FFFFE0
FFFFE0
FFFFE0
FFFFC0
0003C0
0007C0
000780
000780
000F00
000F00
000F00
001E00
001E00
001E00
003C00
003C00
003C00
007800
007800
007800
00F000
00F000
00F000
01E000
01E000
03E000
03C000
03C000
07C000
078000
078000
0F8000
ENDCHAR
STARTCHAR 0038
ENCODING 56
SWIDTH 562 0
DWIDTH 25 0
BBX 19 34 3 -1
BITMAP
01F000
0FFE00
1FFF00
3FFF80
7E07C0
7803C0
7803E0
F001E0
F001E0
F001E0
7001E0
7803C0
7803C0
3C0780
1FFF00
0FFE00
0FFE00
3FFF80
7C07C0
7803C0
F001E0
F001E0
F001E0
F000E0
F000E0
F001E0
F001E0
F001E0
F803E0
7E07C0
3FFFC0
1FFF00
0FFE00
00E000
ENDCHAR
STARTCHAR 0039
ENCODING 57
SWIDTH 562 0
DWIDTH 25 0
BBX 20 34 2 -1
BITMAP
00F000
07FE00
0FFF00
1FFF80
3E07C0
3C03C0
7801E0
7801E0
7800E0
7800F0
F000F0
F000F0
7000F0
7800F0
7801F0
7801F0
7C03F0
3E03F0
3F8FF0
1FFFF0
0FFEF0
03F8F0
0000F0
0000F0
0001E0
0001E0
0001E0
0003C0
2007C0
381F80
3FFF00
3FFE00
1FF800
01C000
ENDCHAR
STARTCHAR 003A
ENCODING 58
SWIDTH 292 0
DWIDTH 13 0
BBX 4 23 5 0
BITMAP
F0
F0
F0
F0
F0
F0
00
00
00
00
00
00
00
00
00
00
00
00
F0
F0
F0
F0
F0
ENDCHAR
STARTCHAR 003B
ENCODING 59
SWIDTH 292 0
DWIDTH 13 0
BBX 6 28 3 -5
BITMAP
3C
3C
3C
3C
3C
3C
00
00
00
00
00
00
00
00
00
00
00
00
3C
3C
3C
3C
78
78
70
70
E0
E0
ENDCHAR
STARTCHAR 003C
ENCODING 60
SWIDTH 742 0
DWIDTH 33 0
BBX 25 23 4 3
BITMAP
00000380
00000F80
00007F80
0001FF80
000FFC00
003FF000
01FF8000
07FC0000
3FF00000
FF800000
FE000000
FC000000
FF000000
7FE00000
0FF80000
03FF0000
007FC000
001FF800
0003FF00
0000FF80
00001F80
00000780
00000080
ENDCHAR
STARTCHAR 003D
ENCODING 61
SWIDTH 742 0
DWIDTH 33 0
BBX 25 12 4 8
BITMAP
FFFFFF80
FFFFFF80
FFFFFF80
FFFFFF80
00000000
00000000
00000000
00000000
00000000
FFFFFF80
FFFFFF80
FFFFFF80
ENDCHAR
STARTCHAR 003E
ENCODING 62
SWIDTH 742 0
DWIDTH 33 0
BBX 25 23 4 3
BITMAP
E0000000
F8000000
FF000000
7FC00000
1FF80000
03FE0000
00FFC000
001FF000
0007FE00
0000FF80
00003F80
00001F80
00007F80
0003FF00
000FF800
007FE000
01FF0000
0FFC0000
3FE00000
FF800000
FC000000
F0000000
80000000
ENDCHAR
STARTCHAR 003F
ENCODING 63
SWIDTH 472 0
DWIDTH 21 0
BBX 15 33 3 0
BITMAP
0780
3FF0
FFF8
FFFC
F07E
C03E
001E
001E
001E
001E
001E
003C
007C
00F8
01F0
03E0
03C0
0780
0780
0700
0700
0700
0700
0700
0000
0000
0000
0000
0780
0780
0780
0780
0780
ENDCHAR
STARTCHAR 0040
ENCODING 64
SWIDTH 900 0
DWIDTH 40 0
BBX 34 39 3 -8
BITMAP
0007F80000
003FFF0000
00FFFFC000
01FC07E000
03E001F800
0780007C00
0F00003C00
1E00001E00
1C00000F00
3800000700
7807E38380
700FFB8380
701FFF8380
E03C1F8180
E0380F81C0
E0780781C0
E0700381C0
C0700381C0
C0700381C0
C0700381C0
C070038180
C070038380
E070038380
E078078700
E0380F8F00
E03E1F9E00
701FFFFC00
700FFBF800
3807E3C000
3800000000
1C00000000
1E00000000
0F00002000
07C000F000
03F003F000
01FF3FE000
007FFF8000
001FFE0000
0001E00000
ENDCHAR
STARTCHAR 0041
ENCODING 65
SWIDTH 607 0
DWIDTH 27 0
BBX 27 32 0 0
BITMAP
001F0000
001F0000
003F8000
003F8000
003B8000
007BC000
007BC000
0071C000
00F1E000
00F1E000
00E0E000
01E0F000
01E0F000
01C07000
03C07800
03C07800
03803800
07803C00
07803C00
07001C00
0FFFFE00
0FFFFE00
0FFFFF00
1FFFFF00
1E000F00
1E000780
3C000780
3C000780
7C0003C0
780003C0
780003C0
F80001E0
ENDCHAR
STARTCHAR 0042
ENCODING 66
SWIDTH 607 0
DWIDTH 27 0
BBX 20 32 4 0
BITMAP
FFFC00
FFFF00
FFFF80
F03FC0
F003E0
F001E0
F001E0
F001E0
F001E0
F001E0
F001E0
F003C0
F007C0
FFFF80
FFFE00
FFFF00
FFFFC0
F003E0
F001E0
F000F0
F000F0
F000F0
F000F0
F000F0
F000F0
F000F0
F001F0
F003E0
FFFFE0
FFFFC0
FFFF80
FFFC00
ENDCHAR
STARTCHAR 0043
ENCODING 67
SWIDTH 630 0
DWIDTH 28 0
BBX 24 34 2 -1
BITMAP
000700
00FFF0
01FFFC
07FFFF
0FE03F
1F800F
1F0003
3E0001
3C0000
7C0000
780000
780000
780000
F80000
F00000
F00000
F00000
F00000
F00000
F00000
F80000
780000
780000
780000
7C0000
3C0000
3E0001
1F0003
1F800F
0FE03F
07FFFF
01FFFC
00FFF0
000700
ENDCHAR
STARTCHAR 0044
ENCODING 68
SWIDTH 675 0
DWIDTH 30 0
BBX 24 32 4 0
BITMAP
FFFC00
FFFF80
FFFFE0
F07FF0
F003F8
F000FC
F0007C
F0003E
F0001E
F0001E
F0001F
F0000F
F0000F
F0000F
F0000F
F0000F
F0000F
F0000F
F0000F
F0000F
F0000F
F0001F
F0001E
F0001E
F0003E
F0007C
F000FC
F003F8
FFFFF0
FFFFC0
FFFF80
FFF800
ENDCHAR
STARTCHAR 0045
ENCODING 69
SWIDTH 562 0
DWIDTH 25 0
BBX 19 32 4 0
BITMAP
FFFFC0
FFFFC0
FFFFC0
FFFFC0
F00000
F00000
F00000
F00000
F00000
F00000
F00000
F00000
F00000
FFFFC0
FFFFC0
FFFFC0
FFFFC0
F00000
F00000
F00000
F00000
F00000
F00000
F00000
F00000
F00000
F00000
F00000
FFFFE0
FFFFE0
FFFFE0
FFFFE0
ENDCHAR
STARTCHAR 0046
ENCODING 70
SWIDTH 517 0
DWIDTH 23 0
BBX 16 32 4 0
BITMAP
FFFF
FFFF
FFFF
FFFF
F000
F000
F000
F000
F000
F000
F000
F000
F000
FFFE
FFFE
FFFE
FFFE
F000
F000
F000
F000
F000
F000
F000
F000
F000
F000
F000
F000
F000
F000
F000
ENDCHAR
STARTCHAR 0047
ENCODING 71
SWIDTH 697 0
DWIDTH 31 0
BBX 25 34 2 -1
BITMAP
00078000
00FFF800
01FFFE00
07FFFF80
0FE01F80
1F800780
1F000180
3E000080
3C000000
7C000000
78000000
78000000
78000000
F8000000
F0000000
F0000000
F001FF80
F001FF80
F001FF80
F001FF80
F8000380
78000380
78000380
78000380
7C000380
3C000380
3E000380
1F000380
1F800780
0FE01F80
07FFFF80
01FFFE00
007FF800
00070000
ENDCHAR
STARTCHAR 0048
ENCODING 72
SWIDTH 675 0
DWIDTH 30 0
BBX 22 32 4 0
BITMAP
F0003C
F0003C
F0003C
F0003C
F0003C
F0003C
F0003C
F0003C
F0003C
F0003C
F0003C
F0003C
F0003C
FFFFFC
FFFFFC
FFFFFC
FFFFFC
F0003C
F0003C
F0003C
F0003C
F0003C
F0003C
F0003C
F0003C
F0003C
F0003C
F0003C
F0003C
F0003C
F0003C
F0003C
ENDCHAR
STARTCHAR 0049
ENCODING 73
SWIDTH 270 0
DWIDTH 12 0
BBX 4 32 4 0
BITMAP
F0
F0
F0
F0
F0
F0
F0
F0
F0
F0
F0
F0
F0
F0
F0
F0
F0
F0
F0
F0
F0
F0
F0
F0
F0
F0
F0
F0
F0
F0
F0
F0
ENDCHAR
STARTCHAR 004A
ENCODING 74
SWIDTH 270 0
DWIDTH 12 0
BBX 10 41 -2 -9
BITMAP
03C0
03C0
03C0
03C0
03C0
03C0
03C0
03C0
03C0
03C0
03C0
03C0
03C0
03C0
03C0
03C0
03C0
03C0
03C0
03C0
03C0
03C0
03C0
03C0
03C0
03C0
03C0
03C0
03C0
03C0
03C0
03C0
03C0
03C0
0780
0780
0F80
FF00
FF00
FC00
F000
ENDCHAR
STARTCHAR 004B
ENCODING 75
SWIDTH 585 0
DWIDTH 26 0
BBX 22 32 4 0
BITMAP
F000F8
F001F0
F003E0
F007C0
F00F80
F01F00
F03F00
F07E00
F07C00
F0F800
F1F000
F3E000
F7C000
FF8000
FF0000
FF0000
FF8000
F7C000
F3E000
F3F000
F1F000
F0F800
F07C00
F03E00
F01F00
F00F80
F007C0
F003E0
F001F0
F001F8
F000F8
F0007C
ENDCHAR
STARTCHAR 004C
ENCODING 76
SWIDTH 495 0
DWIDTH 22 0
BBX 18 32 4 0
BITMAP
F00000
F00000
F00000
F00000
F00000
F00000
F00000
F00000
F00000
F00000
F00000
F00000
F00000
F00000
F00000
F00000
F00000
F00000
F00000
F00000
F00000
F00000
F00000
F00000
F00000
F00000
F00000
F00000
FFFFC0
FFFFC0
FFFFC0
FFFFC0
ENDCHAR
STARTCHAR 004D
ENCODING 77
SWIDTH 765 0
DWIDTH 34 0
BBX 26 32 4 0
BITMAP
FC000FC0
FC000FC0
FE000FC0
FE001FC0
FE001FC0
FF001FC0
F7003FC0
F7003BC0
F7803BC0
F3807BC0
F38073C0
F3C073C0
F1C0F3C0
F1C0E3C0
F1E0E3C0
F0E1E3C0
F0E1C3C0
F0F3C3C0
F073C3C0
F07383C0
F07F83C0
F03F83C0
F03F03C0
F03F03C0
F01E03C0
F01E03C0
F00003C0
F00003C0
F00003C0
F00003C0
F00003C0
F00003C0
ENDCHAR
STARTCHAR 004E
ENCODING 78
SWIDTH 675 0
DWIDTH 30 0
BBX 22 32 4 0
BITMAP
F8003C
FC003C
FC003C
FE003C
FE003C
FF003C
FF003C
F7803C
F7803C
F3C03C
F3C03C
F1E03C
F1E03C
F0F03C
F0F03C
F0783C
F0783C
F03C3C
F03C3C
F01E3C
F01E3C
F01E3C
F00F3C
F00F3C
F007BC
F007BC
F003FC
F003FC
F001FC
F001FC
F000FC
F000FC
ENDCHAR
STARTCHAR 004F
ENCODING 79
SWIDTH 697 0
DWIDTH 31 0
BBX 27 34 2 -1
BITMAP
000E0000
00FFE000
03FFF800
07FFFC00
0FC07E00
1F801F00
1F000F00
3E000F80
3C000780
7C0003C0
780003C0
780003C0
780003E0
F80001E0
F00001E0
F00001E0
F00001E0
F00001E0
F00001E0
F00001E0
F80001E0
780003E0
780003C0
780003C0
7C0007C0
3C000780
3E000F80
1F000F00
1F801F00
0FC07E00
07FFFC00
03FFF800
00FFE000
000E0000
ENDCHAR
STARTCHAR 0050
ENCODING 80
SWIDTH 540 0
DWIDTH 24 0
BBX 19 32 4 0
BITMAP
FFF800
FFFE00
FFFF00
F07F80
F00FC0
F007C0
F003C0
F003C0
F003C0
F003E0
F003C0
F003C0
F003C0
F007C0
F00FC0
F07F80
FFFF00
FFFE00
FFF800
F00000
F00000
F00000
F00000
F00000
F00000
F00000
F00000
F00000
F00000
F00000
F00000
F00000
ENDCHAR
STARTCHAR 0051
ENCODING 81
SWIDTH 697 0
DWIDTH 31 0
BBX 27 39 2 -6
BITMAP
000E0000
00FFE000
03FFF800
07FFFC00
0FC07E00
1F801F00
1F000F00
3E000F80
3C000780
7C0003C0
780003C0
780003C0
780003E0
F80001E0
F00001E0
F00001E0
F00001E0
F00001E0
F00001E0
F00001E0
F80001E0
780003E0
780003C0
780003C0
7C0007C0
3C000780
3E000F80
1F000F00
1F801F00
0FC07E00
07FFFC00
03FFF800
00FFE000
000FF000
0000F800
00007C00
00003C00
00001E00
00001F00
ENDCHAR
STARTCHAR 0052
ENCODING 82
SWIDTH 630 0
DWIDTH 28 0
BBX 22 32 4 0
BITMAP
FFF800
FFFE00
FFFF00
F07F80
F00FC0
F007C0
F003C0
F003C0
F003C0
F003E0
F003C0
F003C0
F003C0
F007C0
F01F80
FFFF00
FFFE00
FFFE00
F07F00
F00F00
F00780
F007C0
F003C0
F003E0
F001E0
F001E0
F000F0
F000F0
F00078
F00078
F0003C
F0003C
ENDCHAR
STARTCHAR 0053
ENCODING 83
SWIDTH 562 0
DWIDTH 25 0
BBX 20 34 3 -1
BITMAP
01E000
0FFF80
1FFFC0
3FFFC0
7E03C0
F80040
F00000
F00000
F00000
F00000
F00000
F00000
F80000
FE0000
7FE000
3FFC00
1FFF00
07FF80
007FC0
0007E0
0003E0
0001F0
0000F0
0000F0
0000F0
0000F0
0000F0
0001E0
C003E0
F80FE0
FFFFC0
FFFF80
3FFE00
01E000
ENDCHAR
STARTCHAR 0054
ENCODING 84
SWIDTH 540 0
DWIDTH 24 0
BBX 24 32 0 0
BITMAP
FFFFFF
FFFFFF
FFFFFF
FFFFFF
003C00
003C00
003C00
003C00
003C00
003C00
003C00
003C00
003C00
003C00
003C00
003C00
003C00
003C00
003C00
003C00
003C00
003C00
003C00
003C00
003C00
003C00
003C00
003C00
003C00
003C00
003C00
003C00
ENDCHAR
STARTCHAR 0055
ENCODING 85
SWIDTH 652 0
DWIDTH 29 0
BBX 23 33 3 -1
BITMAP
F0001E
F0001E
F0001E
F0001E
F0001E
F0001E
F0001E
F0001E
F0001E
F0001E
F0001E
F0001E
F0001E
F0001E
F0001E
F0001E
F0001E
F0001E
F0001E
F0001E
F0001E
F0001E
78003C
78003C
78003C
78003C
7C0078
3E00F8
1F01F0
1FFFF0
0FFFE0
03FF80
003800
ENDCHAR
STARTCHAR 0056
ENCODING 86
SWIDTH 607 0
DWIDTH 27 0
BBX 27 32 0 0
BITMAP
F80003E0
780003C0
780003C0
3C0007C0
3C000780
3C000780
1E000F80
1E000F00
1E000F00
0F001E00
0F001E00
0F001E00
07803C00
07803C00
07803C00
03C07800
03C07800
03C07800
01E0F000
01E0F000
01E0F000
00F1E000
00F1E000
00F1E000
007BC000
007BC000
007BC000
003F8000
003F8000
003F8000
001F0000
001F0000
ENDCHAR
STARTCHAR 0057
ENCODING 87
SWIDTH 877 0
DWIDTH 39 0
BBX 37 32 1 0
BITMAP
F000F80078
7800F80078
7800F800F0
7800FC00F0
7801FC00F0
3C01DC00F0
3C01DC01E0
3C01DC01E0
3C03CE01E0
3C038E01E0
1E038E01C0
1E038E03C0
1E038F03C0
1E078703C0
0F070703C0
0F07070780
0F07070780
0F0F038780
070E038780
078E038700
078E038F00
078E03CF00
079E01CF00
03DC01CF00
03DC01DE00
03DC01DE00
03FC01FE00
01F800FE00
01F800FC00
01F800FC00
01F800FC00
01F8007C00
ENDCHAR
STARTCHAR 0058
ENCODING 88
SWIDTH 607 0
DWIDTH 27 0
BBX 25 32 1 0
BITMAP
3C000F00
3E001E00
1E003E00
0F003C00
0F007C00
07807800
07C0F000
03C1F000
01E1E000
01E3E000
00F3C000
00FF8000
007F8000
003F0000
003F0000
003E0000
003F0000
007F0000
00FF8000
00F78000
01E3C000
03E3E000
03C1E000
07C0F000
0780F000
0F007800
1F007C00
1E003C00
3E001E00
3C001E00
78000F00
F8000F80
ENDCHAR
STARTCHAR 0059
ENCODING 89
SWIDTH 540 0
DWIDTH 24 0
BBX 24 32 0 0
BITMAP
F0000F
78001E
7C001E
3C003C
1E007C
1F0078
0F00F0
0781F0
0781E0
03C3C0
03E3C0
01E780
00FF80
00FF00
007E00
007E00
003C00
003C00
003C00
003C00
003C00
003C00
003C00
003C00
003C00
003C00
003C00
003C00
003C00
003C00
003C00
003C00
ENDCHAR
STARTCHAR 005A
ENCODING 90
SWIDTH 607 0
DWIDTH 27 0
BBX 23 32 2 0
BITMAP
FFFFFE
FFFFFE
FFFFFE
FFFFFE
00007C
000078
0000F8
0001F0
0003E0
0003C0
0007C0
000F80
000F00
001E00
003E00
007C00
007800
00F800
01F000
03E000
03C000
07C000
0F8000
0F0000
1E0000
3E0000
7C0000
780000
FFFFFE
FFFFFE
FFFFFE
FFFFFE
ENDCHAR
STARTCHAR 005B
ENCODING 91
SWIDTH 337 0
DWIDTH 15 0
BBX 9 39 3 -6
BITMAP
FF80
FF80
FF80
F000
F000
F000
F000
F000
F000
F000
F000
F000
F000
F000
F000
F000
F000
F000
F000
F000
F000
F000
F000
F000
F000
F000
F000
F000
F000
F000
F000
F000
F000
F000
F000
F000
FF80
FF80
FF80
ENDCHAR
STARTCHAR 005C
ENCODING 92
SWIDTH 292 0
DWIDTH 13 0
BBX 13 36 0 -4
BITMAP
E000
F000
7000
7000
7800
3800
3800
3800
3C00
1C00
1C00
1C00
0E00
0E00
0E00
0F00
0700
0700
0700
0780
0380
0380
03C0
01C0
01C0
01C0
01E0
00E0
00E0
00F0
0070
0070
0070
0078
0038
0038
ENDCHAR
STARTCHAR 005D
ENCODING 93
SWIDTH 337 0
DWIDTH 15 0
BBX 8 39 4 -6
BITMAP
FF
FF
FF
0F
0F
0F
0F
0F
0F
0F
0F
0F
0F
0F
0F
0F
0F
0F
0F
0F
0F
0F
0F
0F
0F
0F
0F
0F
0F
0F
0F
0F
0F
0F
0F
0F
FF
FF
FF
ENDCHAR
STARTCHAR 005E
ENCODING 94
SWIDTH 742 0
DWIDTH 33 0
BBX 24 12 5 20
BITMAP
007C00
00FE00
01FF00
01FF80
03E780
07C3C0
0F81E0
1F00F0
3C0078
78003C
F0001E
E0000F
ENDCHAR
STARTCHAR 005F
ENCODING 95
SWIDTH 450 0
DWIDTH 20 0
BBX 20 3 0 -10
BITMAP
FFFFF0
FFFFF0
FFFFF0
ENDCHAR
STARTCHAR 0060
ENCODING 96
SWIDTH 450 0
DWIDTH 20 0
BBX 8 8 4 27
BITMAP
F0
70
78
3C
1C
0E
07
07
ENDCHAR
STARTCHAR 0061
ENCODING 97
SWIDTH 540 0
DWIDTH 24 0
BBX 19 26 2 -1
BITMAP
00E000
1FFC00
3FFF00
3FFF80
300F80
0003C0
0003C0
0001C0
0001C0
0001E0
07FFE0
1FFFE0
3FFFE0
7E01E0
7801E0
7001E0
F001E0
F001E0
F003E0
F003E0
7807E0
7C0FE0
3FFDE0
3FF9E0
1FF1E0
038000
ENDCHAR
STARTCHAR 0062
ENCODING 98
SWIDTH 562 0
DWIDTH 25 0
BBX 19 34 4 -1
BITMAP
E00000
E00000
E00000
E00000
E00000
E00000
E00000
E00000
E06000
E3FC00
E7FE00
EFFF00
FC0F80
F80780
F803C0
F003C0
F001E0
E001E0
E001E0
E001E0
E001E0
E001E0
E001E0
E001E0
E001E0
F001E0
F003C0
F803C0
F80780
FC0F80
EFFF00
E7FE00
E3FC00
006000
ENDCHAR
STARTCHAR 0063
ENCODING 99
SWIDTH 495 0
DWIDTH 22 0
BBX 17 26 2 -1
BITMAP
003000
03FF80
0FFF80
1FFF80
3F0180
3C0000
7C0000
780000
780000
F00000
F00000
F00000
F00000
F00000
F00000
F00000
F00000
780000
780000
7C0000
3C0000
3F0180
1FFF80
0FFF80
03FF00
007000
ENDCHAR
STARTCHAR 0064
ENCODING 100
SWIDTH 562 0
DWIDTH 25 0
BBX 20 34 2 -1
BITMAP
0000F0
0000F0
0000F0
0000F0
0000F0
0000F0
0000F0
0000F0
00C0F0
07F8F0
0FFCF0
1FFEF0
3E07F0
3C03F0
7801F0
7801F0
7001F0
F000F0
F000F0
F000F0
F000F0
F000F0
F000F0
F000F0
F000F0
7001F0
7801F0
7801F0
3C03F0
3E07F0
1FFEF0
0FFCF0
07F8F0
00C000
ENDCHAR
STARTCHAR 0065
ENCODING 101
SWIDTH 540 0
DWIDTH 24 0
BBX 20 26 2 -1
BITMAP
007000
03FE00
0FFF80
1FFFC0
1E03C0
3C01E0
7800E0
7800F0
7000F0
F00070
F00070
FFFFF0
FFFFF0
FFFFF0
F00000
F00000
F00000
780000
780000
7C0000
3C0000
1F00E0
1FFFE0
0FFFE0
03FFC0
003800
ENDCHAR
STARTCHAR 0066
ENCODING 102
SWIDTH 315 0
DWIDTH 14 0
BBX 14 33 1 0
BITMAP
03FC
07FC
0FFC
0F00
0E00
1E00
1E00
1E00
1E00
FFF8
FFF8
FFF8
1E00
1E00
1E00
1E00
1E00
1E00
1E00
1E00
1E00
1E00
1E00
1E00
1E00
1E00
1E00
1E00
1E00
1E00
1E00
1E00
1E00
ENDCHAR
STARTCHAR 0067
ENCODING 103
SWIDTH 562 0
DWIDTH 25 0
BBX 20 34 2 -9
BITMAP
00C000
07F8F0
0FFEF0
1FFEF0
3E07F0
3C03F0
7801F0
7801F0
7001F0
F000F0
F000F0
F000F0
F000F0
F000F0
F000F0
F000F0
7000F0
7801F0
7801F0
7C03F0
3E07F0
1F1FF0
1FFEF0
0FFCF0
03F0E0
0000E0
0001E0
0001E0
0001E0
1003C0
1C0FC0
1FFF80
1FFF00
07FC00
ENDCHAR
STARTCHAR 0068
ENCODING 104
SWIDTH 562 0
DWIDTH 25 0
BBX 18 33 4 0
BITMAP
E00000
E00000
E00000
E00000
E00000
E00000
E00000
E00000
E07000
E3FC00
E7FE00
EFFF00
FC0F80
F80780
F00780
F003C0
F003C0
E003C0
E003C0
E003C0
E003C0
E003C0
E003C0
E003C0
E003C0
E003C0
E003C0
E003C0
E003C0
E003C0
E003C0
E003C0
E003C0
ENDCHAR
STARTCHAR 0069
ENCODING 105
SWIDTH 247 0
DWIDTH 11 0
BBX 3 33 4 0
BITMAP
E0
E0
E0
E0
E0
00
00
00
00
E0
E0
E0
E0
E0
E0
E0
E0
E0
E0
E0
E0
E0
E0
E0
E0
E0
E0
E0
E0
E0
E0
E0
E0
ENDCHAR
STARTCHAR 006A
ENCODING 106
SWIDTH 247 0
DWIDTH 11 0
BBX 8 42 -1 -9
BITMAP
07
07
07
07
07
00
00
00
00
07
07
07
07
07
07
07
07
07
07
07
07
07
07
07
07
07
07
07
07
07
07
07
07
07
07
07
0F
0F
1F
FE
FC
F8
ENDCHAR
STARTCHAR 006B
ENCODING 107
SWIDTH 517 0
DWIDTH 23 0
BBX 18 33 4 0
BITMAP
E00000
E00000
E00000
E00000
E00000
E00000
E00000
E00000
E00000
E007C0
E00F80
E01F00
E03E00
E07C00
E0F800
E1F000
E3E000
E7C000
EF8000
FF0000
FE0000
FF0000
EF8000
E7C000
E3E000
E1F000
E0F800
E07C00
E03E00
E01F00
E00F00
E00780
E003C0
ENDCHAR
STARTCHAR 006C
ENCODING 108
SWIDTH 247 0
DWIDTH 11 0
BBX 3 33 4 0
BITMAP
E0
E0
E0
E0
E0
E0
E0
E0
E0
E0
E0
E0
E0
E0
E0
E0
E0
E0
E0
E0
E0
E0
E0
E0
E0
E0
E0
E0
E0
E0
E0
E0
E0
ENDCHAR
STARTCHAR 006D
ENCODING 109
SWIDTH 877 0
DWIDTH 39 0
BBX 31 25 4 0
BITMAP
006001C0
E3FC0FF0
E7FE1FF8
EFFF3FFC
FC0F703C
F807E01E
F007C01E
F007C01E
E007C01E
E003800E
E003800E
E003800E
E003800E
E003800E
E003800E
E003800E
E003800E
E003800E
E003800E
E003800E
E003800E
E003800E
E003800E
E003800E
E003800E
ENDCHAR
STARTCHAR 006E
ENCODING 110
SWIDTH 562 0
DWIDTH 25 0
BBX 18 25 4 0
BITMAP
007000
E3FC00
E7FE00
EFFF00
FC0F80
F80780
F00780
F003C0
F003C0
E003C0
E003C0
E003C0
E003C0
E003C0
E003C0
E003C0
E003C0
E003C0
E003C0
E003C0
E003C0
E003C0
E003C0
E003C0
E003C0
ENDCHAR
STARTCHAR 006F
ENCODING 111
SWIDTH 540 0
DWIDTH 24 0
BBX 20 26 2 -1
BITMAP
007000
07FE00
0FFF00
1FFF80
3E07C0
3C03E0
7801E0
7801E0
7800F0
F000F0
F000F0
F000F0
F000F0
F000F0
F000F0
F000F0
F000F0
7800F0
7801E0
7801E0
3C03E0
3E07C0
1FFF80
0FFF00
07FE00
006000
ENDCHAR
STARTCHAR 0070
ENCODING 112
SWIDTH 562 0
DWIDTH 25 0
BBX 19 34 4 -9
BITMAP
006000
E3FC00
E7FE00
EFFF00
FC0F80
F80780
F803C0
F003C0
F001E0
E001E0
E001E0
E001E0
E001E0
E001E0
E001E0
E001E0
E001E0
F001E0
F003C0
F803C0
F80780
FC0F80
EFFF00
E7FE00
E3FC00
E06000
E00000
E00000
E00000
E00000
E00000
E00000
E00000
E00000
ENDCHAR
STARTCHAR 0071
ENCODING 113
SWIDTH 562 0
DWIDTH 25 0
BBX 20 34 2 -9
BITMAP
00C000
07F8F0
0FFCF0
1FFEF0
3E07F0
3C03F0
7801F0
7801F0
7001F0
F000F0
F000F0
F000F0
F000F0
F000F0
F000F0
F000F0
F000F0
7001F0
7801F0
7801F0
3C03F0
3E07F0
1FFEF0
0FFCF0
07F8F0
00C0F0
0000F0
0000F0
0000F0
0000F0
0000F0
0000F0
0000F0
0000F0
ENDCHAR
STARTCHAR 0072
ENCODING 114
SWIDTH 360 0
DWIDTH 16 0
BBX 12 25 4 0
BITMAP
0070
E3F0
E7F0
EFF0
FE00
F800
F000
F000
F000
E000
E000
E000
E000
E000
E000
E000
E000
E000
E000
E000
E000
E000
E000
E000
E000
ENDCHAR
STARTCHAR 0073
ENCODING 115
SWIDTH 472 0
DWIDTH 21 0
BBX 17 26 2 -1
BITMAP
00C000
1FFE00
3FFF00
7FFF00
780300
F00000
F00000
F00000
F00000
780000
7E0000
7FE000
3FF800
0FFE00
00FF00
001F00
000F00
000780
000780
000780
800700
E01F00
FFFE00
FFFC00
7FF800
01C000
ENDCHAR
STARTCHAR 0074
ENCODING 116
SWIDTH 360 0
DWIDTH 16 0
BBX 14 31 1 0
BITMAP
1C00
1C00
1C00
1C00
1C00
1C00
1C00
FFFC
FFFC
FFFC
1C00
1C00
1C00
1C00
1C00
1C00
1C00
1C00
1C00
1C00
1C00
1C00
1C00
1C00
1C00
1C00
1E00
1F00
0FFC
0FFC
03FC
ENDCHAR
STARTCHAR 0075
ENCODING 117
SWIDTH 562 0
DWIDTH 25 0
BBX 19 25 3 0
BITMAP
F001E0
F001E0
F001E0
F001E0
F001E0
F001E0
F001E0
F001E0
F001E0
F001E0
F001E0
F001E0
F001E0
F001E0
F001E0
F001E0
F001E0
7003E0
7803E0
7807E0
7C0FE0
3FFDE0
1FF9E0
0FF1E0
018000
ENDCHAR
STARTCHAR 0076
ENCODING 118
SWIDTH 517 0
DWIDTH 23 0
BBX 21 24 1 0
BITMAP
F00078
700078
780070
7800F0
3800F0
3C00E0
3C01E0
1C01E0
1E01C0
1E03C0
0E03C0
0F0380
0F0780
070780
078700
078F00
038F00
03CE00
03DE00
01DE00
01FC00
01FC00
00FC00
00F800
ENDCHAR
STARTCHAR 0077
ENCODING 119
SWIDTH 720 0
DWIDTH 32 0
BBX 29 24 2 0
BITMAP
E00F0078
F00F8070
F01F8070
F01F80F0
701F80F0
781FC0E0
781DC0E0
7839C1E0
3839C1E0
3839E1C0
3C38E1C0
3C78E3C0
1C70E3C0
1C70F3C0
1E707380
1EF07780
0EE07780
0EE07780
0FE03F00
0FE03F00
0FC03F00
07C03F00
07C03E00
07C01E00
ENDCHAR
STARTCHAR 0078
ENCODING 120
SWIDTH 517 0
DWIDTH 23 0
BBX 21 24 1 0
BITMAP
7800F0
3C01F0
1E01E0
1E03C0
0F07C0
078780
078F00
03DF00
01FE00
01FC00
00FC00
00F800
00F800
01FC00
03FE00
03DE00
078F00
0F8780
0F0780
1E03C0
3E01E0
3C01E0
7800F0
F80078
ENDCHAR
STARTCHAR 0079
ENCODING 121
SWIDTH 517 0
DWIDTH 23 0
BBX 21 33 1 -9
BITMAP
F00078
780078
780070
3800F0
3C00F0
3C01E0
1C01E0
1E01E0
1E03C0
0E03C0
0F0380
0F0780
070780
078700
038F00
03CF00
03CE00
01DE00
01FE00
01FC00
00FC00
00F800
007800
007800
007000
00F000
00F000
01E000
01E000
03C000
3FC000
3F8000
3F0000
ENDCHAR
STARTCHAR 007A
ENCODING 122
SWIDTH 472 0
DWIDTH 21 0
BBX 17 24 2 0
BITMAP
FFFF80
FFFF80
FFFF80
000780
000F00
001F00
003E00
003C00
007800
00F000
01F000
01E000
03C000
078000
0F8000
1F0000
1E0000
3C0000
7C0000
F80000
F00000
FFFF80
FFFF80
FFFF80
ENDCHAR
STARTCHAR 007B
ENCODING 123
SWIDTH 562 0
DWIDTH 25 0
BBX 15 40 5 -7
BITMAP
007E
01FE
01FE
03E0
03C0
03C0
03C0
03C0
03C0
03C0
03C0
03C0
03C0
03C0
0380
0380
0780
0F80
FF00
FE00
FE00
3F00
0780
0780
0380
0380
03C0
03C0
03C0
03C0
03C0
03C0
03C0
03C0
03C0
03C0
03E0
01FE
01FE
007E
ENDCHAR
STARTCHAR 007C
ENCODING 124
SWIDTH 292 0
DWIDTH 13 0
BBX 3 44 5 -10
BITMAP
E0
E0
E0
E0
E0
E0
E0
E0
E0
E0
E0
E0
E0
E0
E0
E0
E0
E0
E0
E0
E0
E0
E0
E0
E0
E0
E0
E0
E0
E0
E0
E0
E0
E0
E0
E0
E0
E0
E0
E0
E0
E0
E0
E0
ENDCHAR
STARTCHAR 007D
ENCODING 125
SWIDTH 562 0
DWIDTH 25 0
BBX 15 40 5 -7
BITMAP
FE00
FF00
FF00
0780
0780
0380
0380
0380
0380
0380
0380
0380
0380
0380
0380
03C0
03C0
03E0
01FE
00FE
00FE
01F8
03C0
03C0
0380
0380
0380
0380
0380
0380
0380
0380
0380
0380
0780
0780
0F80
FF00
FF00
FC00
ENDCHAR
STARTCHAR 007E
ENCODING 126
SWIDTH 742 0
DWIDTH 33 0
BBX 25 7 4 11
BITMAP
0FE00080
3FF80380
7FFF0F80
FFFFFF80
F01FFE00
C007FC00
80000000
ENDCHAR
STARTCHAR 00A0
ENCODING 160
SWIDTH 292 0
DWIDTH 13 0
BBX 0 0 0 0
BITMAP
ENDCHAR
STARTCHAR 00A1
ENCODING 161
SWIDTH 360 0
DWIDTH 16 0
BBX 4 32 6 -8
BITMAP
F0
F0
F0
F0
F0
00
00
00
00
00
F0
F0
F0
F0
F0
F0
F0
F0
F0
F0
F0
F0
F0
F0
F0
F0
F0
F0
F0
F0
F0
F0
ENDCHAR
STARTCHAR 00A2
ENCODING 162
SWIDTH 562 0
DWIDTH 25 0
BBX 17 38 3 -7
BITMAP
003000
003000
003000
003000
003000
003000
003800
03FF80
07FF80
1FFF80
1F3180
3E3000
7C3000
783000
783000
703000
F03000
F03000
F03000
F03000
F03000
F03000
703000
783000
783000
7C3000
3E3000
1F3180
1FFF80
07FF80
03FF80
003800
003000
003000
003000
003000
003000
003000
ENDCHAR
STARTCHAR 00A3
ENCODING 163
SWIDTH 562 0
DWIDTH 25 0
BBX 20 33 2 0
BITMAP
000E00
007FE0
00FFE0
01FFE0
03E060
03C000
07C000
078000
078000
078000
078000
078000
078000
078000
078000
078000
7FFF00
7FFF00
7FFF00
078000
078000
078000
078000
078000
078000
078000
078000
078000
078000
FFFFF0
FFFFF0
FFFFF0
FFFFF0
ENDCHAR
STARTCHAR 00A4
ENCODING 164
SWIDTH 562 0
DWIDTH 25 0
BBX 21 24 2 2
BITMAP
000010
600030
F00078
78F8F8
7FFFF0
3FFFE0
1FFFC0
0F03C0
1E01C0
1C01C0
1C00E0
3800E0
3800E0
3C00E0
1C01E0
1C01C0
1E03C0
0F07C0
1FFFC0
3FFFE0
79FCF0
F00078
F00038
600010
ENDCHAR
STARTCHAR 00A5
ENCODING 165
SWIDTH 562 0
DWIDTH 25 0
BBX 21 32 2 0
BITMAP
F00038
F00078
780070
7800F0
3800E0
3C01E0
1C01C0
1E03C0
0E0380
0F0780
070700
078F00
038E00
7FDFF8
7FDFF8
01FC00
00F800
00F800
007800
007800
7FFFF8
7FFFF8
007800
007800
007800
007800
007800
007800
007800
007800
007800
007800
ENDCHAR
STARTCHAR 00A6
ENCODING 166
SWIDTH 292 0
DWIDTH 13 0
BBX 3 39 5 -8
BITMAP
E0
E0
E0
E0
E0
E0
E0
E0
E0
E0
E0
E0
E0
E0
E0
E0
E0
00
00
00
00
00
E0
E0
E0
E0
E0
E0
E0
E0
E0
E0
E0
E0
E0
E0
E0
E0
E0
ENDCHAR
STARTCHAR 00A7
ENCODING 167
SWIDTH 450 0
DWIDTH 20 0
BBX 16 37 2 -4
BITMAP
01C0
0FFC
1FFC
3F7C
7804
7800
7800
7800
7800
3C00
3F00
1F80
3FE0
7BF0
F0F8
E07C
E01E
E00F
E00F
F007
F807
7C07
3F0E
1F9E
07FC
03F8
00F8
007C
003C
001E
001E
001E
001C
703C
7FFC
7FF8
1FE0
ENDCHAR
STARTCHAR 00A8
ENCODING 168
SWIDTH 450 0
DWIDTH 20 0
BBX 12 4 4 29
BITMAP
F0F0
F0F0
F0F0
F0F0
ENDCHAR
STARTCHAR 00A9
ENCODING 169
SWIDTH 900 0
DWIDTH 40 0
BBX 29 32 5 0
BITMAP
000FC000
007FF800
01F87C00
03C00F00
07000380
0E0001C0
1C0300C0
181FF0E0
307FF860
30F81830
60E00030
61E00038
61C00018
63C00018
43800018
C3800018
C3800018
43800018
63C00018
61C00018
61C00018
61E00030
30F01830
307FF870
183FF860
1C07C0C0
0E0001C0
07000380
03C00F00
01F07C00
007FF800
001FC000
ENDCHAR
STARTCHAR 00AA
ENCODING 170
SWIDTH 427 0
DWIDTH 19 0
BBX 14 23 2 10
BITMAP
0700
7FE0
7FF0
6078
0018
001C
001C
0FFC
3FFC
7C1C
701C
E01C
E01C
E03C
F07C
7FFC
3FDC
1F1C
0000
0000
7FFC
7FFC
7FFC
ENDCHAR
STARTCHAR 00AB
ENCODING 171
SWIDTH 540 0
DWIDTH 24 0
BBX 18 20 3 3
BITMAP
000040
0080C0
0181C0
0383C0
078780
0F0F00
1E1E00
3C3C00
787800
F0F000
F0F000
787800
3C3C00
1E1E00
0F0F00
078780
0383C0
0181C0
0080C0
000040
ENDCHAR
STARTCHAR 00AC
ENCODING 172
SWIDTH 742 0
DWIDTH 33 0
BBX 25 13 4 6
BITMAP
FFFFFF80
FFFFFF80
FFFFFF80
FFFFFF80
00000380
00000380
00000380
00000380
00000380
00000380
00000380
00000380
00000380
ENDCHAR
STARTCHAR 00AD
ENCODING 173
SWIDTH 315 0
DWIDTH 14 0
BBX 10 4 2 10
BITMAP
FFC0
FFC0
FFC0
FFC0
ENDCHAR
STARTCHAR 00AE
ENCODING 174
SWIDTH 900 0
DWIDTH 40 0
BBX 29 32 5 0
BITMAP
000FC000
007FF800
01F87C00
03C00F00
07000380
0E0001C0
1C0000C0
187FE0E0
307FF060
30707830
60703830
60703838
60703818
60703818
40707818
C07FF018
C07F8018
4071C018
6070E018
6070F018
60707018
60707830
30703830
30701C70
18701C60
1C0000C0
0E0001C0
07000380
03C00F00
01F07C00
007FF800
001FC000
ENDCHAR
STARTCHAR 00AF
ENCODING 175
SWIDTH 450 0
DWIDTH 20 0
BBX 12 3 4 30
BITMAP
FFF0
FFF0
FFF0
ENDCHAR
STARTCHAR 00B0
ENCODING 176
SWIDTH 450 0
DWIDTH 20 0
BBX 12 14 4 19
BITMAP
0600
3F80
7FC0
71E0
E070
E070
C030
C030
C070
E070
F0E0
7FE0
3FC0
1F00
ENDCHAR
STARTCHAR 00B1
ENCODING 177
SWIDTH 742 0
DWIDTH 33 0
BBX 25 28 4 0
BITMAP
001C0000
001C0000
001C0000
001C0000
001C0000
001C0000
001C0000
001C0000
001C0000
FFFFFF80
FFFFFF80
FFFFFF80
001C0000
001C0000
001C0000
001C0000
001C0000
001C0000
001C0000
001C0000
001C0000
00000000
00000000
00000000
FFFFFF80
FFFFFF80
FFFFFF80
FFFFFF80
ENDCHAR
STARTCHAR 00B2
ENCODING 178
SWIDTH 360 0
DWIDTH 16 0
BBX 11 19 2 14
BITMAP
0C00
FF80
FFC0
81E0
00E0
00E0
00E0
00E0
01C0
0380
0780
0700
0E00
1C00
3800
7000
FFE0
FFE0
FFE0
ENDCHAR
STARTCHAR 00B3
ENCODING 179
SWIDTH 360 0
DWIDTH 16 0
BBX 12 19 2 14
BITMAP
0E00
FFC0
FFE0
80E0
00E0
0060
00E0
01E0
1F80
1FC0
01E0
00E0
0070
0070
0070
00E0
E3E0
FFC0
7F00
ENDCHAR
STARTCHAR 00B4
ENCODING 180
SWIDTH 450 0
DWIDTH 20 0
BBX 9 8 7 27
BITMAP
0780
0F00
0E00
1E00
3C00
3800
7000
E000
ENDCHAR
STARTCHAR 00B5
ENCODING 181
SWIDTH 562 0
DWIDTH 25 0
BBX 21 33 3 -9
BITMAP
F001E0
F001E0
F001E0
F001E0
F001E0
F001E0
F001E0
F001E0
F001E0
F001E0
F001E0
F001E0
F001E0
F001E0
F001E0
F001E0
F001E0
F003E0
F803E0
F807E0
FC0FE0
FFFFF8
F7FDF8
F3F8F8
F0C020
F00000
F00000
F00000
F00000
F00000
F00000
F00000
F00000
ENDCHAR
STARTCHAR 00B6
ENCODING 182
SWIDTH 562 0
DWIDTH 25 0
BBX 18 36 3 -4
BITMAP
03FFC0
0FFFC0
3FFFC0
3FF1C0
7FF1C0
7FF1C0
FFF1C0
FFF1C0
FFF1C0
FFF1C0
FFF1C0
FFF1C0
7FF1C0
7FF1C0
3FF1C0
1FF1C0
0FF1C0
03F1C0
0071C0
0071C0
0071C0
0071C0
0071C0
0071C0
0071C0
0071C0
0071C0
0071C0
0071C0
0071C0
0071C0
0071C0
0071C0
0071C0
0071C0
0071C0
ENDCHAR
STARTCHAR 00B7
ENCODING 183
SWIDTH 292 0
DWIDTH 13 0
BBX 4 5 4 13
BITMAP
F0
F0
F0
F0
F0
ENDCHAR
STARTCHAR 00B8
ENCODING 184
SWIDTH 450 0
DWIDTH 20 0
BBX 8 8 6 -8
BITMAP
0C
0E
06
06
07
0F
FE
FC
ENDCHAR
STARTCHAR 00B9
ENCODING 185
SWIDTH 360 0
DWIDTH 16 0
BBX 11 18 3 14
BITMAP
FE00
FE00
CE00
0E00
0E00
0E00
0E00
0E00
0E00
0E00
0E00
0E00
0E00
0E00
0E00
FFE0
FFE0
FFE0
ENDCHAR
STARTCHAR 00BA
ENCODING 186
SWIDTH 427 0
DWIDTH 19 0
BBX 15 23 2 10
BITMAP
0380
1FE0
3FF8
7838
701C
F01C
E01E
E00E
E00E
E00E
E00E
E00E
E01C
701C
783C
3FF8
1FF0
0FC0
0000
0000
7FFC
7FFC
7FFC
ENDCHAR
STARTCHAR 00BB
ENCODING 187
SWIDTH 540 0
DWIDTH 24 0
BBX 17 19 4 4
BITMAP
808000
C0C000
E0E000
F0F000
787800
3C3C00
1E1E00
0F0F00
078780
078380
0F0780
1E0F00
3C3E00
787C00
F0F800
E0F000
C0E000
80C000
008000
ENDCHAR
STARTCHAR 00BC
ENCODING 188
SWIDTH 855 0
DWIDTH 38 0
BBX 34 34 3 -1
BITMAP
000000E000
FE0001C000
FE0003C000
CE00038000
0E00078000
0E00070000
0E000E0000
0E000E0000
0E001C0000
0E001C0000
0E00380000
0E00380000
0E00700000
0E00F00000
0E00E00000
0E01E00F00
FFE1C01F00
FFE3803F00
FFE3803700
0007006700
000700E700
000E00C700
000E018700
001C038700
001C030700
0038060700
007807FFC0
007007FFC0
00F007FFC0
00E0000700
01C0000700
01C0000700
0380000700
0380000000
ENDCHAR
STARTCHAR 00BD
ENCODING 189
SWIDTH 855 0
DWIDTH 38 0
BBX 33 34 3 -1
BITMAP
000000E000
FE0001C000
FE0003C000
CE00038000
0E00078000
0E00070000
0E000E0000
0E000E0000
0E001C0000
0E001C0000
0E00380000
0E00380000
0E00700000
0E00F00000
0E00E07000
0E01E3FE00
FFE1C7FF00
FFE3860700
FFE3800380
0007000380
0007000380
000E000700
000E000700
001C000E00
001C001C00
0038003800
0078007000
007000E000
00F001C000
00E0038000
01C007FF80
01C007FF80
038007FF80
0380000000
ENDCHAR
STARTCHAR 00BE
ENCODING 190
SWIDTH 855 0
DWIDTH 38 0
BBX 35 34 2 -1
BITMAP
0E00007000
FFC000E000
FFE001E000
80E001C000
00E003C000
0060038000
00E0070000
01E0070000
1F800E0000
1FC00E0000
01E01C0000
00E01C0000
0070380000
0070780000
0070700000
00E0F00780
E3E0E00F80
FFC1C01F80
7F01C01B80
0003803380
0003807380
0007006380
000700C380
000E01C380
000E018380
001C030380
003C03FFE0
003803FFE0
007803FFE0
0070000380
00E0000380
00E0000380
01C0000380
01C0000000
ENDCHAR
STARTCHAR 00BF
ENCODING 191
SWIDTH 472 0
DWIDTH 21 0
BBX 15 33 3 -9
BITMAP
01C0
01C0
01C0
01C0
01C0
0000
0000
0000
0000
01C0
01C0
01C0
01C0
01C0
03C0
03C0
0780
0F80
1F00
3E00
7C00
7800
F000
F000
F000
F000
F000
F806
FC1E
7FFE
3FFE
1FF8
0380
ENDCHAR
STARTCHAR 00C0
ENCODING 192
SWIDTH 607 0
DWIDTH 27 0
BBX 27 41 0 0
BITMAP
00780000
00380000
001C0000
001E0000
000E0000
00070000
00000000
00000000
00000000
001F0000
001F0000
003F8000
003F8000
003B8000
007BC000
007BC000
0071C000
00F1E000
00F1E000
00E0E000
01E0F000
01E0F000
01C07000
03C07800
03C07800
03803800
07803C00
07803C00
07001C00
0FFFFE00
0FFFFE00
0FFFFF00
1FFFFF00
1E000F00
1E000780
3C000780
3C000780
7C0003C0
780003C0
780003C0
F80001E0
ENDCHAR
STARTCHAR 00C1
ENCODING 193
SWIDTH 607 0
DWIDTH 27 0
BBX 27 41 0 0
BITMAP
0003C000
00038000
00070000
000F0000
000E0000
001C0000
00000000
00000000
00000000
001F0000
001F0000
003F8000
003F8000
003B8000
007BC000
007BC000
0071C000
00F1E000
00F1E000
00E0E000
01E0F000
01E0F000
01C07000
03C07800
03C07800
03803800
07803C00
07803C00
07001C00
0FFFFE00
0FFFFE00
0FFFFF00
1FFFFF00
1E000F00
1E000780
3C000780
3C000780
7C0003C0
780003C0
780003C0
F80001E0
ENDCHAR
STARTCHAR 00C2
ENCODING 194
SWIDTH 607 0
DWIDTH 27 0
BBX 27 41 0 0
BITMAP
001F0000
001F0000
003B8000
0071C000
0070C000
00E0E000
00000000
00000000
00000000
001F0000
001F0000
003F8000
003F8000
003B8000
007BC000
007BC000
0071C000
00F1E000
00F1E000
00E0E000
01E0F000
01E0F000
01C07000
03C07800
03C07800
03803800
07803C00
07803C00
07001C00
0FFFFE00
0FFFFE00
0FFFFF00
1FFFFF00
1E000F00
1E000780
3C000780
3C000780
7C0003C0
780003C0
780003C0
F80001E0
ENDCHAR
STARTCHAR 00C3
ENCODING 195
SWIDTH 607 0
DWIDTH 27 0
BBX 27 41 0 0
BITMAP
00007000
00FC7000
00FF7000
01CFE000
01C3C000
00000000
00000000
00000000
00000000
001F0000
001F0000
003F8000
003F8000
003B8000
007BC000
007BC000
0071C000
00F1E000
00F1E000
00E0E000
01E0F000
01E0F000
01C07000
03C07800
03C07800
03803800
07803C00
07803C00
07001C00
0FFFFE00
0FFFFE00
0FFFFF00
1FFFFF00
1E000F00
1E000780
3C000780
3C000780
7C0003C0
780003C0
780003C0
F80001E0
ENDCHAR
STARTCHAR 00C4
ENCODING 196
SWIDTH 607 0
DWIDTH 27 0
BBX 27 40 0 0
BITMAP
00F1E000
00F1E000
00F1E000
00F1E000
00000000
00000000
00000000
00000000
001F0000
001F0000
003F8000
003F8000
003B8000
007BC000
007BC000
0071C000
00F1E000
00F1E000
00E0E000
01E0F000
01E0F000
01C07000
03C07800
03C07800
03803800
07803C00
07803C00
07001C00
0FFFFE00
0FFFFE00
0FFFFF00
1FFFFF00
1E000F00
1E000780
3C000780
3C000780
7C0003C0
780003C0
780003C0
F80001E0
ENDCHAR
STARTCHAR 00C5
ENCODING 197
SWIDTH 607 0
DWIDTH 27 0
BBX 27 41 0 0
BITMAP
000E0000
003F8000
007FC000
0071C000
00E0E000
00E0E000
00E0E000
00E0E000
0071C000
007FC000
003F8000
003F8000
003F8000
003B8000
007BC000
007BC000
0071C000
00F1E000
00F1E000
00E0E000
01E0F000
01E0F000
01C07000
03C07800
03C07800
03803800
07803C00
07803C00
07801C00
0FFFFE00
0FFFFE00
0FFFFF00
1FFFFF00
1E000F00
1E000780
3C000780
3C000780
7C0003C0
780003C0
780003C0
F80001E0
ENDCHAR
STARTCHAR 00C6
ENCODING 198
SWIDTH 877 0
DWIDTH 39 0
BBX 36 32 0 0
BITMAP
000FFFFFF0
000FFFFFF0
001FFFFFF0
001E7FFFF0
001C780000
003C780000
003C780000
0078780000
0078780000
0078780000
00F0780000
00F0780000
01E0780000
01E07FFFE0
01E07FFFE0
03C07FFFE0
03C07FFFE0
03C0780000
0780780000
0780780000
0FFFF80000
0FFFF80000
0FFFF80000
1FFFF80000
1E00780000
1E00780000
3C00780000
3C00780000
78007FFFF0
78007FFFF0
78007FFFF0
F0007FFFF0
ENDCHAR
STARTCHAR 00C7
ENCODING 199
SWIDTH 630 0
DWIDTH 28 0
BBX 24 41 2 -8
BITMAP
000700
00FFF0
01FFFC
07FFFF
0FE03F
1F800F
1F0003
3E0001
3C0000
7C0000
780000
780000
780000
F80000
F00000
F00000
F00000
F00000
F00000
F00000
F80000
780000
780000
780000
7C0000
3C0000
3E0001
1F0003
1F800F
0FE03F
07FFFF
01FFFC
00FFF0
000700
000300
000380
000180
000180
004380
007F80
007F00
ENDCHAR
STARTCHAR 00C8
ENCODING 200
SWIDTH 562 0
DWIDTH 25 0
BBX 19 41 4 0
BITMAP
0F0000
078000
038000
01C000
00E000
00E000
000000
000000
000000
FFFFC0
FFFFC0
FFFFC0
FFFFC0
F00000
F00000
F00000
F00000
F00000
F00000
F00000
F00000
F00000
FFFFC0
FFFFC0
FFFFC0
FFFFC0
F00000
F00000
F00000
F00000
F00000
F00000
F00000
F00000
F00000
F00000
F00000
FFFFE0
FFFFE0
FFFFE0
FFFFE0
ENDCHAR
STARTCHAR 00C9
ENCODING 201
SWIDTH 562 0
DWIDTH 25 0
BBX 19 41 4 0
BITMAP
003800
007800
00F000
00E000
01C000
03C000
000000
000000
000000
FFFFC0
FFFFC0
FFFFC0
FFFFC0
F00000
F00000
F00000
F00000
F00000
F00000
F00000
F00000
F00000
FFFFC0
FFFFC0
FFFFC0
FFFFC0
F00000
F00000
F00000
F00000
F00000
F00000
F00000
F00000
F00000
F00000
F00000
FFFFE0
FFFFE0
FFFFE0
FFFFE0
ENDCHAR
STARTCHAR 00CA
ENCODING 202
SWIDTH 562 0
DWIDTH 25 0
BBX 19 41 4 0
BITMAP
01E000
03F000
07F000
073800
0E1C00
1C0E00
000000
000000
000000
FFFFC0
FFFFC0
FFFFC0
FFFFC0
F00000
F00000
F00000
F00000
F00000
F00000
F00000
F00000
F00000
FFFFC0
FFFFC0
FFFFC0
FFFFC0
F00000
F00000
F00000
F00000
F00000
F00000
F00000
F00000
F00000
F00000
F00000
FFFFE0
FFFFE0
FFFFE0
FFFFE0
ENDCHAR
STARTCHAR 00CB
ENCODING 203
SWIDTH 562 0
DWIDTH 25 0
BBX 19 40 4 0
BITMAP
1E1E00
1E1E00
1E1E00
1E1E00
000000
000000
000000
000000
FFFFC0
FFFFC0
FFFFC0
FFFFC0
F00000
F00000
F00000
F00000
F00000
F00000
F00000
F00000
F00000
FFFFC0
FFFFC0
FFFFC0
FFFFC0
F00000
F00000
F00000
F00000
F00000
F00000
F00000
F00000
F00000
F00000
F00000
FFFFE0
FFFFE0
FFFFE0
FFFFE0
ENDCHAR
STARTCHAR 00CC
ENCODING 204
SWIDTH 270 0
DWIDTH 12 0
BBX 7 41 1 0
BITMAP
F0
78
38
1C
0E
0E
00
00
00
1E
1E
1E
1E
1E
1E
1E
1E
1E
1E
1E
1E
1E
1E
1E
1E
1E
1E
1E
1E
1E
1E
1E
1E
1E
1E
1E
1E
1E
1E
1E
1E
ENDCHAR
STARTCHAR 00CD
ENCODING 205
SWIDTH 270 0
DWIDTH 12 0
BBX 7 41 3 0
BITMAP
0E
1E
3C
38
70
E0
00
00
00
78
78
78
78
78
78
78
78
78
78
78
78
78
78
78
78
78
78
78
78
78
78
78
78
78
78
78
78
78
78
78
78
ENDCHAR
STARTCHAR 00CE
ENCODING 206
SWIDTH 270 0
DWIDTH 12 0
BBX 11 41 0 0
BITMAP
0F00
1F80
3F80
39C0
70E0
E060
0000
0000
0000
0F00
0F00
0F00
0F00
0F00
0F00
0F00
0F00
0F00
0F00
0F00
0F00
0F00
0F00
0F00
0F00
0F00
0F00
0F00
0F00
0F00
0F00
0F00
0F00
0F00
0F00
0F00
0F00
0F00
0F00
0F00
0F00
ENDCHAR
STARTCHAR 00CF
ENCODING 207
SWIDTH 270 0
DWIDTH 12 0
BBX 12 40 0 0
BITMAP
F0F0
F0F0
F0F0
F0F0
0000
0000
0000
0000
0F00
0F00
0F00
0F00
0F00
0F00
0F00
0F00
0F00
0F00
0F00
0F00
0F00
0F00
0F00
0F00
0F00
0F00
0F00
0F00
0F00
0F00
0F00
0F00
0F00
0F00
0F00
0F00
0F00
0F00
0F00
0F00
ENDCHAR
STARTCHAR 00D0
ENCODING 208
SWIDTH 697 0
DWIDTH 31 0
BBX 28 32 0 0
BITMAP
0FFFC000
0FFFF800
0FFFFE00
0F07FF00
0F001F80
0F000FC0
0F0007C0
0F0003E0
0F0001E0
0F0001F0
0F0000F0
0F0000F0
0F0000F0
0F0000F0
FFFE00F0
FFFE00F0
FFFE00F0
0F0000F0
0F0000F0
0F0000F0
0F0000F0
0F0000F0
0F0001F0
0F0001E0
0F0003E0
0F0007C0
0F000FC0
0F003F80
0FFFFF00
0FFFFE00
0FFFF800
0FFF8000
ENDCHAR
STARTCHAR 00D1
ENCODING 209
SWIDTH 675 0
DWIDTH 30 0
BBX 22 41 4 0
BITMAP
000180
03E180
07FB80
067F00
0E1F00
000000
000000
000000
000000
F8003C
FC003C
FC003C
FE003C
FE003C
FF003C
FF003C
F7803C
F7803C
F3C03C
F3C03C
F1E03C
F1E03C
F0F03C
F0F03C
F0783C
F0783C
F03C3C
F03C3C
F01E3C
F01E3C
F01E3C
F00F3C
F00F3C
F007BC
F007BC
F003FC
F003FC
F001FC
F001FC
F000FC
F000FC
ENDCHAR
STARTCHAR 00D2
ENCODING 210
SWIDTH 697 0
DWIDTH 31 0
BBX 27 42 2 -1
BITMAP
00780000
00380000
001C0000
001E0000
000E0000
00070000
00000000
00000000
000E0000
00FFE000
03FFF800
07FFFC00
0FC07E00
1F801F00
1F000F00
3E000F80
3C000780
7C0003C0
780003C0
780003C0
780003E0
F80001E0
F00001E0
F00001E0
F00001E0
F00001E0
F00001E0
F00001E0
F80001E0
780003E0
780003C0
780003C0
7C0007C0
3C000780
3E000F80
1F000F00
1F801F00
0FC07E00
07FFFC00
03FFF800
00FFE000
000E0000
ENDCHAR
STARTCHAR 00D3
ENCODING 211
SWIDTH 697 0
DWIDTH 31 0
BBX 27 42 2 -1
BITMAP
0003C000
00038000
00070000
000F0000
000E0000
001C0000
00000000
00000000
000E0000
00FFE000
03FFF800
07FFFC00
0FC07E00
1F801F00
1F000F00
3E000F80
3C000780
7C0003C0
780003C0
780003C0
780003E0
F80001E0
F00001E0
F00001E0
F00001E0
F00001E0
F00001E0
F00001E0
F80001E0
780003E0
780003C0
780003C0
7C0007C0
3C000780
3E000F80
1F000F00
1F801F00
0FC07E00
07FFFC00
03FFF800
00FFE000
000E0000
ENDCHAR
STARTCHAR 00D4
ENCODING 212
SWIDTH 697 0
DWIDTH 31 0
BBX 27 42 2 -1
BITMAP
000F0000
001F0000
003B8000
0071C000
0070E000
00E0E000
00000000
00000000
000E0000
00FFE000
03FFF800
07FFFC00
0FC07E00
1F801F00
1F000F00
3E000F80
3C000780
7C0003C0
780003C0
780003C0
780003E0
F80001E0
F00001E0
F00001E0
F00001E0
F00001E0
F00001E0
F00001E0
F80001E0
780003E0
780003C0
780003C0
7C0007C0
3C000780
3E000F80
1F000F00
1F801F00
0FC07E00
07FFFC00
03FFF800
00FFE000
000E0000
ENDCHAR
STARTCHAR 00D5
ENCODING 213
SWIDTH 697 0
DWIDTH 31 0
BBX 27 42 2 -1
BITMAP
00003000
00FC7000
00FF7000
01CFE000
01C3C000
00000000
00000000
00000000
000E0000
00FFE000
03FFF800
07FFFC00
0FC07E00
1F801F00
1F000F00
3E000F80
3C000780
7C0003C0
780003C0
780003C0
780003E0
F80001E0
F00001E0
F00001E0
F00001E0
F00001E0
F00001E0
F00001E0
F80001E0
780003E0
780003C0
780003C0
7C0007C0
3C000780
3E000F80
1F000F00
1F801F00
0FC07E00
07FFFC00
03FFF800
00FFE000
000E0000
ENDCHAR
STARTCHAR 00D6
ENCODING 214
SWIDTH 697 0
DWIDTH 31 0
BBX 27 41 2 -1
BITMAP
00F1E000
00F1E000
00F1E000
00F1E000
00000000
00000000
00000000
000E0000
00FFE000
03FFF800
07FFFC00
0FC07E00
1F801F00
1F000F00
3E000F80
3C000780
7C0003C0
780003C0
780003C0
780003E0
F80001E0
F00001E0
F00001E0
F00001E0
F00001E0
F00001E0
F00001E0
F80001E0
780003E0
780003C0
780003C0
7C0007C0
3C000780
3E000F80
1F000F00
1F801F00
0FC07E00
07FFFC00
03FFF800
00FFE000
000E0000
ENDCHAR
STARTCHAR 00D7
ENCODING 215
SWIDTH 742 0
DWIDTH 33 0
BBX 22 25 6 1
BITMAP
400010
E00038
F0007C
F800F8
7C01F0
3E03E0
1F07C0
0F8F80
07CF00
03DE00
01FC00
00FC00
00F800
01FC00
03FE00
07DF00
0F8F80
1F07C0
1E03E0
3C01E0
7800F0
F80078
F00038
600030
000010
ENDCHAR
STARTCHAR 00D8
ENCODING 216
SWIDTH 697 0
DWIDTH 31 0
BBX 27 34 2 -1
BITMAP
000E00C0
00FFE0E0
03FFF9C0
07FFFFC0
0FC07F80
1F803F00
1F000F00
3E001F80
3C003F80
7C003FC0
780073C0
7800F3C0
7801E3E0
F801C1E0
F00381E0
F00701E0
F00F01E0
F01E01E0
F01C01E0
F03801E0
F87801E0
78F003E0
78E003C0
79C003C0
7FC007C0
3F800780
3F000F80
1F000F00
1F801F00
3FE07E00
3FFFFC00
73FFF800
E0FFE000
600E0000
ENDCHAR
STARTCHAR 00D9
ENCODING 217
SWIDTH 652 0
DWIDTH 29 0
BBX 23 42 3 -1
BITMAP
01E000
00E000
007000
007800
003800
001C00
000000
000000
000000
F0001E
F0001E
F0001E
F0001E
F0001E
F0001E
F0001E
F0001E
F0001E
F0001E
F0001E
F0001E
F0001E
F0001E
F0001E
F0001E
F0001E
F0001E
F0001E
F0001E
F0001E
F0001E
78003C
78003C
78003C
78003C
7C0078
3E00F8
1F01F0
1FFFF0
0FFFE0
03FF80
003800
ENDCHAR
STARTCHAR 00DA
ENCODING 218
SWIDTH 652 0
DWIDTH 29 0
BBX 23 42 3 -1
BITMAP
000F00
000E00
001C00
003C00
003800
007000
000000
000000
000000
F0001E
F0001E
F0001E
F0001E
F0001E
F0001E
F0001E
F0001E
F0001E
F0001E
F0001E
F0001E
F0001E
F0001E
F0001E
F0001E
F0001E
F0001E
F0001E
F0001E
F0001E
F0001E
78003C
78003C
78003C
78003C
7C0078
3E00F8
1F01F0
1FFFF0
0FFFE0
03FF80
003800
ENDCHAR
STARTCHAR 00DB
ENCODING 219
SWIDTH 652 0
DWIDTH 29 0
BBX 23 42 3 -1
BITMAP
007C00
007C00
00EE00
01C700
018300
038380
000000
000000
000000
F0001E
F0001E
F0001E
F0001E
F0001E
F0001E
F0001E
F0001E
F0001E
F0001E
F0001E
F0001E
F0001E
F0001E
F0001E
F0001E
F0001E
F0001E
F0001E
F0001E
F0001E
F0001E
78003C
78003C
78003C
78003C
7C0078
3E00F8
1F01F0
1FFFF0
0FFFE0
03FF80
003800
ENDCHAR
STARTCHAR 00DC
ENCODING 220
SWIDTH 652 0
DWIDTH 29 0
BBX 23 41 3 -1
BITMAP
03C780
03C780
03C780
03C780
000000
000000
000000
000000
F0001E
F0001E
F0001E
F0001E
F0001E
F0001E
F0001E
F0001E
F0001E
F0001E
F0001E
F0001E
F0001E
F0001E
F0001E
F0001E
F0001E
F0001E
F0001E
F0001E
F0001E
F0001E
78003C
78003C
78003C
78003C
7C0078
3E00F8
1F01F0
1FFFF0
0FFFE0
03FF80
003800
ENDCHAR
STARTCHAR 00DD
ENCODING 221
SWIDTH 540 0
DWIDTH 24 0
BBX 24 41 0 0
BITMAP
000780
000F00
000E00
001C00
003800
003800
000000
000000
000000
F0000F
78001E
7C001E
3C003C
1E007C
1F0078
0F00F0
0781F0
0781E0
03C3C0
03E3C0
01E780
00FF80
00FF00
007E00
007E00
003C00
003C00
003C00
003C00
003C00
003C00
003C00
003C00
003C00
003C00
003C00
003C00
003C00
003C00
003C00
003C00
ENDCHAR
STARTCHAR 00DE
ENCODING 222
SWIDTH 540 0
DWIDTH 24 0
BBX 19 32 4 0
BITMAP
F00000
F00000
F00000
F00000
F00000
F00000
FFFC00
FFFE00
FFFF00
F01F80
F007C0
F007C0
F003C0
F003C0
F003C0
F003E0
F003C0
F003C0
F003C0
F007C0
F00F80
FFFF80
FFFF00
FFFC00
FFE000
F00000
F00000
F00000
F00000
F00000
F00000
F00000
ENDCHAR
STARTCHAR 00DF
ENCODING 223
SWIDTH 562 0
DWIDTH 25 0
BBX 19 34 4 -1
BITMAP
0FF800
3FFC00
7FFE00
7C1F00
F00F00
F00700
E00700
E00780
E03F80
E07F00
E0F800
E0E000
E1E000
E1E000
E1E000
E1E000
E1F000
E0F800
E0FC00
E07E00
E03F80
E00FC0
E007C0
E003E0
E001E0
E001E0
E001E0
E001E0
E001E0
E603C0
E7FFC0
E7FF80
E7FF00
007800
ENDCHAR
STARTCHAR 00E0
ENCODING 224
SWIDTH 540 0
DWIDTH 24 0
BBX 19 36 2 -1
BITMAP
1E0000
0F0000
078000
038000
01C000
01E000
00E000
007000
000000
000000
00E000
1FFC00
3FFF00
3FFF80
300F80
0003C0
0003C0
0001C0
0001C0
0001E0
07FFE0
1FFFE0
3FFFE0
7E01E0
7801E0
7001E0
F001E0
F001E0
F003E0
F003E0
7807E0
7C0FE0
3FFDE0
3FF9E0
1FF1E0
038000
ENDCHAR
STARTCHAR 00E1
ENCODING 225
SWIDTH 540 0
DWIDTH 24 0
BBX 19 36 2 -1
BITMAP
000F00
001E00
003C00
003800
007000
00F000
00E000
01C000
000000
000000
00E000
1FFC00
3FFF00
3FFF80
300F80
0003C0
0003C0
0001C0
0001C0
0001E0
07FFE0
1FFFE0
3FFFE0
7E01E0
7801E0
7001E0
F001E0
F001E0
F003E0
F003E0
7807E0
7C0FE0
3FFDE0
3FF9E0
1FF1E0
038000
ENDCHAR
STARTCHAR 00E2
ENCODING 226
SWIDTH 540 0
DWIDTH 24 0
BBX 19 36 2 -1
BITMAP
00E000
01F000
03F800
03B800
071C00
071C00
0E0E00
0C0600
000000
000000
00E000
1FFC00
3FFF00
3FFF80
300F80
0003C0
0003C0
0001C0
0001C0
0001E0
07FFE0
1FFFE0
3FFFE0
7E01E0
7801E0
7001E0
F001E0
F001E0
F003E0
F003E0
7807E0
7C0FE0
3FFDE0
3FF9E0
1FF1E0
038000
ENDCHAR
STARTCHAR 00E3
ENCODING 227
SWIDTH 540 0
DWIDTH 24 0
BBX 19 35 2 -1
BITMAP
078700
0FC700
0FE700
1CFE00
1C7E00
1C1C00
000000
000000
000000
00E000
1FFC00
3FFF00
3FFF80
300F80
0003C0
0003C0
0001C0
0001C0
0001E0
07FFE0
1FFFE0
3FFFE0
7E01E0
7801E0
7001E0
F001E0
F001E0
F003E0
F003E0
7807E0
7C0FE0
3FFDE0
3FF9E0
1FF1E0
038000
ENDCHAR
STARTCHAR 00E4
ENCODING 228
SWIDTH 540 0
DWIDTH 24 0
BBX 19 34 2 -1
BITMAP
0F1E00
0F1E00
0F1E00
0F1E00
000000
000000
000000
000000
00E000
1FFC00
3FFF00
3FFF80
300F80
0003C0
0003C0
0001C0
0001C0
0001E0
07FFE0
1FFFE0
3FFFE0
7E01E0
7801E0
7001E0
F001E0
F001E0
F003E0
F003E0
7807E0
7C0FE0
3FFDE0
3FF9E0
1FF1E0
038000
ENDCHAR
STARTCHAR 00E5
ENCODING 229
SWIDTH 540 0
DWIDTH 24 0
BBX 19 40 2 -1
BITMAP
004000
03F800
07FC00
071C00
0E0E00
0E0E00
0E0E00
0E0E00
060C00
07BC00
03F800
01F000
000000
000000
00E000
1FFC00
3FFF00
3FFF80
300F80
0003C0
0003C0
0001C0
0001C0
0001E0
07FFE0
1FFFE0
3FFFE0
7E01E0
7801E0
7001E0
F001E0
F001E0
F003E0
F003E0
7807E0
7C0FE0
3FFDE0
3FF9E0
1FF1E0
038000
ENDCHAR
STARTCHAR 00E6
ENCODING 230
SWIDTH 877 0
DWIDTH 39 0
BBX 35 26 2 -1
BITMAP
00E000E000
1FFC0FFC00
3FFF1FFE00
3FFFBFFF00
300FFC0F80
0003F80780
0003F003C0
0001E001C0
0001E001C0
0001E001E0
07FFE001E0
1FFFFFFFE0
3FFFFFFFE0
7E01FFFFE0
7801C00000
7001E00000
F001E00000
F001E00000
F003F00000
F003F00000
7807F80040
7C0F7C01C0
3FFE3FFFC0
3FFC1FFFC0
0FF807FF00
0380006000
ENDCHAR
STARTCHAR 00E7
ENCODING 231
SWIDTH 495 0
DWIDTH 22 0
BBX 17 33 2 -8
BITMAP
003000
03FF80
0FFF80
1FFF80
3F0180
3C0000
7C0000
780000
780000
F00000
F00000
F00000
F00000
F00000
F00000
F00000
F00000
780000
780000
7C0000
3C0000
3F0180
1FFF80
0FFF80
03FF00
007800
001800
001C00
000C00
000C00
021C00
03FC00
03F800
ENDCHAR
STARTCHAR 00E8
ENCODING 232
SWIDTH 540 0
DWIDTH 24 0
BBX 20 36 2 -1
BITMAP
0F0000
078000
03C000
01C000
00E000
00F000
007000
003800
000000
000000
007000
03FE00
0FFF80
1FFFC0
1E03C0
3C01E0
7800E0
7800F0
7000F0
F00070
F00070
FFFFF0
FFFFF0
FFFFF0
F00000
F00000
F00000
780000
780000
7C0000
3C0000
1F00E0
1FFFE0
0FFFE0
03FFC0
003800
ENDCHAR
STARTCHAR 00E9
ENCODING 233
SWIDTH 540 0
DWIDTH 24 0
BBX 20 36 2 -1
BITMAP
000780
000F00
001E00
001C00
003800
007800
007000
00E000
000000
000000
007000
03FE00
0FFF80
1FFFC0
1E03C0
3C01E0
7800E0
7800F0
7000F0
F00070
F00070
FFFFF0
FFFFF0
FFFFF0
F00000
F00000
F00000
780000
780000
7C0000
3C0000
1F00E0
1FFFE0
0FFFE0
03FFC0
003800
ENDCHAR
STARTCHAR 00EA
ENCODING 234
SWIDTH 540 0
DWIDTH 24 0
BBX 20 36 2 -1
BITMAP
007000
00F800
00FC00
01DC00
038E00
038E00
070700
060380
000000
000000
007000
03FE00
0FFF80
1FFFC0
1E03C0
3C01E0
7800E0
7800F0
7000F0
F00070
F00070
FFFFF0
FFFFF0
FFFFF0
F00000
F00000
F00000
780000
780000
7C0000
3C0000
1F00E0
1FFFE0
0FFFE0
03FFC0
003800
ENDCHAR
STARTCHAR 00EB
ENCODING 235
SWIDTH 540 0
DWIDTH 24 0
BBX 20 34 2 -1
BITMAP
078F00
078F00
078F00
078F00
000000
000000
000000
000000
007000
03FE00
0FFF80
1FFFC0
1E03C0
3C01E0
7800E0
7800F0
7000F0
F00070
F00070
FFFFF0
FFFFF0
FFFFF0
F00000
F00000
F00000
780000
780000
7C0000
3C0000
1F00E0
1FFFE0
0FFFE0
03FFC0
003800
ENDCHAR
STARTCHAR 00EC
ENCODING 236
SWIDTH 247 0
DWIDTH 11 0
BBX 9 35 -1 0
BITMAP
F000
7800
3C00
1C00
0E00
0F00
0700
0380
0000
0000
0000
0700
0700
0700
0700
0700
0700
0700
0700
0700
0700
0700
0700
0700
0700
0700
0700
0700
0700
0700
0700
0700
0700
0700
0700
ENDCHAR
STARTCHAR 00ED
ENCODING 237
SWIDTH 247 0
DWIDTH 11 0
BBX 9 35 3 0
BITMAP
0780
0F00
1E00
1C00
3800
7800
7000
E000
0000
0000
0000
7000
7000
7000
7000
7000
7000
7000
7000
7000
7000
7000
7000
7000
7000
7000
7000
7000
7000
7000
7000
7000
7000
7000
7000
ENDCHAR
STARTCHAR 00EE
ENCODING 238
SWIDTH 247 0
DWIDTH 11 0
BBX 11 35 0 0
BITMAP
0E00
1F00
3F80
3B80
71C0
71C0
E0E0
C060
0000
0000
0000
0E00
0E00
0E00
0E00
0E00
0E00
0E00
0E00
0E00
0E00
0E00
0E00
0E00
0E00
0E00
0E00
0E00
0E00
0E00
0E00
0E00
0E00
0E00
0E00
ENDCHAR
STARTCHAR 00EF
ENCODING 239
SWIDTH 247 0
DWIDTH 11 0
BBX 11 33 0 0
BITMAP
F1E0
F1E0
F1E0
F1E0
0000
0000
0000
0000
0000
0E00
0E00
0E00
0E00
0E00
0E00
0E00
0E00
0E00
0E00
0E00
0E00
0E00
0E00
0E00
0E00
0E00
0E00
0E00
0E00
0E00
0E00
0E00
0E00
ENDCHAR
STARTCHAR 00F0
ENCODING 240
SWIDTH 540 0
DWIDTH 24 0
BBX 20 34 2 -1
BITMAP
078000
03C3C0
03FFC0
01FE00
03F000
1FF800
3E7C00
103E00
001E00
006F00
07FF80
0FFF80
1FFFC0
3E03C0
3C01E0
7801E0
7800E0
7000F0
F000F0
F000F0
F000F0
F000F0
F000F0
F000F0
F000F0
7000F0
7801E0
7801E0
3C03E0
3E07C0
1FFF80
0FFF00
03FE00
006000
ENDCHAR
STARTCHAR 00F1
ENCODING 241
SWIDTH 562 0
DWIDTH 25 0
BBX 18 34 4 0
BITMAP
0F0600
1F8600
1FCE00
18FE00
187C00
383800
000000
000000
000000
007000
E3FC00
E7FE00
EFFF00
FC0F80
F80780
F00780
F003C0
F003C0
E003C0
E003C0
E003C0
E003C0
E003C0
E003C0
E003C0
E003C0
E003C0
E003C0
E003C0
E003C0
E003C0
E003C0
E003C0
E003C0
ENDCHAR
STARTCHAR 00F2
ENCODING 242
SWIDTH 540 0
DWIDTH 24 0
BBX 20 36 2 -1
BITMAP
0F0000
070000
038000
03C000
01E000
00E000
007000
003800
000000
000000
007000
07FE00
0FFF00
1FFF80
3E07C0
3C03E0
7801E0
7801E0
7800F0
F000F0
F000F0
F000F0
F000F0
F000F0
F000F0
F000F0
F000F0
7800F0
7801E0
7801E0
3C03E0
3E07C0
1FFF80
0FFF00
07FE00
006000
ENDCHAR
STARTCHAR 00F3
ENCODING 243
SWIDTH 540 0
DWIDTH 24 0
BBX 20 36 2 -1
BITMAP
000F00
000E00
001E00
003C00
003800
007000
00E000
00E000
000000
000000
007000
07FE00
0FFF00
1FFF80
3E07C0
3C03E0
7801E0
7801E0
7800F0
F000F0
F000F0
F000F0
F000F0
F000F0
F000F0
F000F0
F000F0
7800F0
7801E0
7801E0
3C03E0
3E07C0
1FFF80
0FFF00
07FE00
006000
ENDCHAR
STARTCHAR 00F4
ENCODING 244
SWIDTH 540 0
DWIDTH 24 0
BBX 20 36 2 -1
BITMAP
00F000
00F800
01F800
01DC00
039C00
070E00
070600
0E0700
000000
000000
007000
07FE00
0FFF00
1FFF80
3E07C0
3C03E0
7801E0
7801E0
7800F0
F000F0
F000F0
F000F0
F000F0
F000F0
F000F0
F000F0
F000F0
7800F0
7801E0
7801E0
3C03E0
3E07C0
1FFF80
0FFF00
07FE00
006000
ENDCHAR
STARTCHAR 00F5
ENCODING 245
SWIDTH 540 0
DWIDTH 24 0
BBX 20 35 2 -1
BITMAP
038300
07E300
0FF300
0E7F00
0C3E00
0C1C00
000000
000000
000000
007000
07FE00
0FFF00
1FFF80
3E07C0
3C03E0
7801E0
7801E0
7800F0
F000F0
F000F0
F000F0
F000F0
F000F0
F000F0
F000F0
F000F0
7800F0
7801E0
7801E0
3C03E0
3E07C0
1FFF80
0FFF00
07FE00
006000
ENDCHAR
STARTCHAR 00F6
ENCODING 246
SWIDTH 540 0
DWIDTH 24 0
BBX 20 34 2 -1
BITMAP
0F0F00
0F0F00
0F0F00
0F0F00
000000
000000
000000
000000
007000
07FE00
0FFF00
1FFF80
3E07C0
3C03E0
7801E0
7801E0
7800F0
F000F0
F000F0
F000F0
F000F0
F000F0
F000F0
F000F0
F000F0
7800F0
7801E0
7801E0
3C03E0
3E07C0
1FFF80
0FFF00
07FE00
006000
ENDCHAR
STARTCHAR 00F7
ENCODING 247
SWIDTH 742 0
DWIDTH 33 0
BBX 25 21 4 3
BITMAP
003E0000
003E0000
003E0000
003E0000
003E0000
00000000
00000000
00000000
FFFFFF80
FFFFFF80
FFFFFF80
FFFFFF80
00000000
00000000
00000000
00000000
003E0000
003E0000
003E0000
003E0000
003E0000
ENDCHAR
STARTCHAR 00F8
ENCODING 248
SWIDTH 540 0
DWIDTH 24 0
BBX 21 28 2 -2
BITMAP
000010
007038
07FE70
0FFFE0
1FFFE0
3E07C0
3C03E0
7807E0
7807E0
780EF0
F01CF0
F03CF0
F038F0
F070F0
F0E0F0
F1E0F0
F1C0F0
F380F0
7700F0
7F01E0
7E01E0
3C03E0
3E07C0
7FFF80
7FFF00
E7FE00
C06000
400000
ENDCHAR
STARTCHAR 00F9
ENCODING 249
SWIDTH 562 0
DWIDTH 25 0
BBX 19 36 3 -1
BITMAP
1E0000
0F0000
070000
038000
03C000
01C000
00E000
007000
000000
000000
000000
F001E0
F001E0
F001E0
F001E0
F001E0
F001E0
F001E0
F001E0
F001E0
F001E0
F001E0
F001E0
F001E0
F001E0
F001E0
F001E0
F001E0
7003E0
7803E0
7807E0
7C0FE0
3FFDE0
1FF9E0
0FF1E0
018000
ENDCHAR
STARTCHAR 00FA
ENCODING 250
SWIDTH 562 0
DWIDTH 25 0
BBX 19 36 3 -1
BITMAP
000E00
001E00
003C00
007800
007000
00E000
01E000
01C000
000000
000000
000000
F001E0
F001E0
F001E0
F001E0
F001E0
F001E0
F001E0
F001E0
F001E0
F001E0
F001E0
F001E0
F001E0
F001E0
F001E0
F001E0
F001E0
7003E0
7803E0
7807E0
7C0FE0
3FFDE0
1FF9E0
0FF1E0
018000
ENDCHAR
STARTCHAR 00FB
ENCODING 251
SWIDTH 562 0
DWIDTH 25 0
BBX 19 36 3 -1
BITMAP
01E000
01F000
03F000
03B800
071800
061C00
0E0E00
1C0600
000000
000000
000000
F001E0
F001E0
F001E0
F001E0
F001E0
F001E0
F001E0
F001E0
F001E0
F001E0
F001E0
F001E0
F001E0
F001E0
F001E0
F001E0
F001E0
7003E0
7803E0
7807E0
7C0FE0
3FFDE0
1FF9E0
0FF1E0
018000
ENDCHAR
STARTCHAR 00FC
ENCODING 252
SWIDTH 562 0
DWIDTH 25 0
BBX 19 34 3 -1
BITMAP
0E1E00
0E1E00
0E1E00
0E1E00
000000
000000
000000
000000
000000
F001E0
F001E0
F001E0
F001E0
F001E0
F001E0
F001E0
F001E0
F001E0
F001E0
F001E0
F001E0
F001E0
F001E0
F001E0
F001E0
F001E0
7003E0
7803E0
7807E0
7C0FE0
3FFDE0
1FF9E0
0FF1E0
018000
ENDCHAR
STARTCHAR 00FD
ENCODING 253
SWIDTH 517 0
DWIDTH 23 0
BBX 21 44 1 -9
BITMAP
000780
000F00
000E00
001C00
003C00
003800
007000
00E000
000000
000000
000000
F00078
780078
780070
3800F0
3C00F0
3C01E0
1C01E0
1E01E0
1E03C0
0E03C0
0F0380
0F0780
070780
078700
038F00
03CF00
03CE00
01DE00
01FE00
01FC00
00FC00
00F800
007800
007800
007000
00F000
00F000
01E000
01E000
03C000
3FC000
3F8000
3F0000
ENDCHAR
STARTCHAR 00FE
ENCODING 254
SWIDTH 562 0
DWIDTH 25 0
BBX 19 42 4 -9
BITMAP
E00000
E00000
E00000
E00000
E00000
E00000
E00000
E00000
E06000
E3FC00
E7FE00
EFFF00
FC0F80
F80780
F803C0
F003C0
F001E0
E001E0
E001E0
E001E0
E001E0
E001E0
E001E0
E001E0
E001E0
F001E0
F003C0
F803C0
F80780
FC0F80
EFFF00
E7FE00
E3FC00
E06000
E00000
E00000
E00000
E00000
E00000
E00000
E00000
E00000
ENDCHAR
STARTCHAR 00FF
ENCODING 255
SWIDTH 517 0
DWIDTH 23 0
BBX 21 42 1 -9
BITMAP
078700
078700
078700
078700
000000
000000
000000
000000
000000
F00078
780078
780070
3800F0
3C00F0
3C01E0
1C01E0
1E01E0
1E03C0
0E03C0
0F0380
0F0780
070780
078700
038F00
03CF00
03CE00
01DE00
01FE00
01FC00
00FC00
00F800
007800
007800
007000
00F000
00F000
01E000
01E000
03C000
3FC000
3F8000
3F0000
ENDCHAR
STARTCHAR 0100
ENCODING 256
SWIDTH 607 0
DWIDTH 27 0
BBX 27 40 0 0
BITMAP
00FFE000
00FFE000
00FFE000
00000000
00000000
00000000
00000000
00000000
001F0000
001F0000
003F8000
003F8000
003B8000
007BC000
007BC000
0071C000
00F1E000
00F1E000
00E0E000
01E0F000
01E0F000
01C07000
03C07800
03C07800
03803800
07803C00
07803C00
07001C00
0FFFFE00
0FFFFE00
0FFFFF00
1FFFFF00
1E000F00
1E000780
3C000780
3C000780
7C0003C0
780003C0
780003C0
F80001E0
ENDCHAR
STARTCHAR 0101
ENCODING 257
SWIDTH 540 0
DWIDTH 24 0
BBX 19 34 2 -1
BITMAP
0FFE00
0FFE00
0FFE00
000000
000000
000000
000000
000000
00E000
1FFC00
3FFF00
3FFF80
300F80
0003C0
0003C0
0001C0
0001C0
0001E0
07FFE0
1FFFE0
3FFFE0
7E01E0
7801E0
7001E0
F001E0
F001E0
F003E0
F003E0
7807E0
7C0FE0
3FFDE0
3FF9E0
1FF1E0
038000
ENDCHAR
STARTCHAR 0102
ENCODING 258
SWIDTH 607 0
DWIDTH 27 0
BBX 27 42 0 0
BITMAP
00C03000
00C07000
00E07000
00F9E000
007FE000
003FC000
00060000
00000000
00000000
00000000
001F0000
001F0000
003F8000
003F8000
003B8000
007BC000
007BC000
0071C000
00F1E000
00F1E000
00E0E000
01E0F000
01E0F000
01C07000
03C07800
03C07800
03803800
07803C00
07803C00
07001C00
0FFFFE00
0FFFFE00
0FFFFF00
1FFFFF00
1E000F00
1E000780
3C000780
3C000780
7C0003C0
780003C0
780003C0
F80001E0
ENDCHAR
STARTCHAR 0103
ENCODING 259
SWIDTH 540 0
DWIDTH 24 0
BBX 19 35 2 -1
BITMAP
1C0600
1C0600
0C0E00
0F1E00
07FC00
03F800
004000
000000
000000
00E000
1FFC00
3FFF00
3FFF80
300F80
0003C0
0003C0
0001C0
0001C0
0001E0
07FFE0
1FFFE0
3FFFE0
7E01E0
7801E0
7001E0
F001E0
F001E0
F003E0
F003E0
7807E0
7C0FE0
3FFDE0
3FF9E0
1FF1E0
038000
ENDCHAR
STARTCHAR 0104
ENCODING 260
SWIDTH 607 0
DWIDTH 27 0
BBX 28 40 0 -8
BITMAP
001F0000
001F0000
003F8000
003F8000
003B8000
007BC000
007BC000
0071C000
00F1E000
00F1E000
00E0E000
01E0F000
01E0F000
01C07000
03C07800
03C07800
03803800
07803C00
07803C00
07001C00
0FFFFE00
0FFFFE00
0FFFFF00
1FFFFF00
1E000F00
1E000780
3C000780
3C000780
7C0003C0
780003C0
780003C0
F80001E0
00000380
00000300
00000700
00000600
00000600
00000710
000007F0
000003F0
ENDCHAR
STARTCHAR 0105
ENCODING 261
SWIDTH 540 0
DWIDTH 24 0
BBX 20 33 2 -8
BITMAP
00E000
1FFC00
3FFF00
3FFF80
300F80
0003C0
0003C0
0001C0
0001C0
0001E0
07FFE0
1FFFE0
3FFFE0
7E01E0
7801E0
7001E0
F001E0
F001E0
F003E0
F003E0
7807E0
7C0FE0
3FFDE0
3FF9E0
1FF1E0
038180
000380
000300
000700
000700
000780
0007F0
0003F0
ENDCHAR
STARTCHAR 0106
ENCODING 262
SWIDTH 630 0
DWIDTH 28 0
BBX 24 42 2 -1
BITMAP
0001C0
000380
000780
000700
000E00
001C00
000000
000000
000700
00FFF0
01FFFC
07FFFF
0FE03F
1F800F
1F0003
3E0001
3C0000
7C0000
780000
780000
780000
F80000
F00000
F00000
F00000
F00000
F00000
F00000
F80000
780000
780000
780000
7C0000
3C0000
3E0001
1F0003
1F800F
0FE03F
07FFFF
01FFFC
00FFF0
000700
ENDCHAR
STARTCHAR 0107
ENCODING 263
SWIDTH 495 0
DWIDTH 22 0
BBX 17 36 2 -1
BITMAP
000780
000F00
001E00
001C00
003800
007800
007000
00E000
000000
000000
003000
03FF80
0FFF80
1FFF80
3F0180
3C0000
7C0000
780000
780000
F00000
F00000
F00000
F00000
F00000
F00000
F00000
F00000
780000
780000
7C0000
3C0000
3F0180
1FFF80
0FFF80
03FF00
007000
ENDCHAR
STARTCHAR 0108
ENCODING 264
SWIDTH 630 0
DWIDTH 28 0
BBX 24 42 2 -1
BITMAP
000F00
000F80
001DC0
0038E0
0070E0
006070
000000
000000
000700
00FFF0
01FFFC
07FFFF
0FE03F
1F800F
1F0003
3E0001
3C0000
7C0000
780000
780000
780000
F80000
F00000
F00000
F00000
F00000
F00000
F00000
F80000
780000
780000
780000
7C0000
3C0000
3E0001
1F0003
1F800F
0FE03F
07FFFF
01FFFC
00FFF0
000700
ENDCHAR
STARTCHAR 0109
ENCODING 265
SWIDTH 495 0
DWIDTH 22 0
BBX 17 36 2 -1
BITMAP
007800
007C00
00FC00
01EE00
01CE00
038700
038300
070380
000000
000000
003000
03FF80
0FFF80
1FFF80
3F0180
3C0000
7C0000
780000
780000
F00000
F00000
F00000
F00000
F00000
F00000
F00000
F00000
780000
780000
7C0000
3C0000
3F0180
1FFF80
0FFF80
03FF00
007000
ENDCHAR
STARTCHAR 010A
ENCODING 266
SWIDTH 630 0
DWIDTH 28 0
BBX 24 41 2 -1
BITMAP
000F00
000F00
000F00
000F00
000000
000000
000000
000700
00FFF0
01FFFC
07FFFF
0FE03F
1F800F
1F0003
3E0001
3C0000
7C0000
780000
780000
780000
F80000
F00000
F00000
F00000
F00000
F00000
F00000
F80000
780000
780000
780000
7C0000
3C0000
3E0001
1F0003
1F800F
0FE03F
07FFFF
01FFFC
00FFF0
000700
ENDCHAR
STARTCHAR 010B
ENCODING 267
SWIDTH 495 0
DWIDTH 22 0
BBX 17 34 2 -1
BITMAP
007800
007800
007800
007800
007800
000000
000000
000000
003000
03FF80
0FFF80
1FFF80
3F0180
3C0000
7C0000
780000
780000
F00000
F00000
F00000
F00000
F00000
F00000
F00000
F00000
780000
780000
7C0000
3C0000
3F0180
1FFF80
0FFF80
03FF00
007000
ENDCHAR
STARTCHAR 010C
ENCODING 268
SWIDTH 630 0
DWIDTH 28 0
BBX 24 42 2 -1
BITMAP
00E060
0070E0
0071C0
003B80
001F80
000F00
000000
000000
000700
00FFF0
01FFFC
07FFFF
0FE03F
1F800F
1F0003
3E0001
3C0000
7C0000
780000
780000
780000
F80000
F00000
F00000
F00000
F00000
F00000
F00000
F80000
780000
780000
780000
7C0000
3C0000
3E0001
1F0003
1F800F
0FE03F
07FFFF
01FFFC
00FFF0
000700
ENDCHAR
STARTCHAR 010D
ENCODING 269
SWIDTH 495 0
DWIDTH 22 0
BBX 17 36 2 -1
BITMAP
070300
070700
038E00
01CE00
01DC00
00F800
00F800
007000
000000
000000
003000
03FF80
0FFF80
1FFF80
3F0180
3C0000
7C0000
780000
780000
F00000
F00000
F00000
F00000
F00000
F00000
F00000
F00000
780000
780000
7C0000
3C0000
3F0180
1FFF80
0FFF80
03FF00
007000
ENDCHAR
STARTCHAR 010E
ENCODING 270
SWIDTH 675 0
DWIDTH 30 0
BBX 24 41 4 0
BITMAP
070700
030600
038E00
01DC00
00F800
00F800
000000
000000
000000
FFFC00
FFFF80
FFFFE0
F07FF0
F003F8
F000FC
F0007C
F0003E
F0001E
F0001E
F0001F
F0000F
F0000F
F0000F
F0000F
F0000F
F0000F
F0000F
F0000F
F0000F
F0000F
F0001F
F0001E
F0001E
F0003E
F0007C
F000FC
F003F8
FFFFF0
FFFFC0
FFFF80
FFF800
ENDCHAR
STARTCHAR 010F
ENCODING 271
SWIDTH 562 0
DWIDTH 25 0
BBX 27 34 2 -1
BITMAP
0000F1E0
0000F1C0
0000F1C0
0000F3C0
0000F3C0
0000F380
0000F380
0000F380
00C0F000
07F8F000
0FFCF000
1FFEF000
3E07F000
3C03F000
7801F000
7801F000
7001F000
F000F000
F000F000
F000F000
F000F000
F000F000
F000F000
F000F000
F000F000
7001F000
7801F000
7801F000
3C03F000
3E07F000
1FFEF000
0FFCF000
07F8F000
00C00000
ENDCHAR
STARTCHAR 0110
ENCODING 272
SWIDTH 697 0
DWIDTH 31 0
BBX 28 32 0 0
BITMAP
0FFFC000
0FFFF800
0FFFFE00
0F07FF00
0F001F80
0F000FC0
0F0007C0
0F0003E0
0F0001E0
0F0001F0
0F0000F0
0F0000F0
0F0000F0
0F0000F0
FFFE00F0
FFFE00F0
FFFE00F0
0F0000F0
0F0000F0
0F0000F0
0F0000F0
0F0000F0
0F0001F0
0F0001E0
0F0003E0
0F0007C0
0F000FC0
0F003F80
0FFFFF00
0FFFFE00
0FFFF800
0FFF8000
ENDCHAR
STARTCHAR 0111
ENCODING 273
SWIDTH 562 0
DWIDTH 25 0
BBX 23 34 2 -1
BITMAP
0000F0
0000F0
0000F0
003FFE
003FFE
0000F0
0000F0
0000F0
00C0F0
07F8F0
0FFCF0
1FFEF0
3E07F0
3C03F0
7801F0
7801F0
7001F0
F000F0
F000F0
F000F0
F000F0
F000F0
F000F0
F000F0
F000F0
7001F0
7801F0
7801F0
3C03F0
3E07F0
1FFEF0
0FFCF0
07F8F0
00C000
ENDCHAR
STARTCHAR 0112
ENCODING 274
SWIDTH 562 0
DWIDTH 25 0
BBX 19 40 4 0
BITMAP
1FFE00
1FFE00
1FFE00
000000
000000
000000
000000
000000
FFFFC0
FFFFC0
FFFFC0
FFFFC0
F00000
F00000
F00000
F00000
F00000
F00000
F00000
F00000
F00000
FFFFC0
FFFFC0
FFFFC0
FFFFC0
F00000
F00000
F00000
F00000
F00000
F00000
F00000
F00000
F00000
F00000
F00000
FFFFE0
FFFFE0
FFFFE0
FFFFE0
ENDCHAR
STARTCHAR 0113
ENCODING 275
SWIDTH 540 0
DWIDTH 24 0
BBX 20 34 2 -1
BITMAP
07FF80
07FF80
07FF80
000000
000000
000000
000000
000000
007000
03FE00
0FFF80
1FFFC0
1E03C0
3C01E0
7800E0
7800F0
7000F0
F00070
F00070
FFFFF0
FFFFF0
FFFFF0
F00000
F00000
F00000
780000
780000
7C0000
3C0000
1F00E0
1FFFE0
0FFFE0
03FFC0
003800
ENDCHAR
STARTCHAR 0114
ENCODING 276
SWIDTH 562 0
DWIDTH 25 0
BBX 19 41 4 0
BITMAP
180600
1C0E00
0F3C00
0FFC00
07F800
000000
000000
000000
000000
FFFFC0
FFFFC0
FFFFC0
FFFFC0
F00000
F00000
F00000
F00000
F00000
F00000
F00000
F00000
F00000
FFFFC0
FFFFC0
FFFFC0
FFFFC0
F00000
F00000
F00000
F00000
F00000
F00000
F00000
F00000
F00000
F00000
F00000
FFFFE0
FFFFE0
FFFFE0
FFFFE0
ENDCHAR
STARTCHAR 0115
ENCODING 277
SWIDTH 540 0
DWIDTH 24 0
BBX 20 36 2 -1
BITMAP
060180
060380
070380
07CF00
03FF00
01FE00
003000
000000
000000
000000
007000
03FE00
0FFF80
1FFFC0
1E03C0
3C01E0
7800E0
7800F0
7000F0
F00070
F00070
FFFFF0
FFFFF0
FFFFF0
F00000
F00000
F00000
780000
780000
7C0000
3C0000
1F00E0
1FFFE0
0FFFE0
03FFC0
003800
ENDCHAR
STARTCHAR 0116
ENCODING 278
SWIDTH 562 0
DWIDTH 25 0
BBX 19 40 4 0
BITMAP
01E000
01E000
01E000
01E000
000000
000000
000000
000000
FFFFC0
FFFFC0
FFFFC0
FFFFC0
F00000
F00000
F00000
F00000
F00000
F00000
F00000
F00000
F00000
FFFFC0
FFFFC0
FFFFC0
FFFFC0
F00000
F00000
F00000
F00000
F00000
F00000
F00000
F00000
F00000
F00000
F00000
FFFFE0
FFFFE0
FFFFE0
FFFFE0
ENDCHAR
STARTCHAR 0117
ENCODING 279
SWIDTH 540 0
DWIDTH 24 0
BBX 20 34 2 -1
BITMAP
007800
007800
007800
007800
007800
000000
000000
000000
007000
03FE00
0FFF80
1FFFC0
1E03C0
3C01E0
7800E0
7800F0
7000F0
F00070
F00070
FFFFF0
FFFFF0
FFFFF0
F00000
F00000
F00000
780000
780000
7C0000
3C0000
1F00E0
1FFFE0
0FFFE0
03FFC0
003800
ENDCHAR
STARTCHAR 0118
ENCODING 280
SWIDTH 562 0
DWIDTH 25 0
BBX 19 40 4 -8
BITMAP
FFFFC0
FFFFC0
FFFFC0
FFFFC0
F00000
F00000
F00000
F00000
F00000
F00000
F00000
F00000
F00000
FFFFC0
FFFFC0
FFFFC0
FFFFC0
F00000
F00000
F00000
F00000
F00000
F00000
F00000
F00000
F00000
F00000
F00000
FFFFE0
FFFFE0
FFFFE0
FFFFE0
000600
000E00
000C00
001C00
001C00
001E20
000FE0
000FE0
ENDCHAR
STARTCHAR 0119
ENCODING 281
SWIDTH 540 0
DWIDTH 24 0
BBX 20 33 2 -8
BITMAP
007000
03FE00
0FFF80
1FFFC0
1E03C0
3C01E0
7800E0
7800F0
7000F0
F00070
F00070
FFFFF0
FFFFF0
FFFFF0
F00000
F00000
F00000
780000
780000
7C0000
3C0000
1F00E0
1FFFE0
0FFFE0
03FFC0
003F00
000600
000E00
000C00
000C00
000E20
000FE0
0007E0
ENDCHAR
STARTCHAR 011A
ENCODING 282
SWIDTH 562 0
DWIDTH 25 0
BBX 19 41 4 0
BITMAP
1C0E00
0E1C00
073800
03B800
03F000
01E000
000000
000000
000000
FFFFC0
FFFFC0
FFFFC0
FFFFC0
F00000
F00000
F00000
F00000
F00000
F00000
F00000
F00000
F00000
FFFFC0
FFFFC0
FFFFC0
FFFFC0
F00000
F00000
F00000
F00000
F00000
F00000
F00000
F00000
F00000
F00000
F00000
FFFFE0
FFFFE0
FFFFE0
FFFFE0
ENDCHAR
STARTCHAR 011B
ENCODING 283
SWIDTH 540 0
DWIDTH 24 0
BBX 20 36 2 -1
BITMAP
070380
030700
038E00
01CE00
01DC00
00FC00
007800
007000
000000
000000
007000
03FE00
0FFF80
1FFFC0
1E03C0
3C01E0
7800E0
7800F0
7000F0
F00070
F00070
FFFFF0
FFFFF0
FFFFF0
F00000
F00000
F00000
780000
780000
7C0000
3C0000
1F00E0
1FFFE0
0FFFE0
03FFC0
003800
ENDCHAR
STARTCHAR 011C
ENCODING 284
SWIDTH 697 0
DWIDTH 31 0
BBX 25 42 2 -1
BITMAP
00078000
000F8000
001DC000
0038E000
00387000
00703000
00000000
00000000
00078000
00FFF800
01FFFE00
07FFFF80
0FE01F80
1F800780
1F000180
3E000080
3C000000
7C000000
78000000
78000000
78000000
F8000000
F0000000
F0000000
F001FF80
F001FF80
F001FF80
F001FF80
F8000380
78000380
78000380
78000380
7C000380
3C000380
3E000380
1F000380
1F800780
0FE01F80
07FFFF80
01FFFE00
007FF800
00070000
ENDCHAR
STARTCHAR 011D
ENCODING 285
SWIDTH 562 0
DWIDTH 25 0
BBX 20 44 2 -9
BITMAP
00F000
01F000
01F800
03BC00
039C00
070E00
060E00
0E0700
000000
000000
00C000
07F8F0
0FFEF0
1FFEF0
3E07F0
3C03F0
7801F0
7801F0
7001F0
F000F0
F000F0
F000F0
F000F0
F000F0
F000F0
F000F0
7000F0
7801F0
7801F0
7C03F0
3E07F0
1F1FF0
1FFEF0
0FFCF0
03F0E0
0000E0
0001E0
0001E0
0001E0
1003C0
1C0FC0
1FFF80
1FFF00
07FC00
ENDCHAR
STARTCHAR 011E
ENCODING 286
SWIDTH 697 0
DWIDTH 31 0
BBX 25 42 2 -1
BITMAP
01C06000
00C0E000
00FBE000
00FFC000
003F8000
00000000
00000000
00000000
00078000
00FFF800
01FFFE00
07FFFF80
0FE01F80
1F800780
1F000180
3E000080
3C000000
7C000000
78000000
78000000
78000000
F8000000
F0000000
F0000000
F001FF80
F001FF80
F001FF80
F001FF80
F8000380
78000380
78000380
78000380
7C000380
3C000380
3E000380
1F000380
1F800780
0FE01F80
07FFFF80
01FFFE00
007FF800
00070000
ENDCHAR
STARTCHAR 011F
ENCODING 287
SWIDTH 562 0
DWIDTH 25 0
BBX 20 44 2 -9
BITMAP
060380
060380
070300
078F00
03FE00
01FC00
002000
000000
000000
000000
00C000
07F8F0
0FFEF0
1FFEF0
3E07F0
3C03F0
7801F0
7801F0
7001F0
F000F0
F000F0
F000F0
F000F0
F000F0
F000F0
F000F0
7000F0
7801F0
7801F0
7C03F0
3E07F0
1F1FF0
1FFEF0
0FFCF0
03F0E0
0000E0
0001E0
0001E0
0001E0
1003C0
1C0FC0
1FFF80
1FFF00
07FC00
ENDCHAR
STARTCHAR 0120
ENCODING 288
SWIDTH 697 0
DWIDTH 31 0
BBX 25 41 2 -1
BITMAP
00078000
00078000
00078000
00078000
00000000
00000000
00000000
00078000
00FFF800
01FFFE00
07FFFF80
0FE01F80
1F800780
1F000180
3E000080
3C000000
7C000000
78000000
78000000
78000000
F8000000
F0000000
F0000000
F001FF80
F001FF80
F001FF80
F001FF80
F8000380
78000380
78000380
78000380
7C000380
3C000380
3E000380
1F000380
1F800780
0FE01F80
07FFFF80
01FFFE00
007FF800
00070000
ENDCHAR
STARTCHAR 0121
ENCODING 289
SWIDTH 562 0
DWIDTH 25 0
BBX 20 42 2 -9
BITMAP
00F000
00F000
00F000
00F000
00F000
000000
000000
000000
00C000
07F8F0
0FFEF0
1FFEF0
3E07F0
3C03F0
7801F0
7801F0
7001F0
F000F0
F000F0
F000F0
F000F0
F000F0
F000F0
F000F0
7000F0
7801F0
7801F0
7C03F0
3E07F0
1F1FF0
1FFEF0
0FFCF0
03F0E0
0000E0
0001E0
0001E0
0001E0
1003C0
1C0FC0
1FFF80
1FFF00
07FC00
ENDCHAR
STARTCHAR 0122
ENCODING 290
SWIDTH 697 0
DWIDTH 31 0
BBX 25 44 2 -11
BITMAP
00078000
00FFF800
01FFFE00
07FFFF80
0FE01F80
1F800780
1F000180
3E000080
3C000000
7C000000
78000000
78000000
78000000
F8000000
F0000000
F0000000
F001FF80
F001FF80
F001FF80
F001FF80
F8000380
78000380
78000380
78000380
7C000380
3C000380
3E000380
1F000380
1F800780
0FE01F80
07FFFF80
01FFFE00
007FF800
00070000
00000000
00000000
00000000
00078000
00078000
00070000
000F0000
000E0000
000E0000
000C0000
ENDCHAR
STARTCHAR 0123
ENCODING 291
SWIDTH 562 0
DWIDTH 25 0
BBX 20 43 2 -9
BITMAP
001800
003800
003800
007800
007000
00F000
00F000
000000
000000
00C000
07F8F0
0FFEF0
1FFEF0
3E07F0
3C03F0
7801F0
7801F0
7001F0
F000F0
F000F0
F000F0
F000F0
F000F0
F000F0
F000F0
7000F0
7801F0
7801F0
7C03F0
3E07F0
1F1FF0
1FFEF0
0FFCF0
03F0E0
0000E0
0001E0
0001E0
0001E0
1003C0
1C0FC0
1FFF80
1FFF00
07FC00
ENDCHAR
STARTCHAR 0124
ENCODING 292
SWIDTH 675 0
DWIDTH 30 0
BBX 22 41 4 0
BITMAP
007800
00FC00
01FC00
01CE00
038700
070380
000000
000000
000000
F0003C
F0003C
F0003C
F0003C
F0003C
F0003C
F0003C
F0003C
F0003C
F0003C
F0003C
F0003C
F0003C
FFFFFC
FFFFFC
FFFFFC
FFFFFC
F0003C
F0003C
F0003C
F0003C
F0003C
F0003C
F0003C
F0003C
F0003C
F0003C
F0003C
F0003C
F0003C
F0003C
F0003C
ENDCHAR
STARTCHAR 0125
ENCODING 293
SWIDTH 562 0
DWIDTH 25 0
BBX 22 41 0 0
BITMAP
1E0000
1F0000
3B8000
71C000
E1C000
E0E000
000000
000000
0E0000
0E0000
0E0000
0E0000
0E0000
0E0000
0E0000
0E0000
0E0700
0E3FC0
0E7FE0
0EFFF0
0FC0F8
0F8078
0F0078
0F003C
0F003C
0E003C
0E003C
0E003C
0E003C
0E003C
0E003C
0E003C
0E003C
0E003C
0E003C
0E003C
0E003C
0E003C
0E003C
0E003C
0E003C
ENDCHAR
STARTCHAR 0126
ENCODING 294
SWIDTH 810 0
DWIDTH 36 0
BBX 28 32 4 0
BITMAP
1E000780
1E000780
1E000780
1E000780
1E000780
FFFFFFF0
FFFFFFF0
FFFFFFF0
1E000780
1E000780
1E000780
1E000780
1E000780
1FFFFF80
1FFFFF80
1FFFFF80
1FFFFF80
1E000780
1E000780
1E000780
1E000780
1E000780
1E000780
1E000780
1E000780
1E000780
1E000780
1E000780
1E000780
1E000780
1E000780
1E000780
ENDCHAR
STARTCHAR 0127
ENCODING 295
SWIDTH 630 0
DWIDTH 28 0
BBX 21 33 2 0
BITMAP
1C0000
1C0000
FFF800
FFF800
FFF800
FFF800
1C0000
1C0000
1C0E00
1C7F80
1CFFE0
1DFFE0
1FC1F0
1F00F0
1E0070
1E0078
1E0078
1C0078
1C0078
1C0078
1C0078
1C0078
1C0078
1C0078
1C0078
1C0078
1C0078
1C0078
1C0078
1C0078
1C0078
1C0078
1C0078
ENDCHAR
STARTCHAR 0128
ENCODING 296
SWIDTH 270 0
DWIDTH 12 0
BBX 13 41 -1 0
BITMAP
0018
3E18
7FB8
63F0
E1F0
0000
0000
0000
0000
0780
0780
0780
0780
0780
0780
0780
0780
0780
0780
0780
0780
0780
0780
0780
0780
0780
0780
0780
0780
0780
0780
0780
0780
0780
0780
0780
0780
0780
0780
0780
0780
ENDCHAR
STARTCHAR 0129
ENCODING 297
SWIDTH 247 0
DWIDTH 11 0
BBX 13 34 -1 0
BITMAP
3C38
7E38
7F38
E7F0
E3F0
E0E0
0000
0000
0000
0000
0700
0700
0700
0700
0700
0700
0700
0700
0700
0700
0700
0700
0700
0700
0700
0700
0700
0700
0700
0700
0700
0700
0700
0700
ENDCHAR
STARTCHAR 012A
ENCODING 298
SWIDTH 270 0
DWIDTH 12 0
BBX 12 40 0 0
BITMAP
FFF0
FFF0
FFF0
0000
0000
0000
0000
0000
0F00
0F00
0F00
0F00
0F00
0F00
0F00
0F00
0F00
0F00
0F00
0F00
0F00
0F00
0F00
0F00
0F00
0F00
0F00
0F00
0F00
0F00
0F00
0F00
0F00
0F00
0F00
0F00
0F00
0F00
0F00
0F00
ENDCHAR
STARTCHAR 012B
ENCODING 299
SWIDTH 247 0
DWIDTH 11 0
BBX 11 33 0 0
BITMAP
FFE0
FFE0
FFE0
0000
0000
0000
0000
0000
0000
0E00
0E00
0E00
0E00
0E00
0E00
0E00
0E00
0E00
0E00
0E00
0E00
0E00
0E00
0E00
0E00
0E00
0E00
0E00
0E00
0E00
0E00
0E00
0E00
ENDCHAR
STARTCHAR 012C
ENCODING 300
SWIDTH 270 0
DWIDTH 12 0
BBX 12 41 0 0
BITMAP
C070
E070
FBE0
7FE0
3FC0
0000
0000
0000
0000
0F00
0F00
0F00
0F00
0F00
0F00
0F00
0F00
0F00
0F00
0F00
0F00
0F00
0F00
0F00
0F00
0F00
0F00
0F00
0F00
0F00
0F00
0F00
0F00
0F00
0F00
0F00
0F00
0F00
0F00
0F00
0F00
ENDCHAR
STARTCHAR 012D
ENCODING 301
SWIDTH 247 0
DWIDTH 11 0
BBX 13 35 -1 0
BITMAP
E038
6030
7070
78F0
3FE0
1FC0
0200
0000
0000
0000
0000
0700
0700
0700
0700
0700
0700
0700
0700
0700
0700
0700
0700
0700
0700
0700
0700
0700
0700
0700
0700
0700
0700
0700
0700
ENDCHAR
STARTCHAR 012E
ENCODING 302
SWIDTH 270 0
DWIDTH 12 0
BBX 8 40 3 -8
BITMAP
78
78
78
78
78
78
78
78
78
78
78
78
78
78
78
78
78
78
78
78
78
78
78
78
78
78
78
78
78
78
78
78
30
70
60
60
E0
F1
7F
7F
ENDCHAR
STARTCHAR 012F
ENCODING 303
SWIDTH 247 0
DWIDTH 11 0
BBX 7 41 3 -8
BITMAP
70
70
70
70
70
00
00
00
00
70
70
70
70
70
70
70
70
70
70
70
70
70
70
70
70
70
70
70
70
70
70
70
70
30
60
E0
E0
E0
F2
FE
7E
ENDCHAR
STARTCHAR 0130
ENCODING 304
SWIDTH 270 0
DWIDTH 12 0
BBX 4 40 4 0
BITMAP
F0
F0
F0
F0
00
00
00
00
F0
F0
F0
F0
F0
F0
F0
F0
F0
F0
F0
F0
F0
F0
F0
F0
F0
F0
F0
F0
F0
F0
F0
F0
F0
F0
F0
F0
F0
F0
F0
F0
ENDCHAR
STARTCHAR 0131
ENCODING 305
SWIDTH 247 0
DWIDTH 11 0
BBX 3 24 4 1
BITMAP
E0
E0
E0
E0
E0
E0
E0
E0
E0
E0
E0
E0
E0
E0
E0
E0
E0
E0
E0
E0
E0
E0
E0
E0
ENDCHAR
STARTCHAR 0132
ENCODING 306
SWIDTH 517 0
DWIDTH 23 0
BBX 15 41 4 -9
BITMAP
F00E
F00E
F00E
F00E
F00E
F00E
F00E
F00E
F00E
F00E
F00E
F00E
F00E
F00E
F00E
F00E
F00E
F00E
F00E
F00E
F00E
F00E
F00E
F00E
F00E
F00E
F00E
F00E
F00E
F00E
F00E
F01E
001E
001E
001E
001E
003C
03FC
03F8
03F0
03C0
ENDCHAR
STARTCHAR 0133
ENCODING 307
SWIDTH 495 0
DWIDTH 22 0
BBX 14 42 4 -9
BITMAP
E01C
E01C
E01C
E01C
E01C
0000
0000
0000
0000
E01C
E01C
E01C
E01C
E01C
E01C
E01C
E01C
E01C
E01C
E01C
E01C
E01C
E01C
E01C
E01C
E01C
E01C
E01C
E01C
E01C
E01C
E01C
E01C
001C
001C
001C
003C
003C
007C
03F8
03F0
03E0
ENDCHAR
STARTCHAR 0134
ENCODING 308
SWIDTH 270 0
DWIDTH 12 0
BBX 13 50 -2 -9
BITMAP
03C0
07E0
0FE0
0E70
1C38
3818
0000
0000
0000
03C0
03C0
03C0
03C0
03C0
03C0
03C0
03C0
03C0
03C0
03C0
03C0
03C0
03C0
03C0
03C0
03C0
03C0
03C0
03C0
03C0
03C0
03C0
03C0
03C0
03C0
03C0
03C0
03C0
03C0
03C0
03C0
03C0
03C0
0780
0780
0F80
FF00
FF00
FC00
F000
ENDCHAR
STARTCHAR 0135
ENCODING 309
SWIDTH 247 0
DWIDTH 11 0
BBX 12 44 -1 -9
BITMAP
0700
0F80
0FC0
1DC0
38E0
38E0
7070
6030
0000
0000
0000
0700
0700
0700
0700
0700
0700
0700
0700
0700
0700
0700
0700
0700
0700
0700
0700
0700
0700
0700
0700
0700
0700
0700
0700
0700
0700
0700
0F00
0F00
1F00
FE00
FC00
F800
ENDCHAR
STARTCHAR 0136
ENCODING 310
SWIDTH 585 0
DWIDTH 26 0
BBX 22 43 4 -11
BITMAP
F000F8
F001F0
F003E0
F007C0
F00F80
F01F00
F03F00
F07E00
F07C00
F0F800
F1F000
F3E000
F7C000
FF8000
FF0000
FF0000
FF8000
F7C000
F3E000
F3F000
F1F000
F0F800
F07C00
F03E00
F01F00
F00F80
F007C0
F003E0
F001F0
F001F8
F000F8
F0007C
000000
000000
000000
000000
003C00
003800
007800
007000
007000
006000
00E000
ENDCHAR
STARTCHAR 0137
ENCODING 311
SWIDTH 517 0
DWIDTH 23 0
BBX 18 44 4 -11
BITMAP
E00000
E00000
E00000
E00000
E00000
E00000
E00000
E00000
E00000
E007C0
E00F80
E01F00
E03E00
E07C00
E0F800
E1F000
E3E000
E7C000
EF8000
FF0000
FE0000
FF0000
EF8000
E7C000
E3E000
E1F000
E0F800
E07C00
E03E00
E01F00
E00F00
E00780
E003C0
000000
000000
000000
000000
00F000
01E000
01E000
01C000
01C000
018000
038000
ENDCHAR
STARTCHAR 0138
ENCODING 312
SWIDTH 517 0
DWIDTH 23 0
BBX 18 24 4 0
BITMAP
E007C0
E00F80
E01F00
E03E00
E07C00
E0F800
E1F000
E3E000
E7C000
EF8000
FF0000
FE0000
FF0000
EF8000
E7C000
E3E000
E1F000
E0F800
E07C00
E03E00
E01F00
E00F00
E00780
E003C0
ENDCHAR
STARTCHAR 0139
ENCODING 313
SWIDTH 495 0
DWIDTH 22 0
BBX 18 41 4 0
BITMAP
0E0000
1E0000
1C0000
380000
700000
700000
000000
000000
000000
F00000
F00000
F00000
F00000
F00000
F00000
F00000
F00000
F00000
F00000
F00000
F00000
F00000
F00000
F00000
F00000
F00000
F00000
F00000
F00000
F00000
F00000
F00000
F00000
F00000
F00000
F00000
F00000
FFFFC0
FFFFC0
FFFFC0
FFFFC0
ENDCHAR
STARTCHAR 013A
ENCODING 314
SWIDTH 247 0
DWIDTH 11 0
BBX 7 41 4 0
BITMAP
0E
1C
3C
38
70
E0
00
00
E0
E0
E0
E0
E0
E0
E0
E0
E0
E0
E0
E0
E0
E0
E0
E0
E0
E0
E0
E0
E0
E0
E0
E0
E0
E0
E0
E0
E0
E0
E0
E0
E0
ENDCHAR
STARTCHAR 013B
ENCODING 315
SWIDTH 495 0
DWIDTH 22 0
BBX 18 43 4 -11
BITMAP
F00000
F00000
F00000
F00000
F00000
F00000
F00000
F00000
F00000
F00000
F00000
F00000
F00000
F00000
F00000
F00000
F00000
F00000
F00000
F00000
F00000
F00000
F00000
F00000
F00000
F00000
F00000
F00000
FFFFC0
FFFFC0
FFFFC0
FFFFC0
000000
000000
000000
000000
01E000
01E000
01C000
01C000
038000
038000
038000
ENDCHAR
STARTCHAR 013C
ENCODING 316
SWIDTH 247 0
DWIDTH 11 0
BBX 5 44 3 -11
BITMAP
70
70
70
70
70
70
70
70
70
70
70
70
70
70
70
70
70
70
70
70
70
70
70
70
70
70
70
70
70
70
70
70
70
00
00
00
00
78
70
70
F0
E0
E0
C0
ENDCHAR
STARTCHAR 013D
ENCODING 317
SWIDTH 495 0
DWIDTH 22 0
BBX 18 32 4 0
BITMAP
F07800
F07000
F0F000
F0F000
F0E000
F0E000
F0E000
F0E000
F00000
F00000
F00000
F00000
F00000
F00000
F00000
F00000
F00000
F00000
F00000
F00000
F00000
F00000
F00000
F00000
F00000
F00000
F00000
F00000
FFFFC0
FFFFC0
FFFFC0
FFFFC0
ENDCHAR
STARTCHAR 013E
ENCODING 318
SWIDTH 337 0
DWIDTH 15 0
BBX 11 33 4 0
BITMAP
E1E0
E1C0
E3C0
E3C0
E380
E380
E380
E380
E000
E000
E000
E000
E000
E000
E000
E000
E000
E000
E000
E000
E000
E000
E000
E000
E000
E000
E000
E000
E000
E000
E000
E000
E000
ENDCHAR
STARTCHAR 013F
ENCODING 319
SWIDTH 495 0
DWIDTH 22 0
BBX 18 32 4 0
BITMAP
F00000
F00000
F00000
F00000
F00000
F00000
F00000
F00000
F00000
F00000
F00000
F01E00
F01E00
F01E00
F01E00
F01E00
F00000
F00000
F00000
F00000
F00000
F00000
F00000
F00000
F00000
F00000
F00000
F00000
FFFFC0
FFFFC0
FFFFC0
FFFFC0
ENDCHAR
STARTCHAR 0140
ENCODING 320
SWIDTH 315 0
DWIDTH 14 0
BBX 8 33 4 0
BITMAP
E0
E0
E0
E0
E0
E0
E0
E0
E0
E0
E0
E0
E0
EF
EF
EF
EF
EF
E0
E0
E0
E0
E0
E0
E0
E0
E0
E0
E0
E0
E0
E0
E0
ENDCHAR
STARTCHAR 0141
ENCODING 321
SWIDTH 495 0
DWIDTH 22 0
BBX 22 32 0 0
BITMAP
0F0000
0F0000
0F0000
0F0000
0F0000
0F0000
0F0000
0F0000
0F0000
0F0600
0F1E00
0F3E00
0F7800
0FF000
0FE000
0FC000
0F0000
3F0000
7F0000
FF0000
EF0000
4F0000
0F0000
0F0000
0F0000
0F0000
0F0000
0F0000
0FFFFC
0FFFFC
0FFFFC
0FFFFC
ENDCHAR
STARTCHAR 0142
ENCODING 322
SWIDTH 247 0
DWIDTH 11 0
BBX 11 33 0 0
BITMAP
0E00
0E00
0E00
0E00
0E00
0E00
0E00
0E00
0E00
0E00
0E00
0E40
0FE0
0FC0
0F80
0F00
3E00
7E00
FE00
6E00
4E00
0E00
0E00
0E00
0E00
0E00
0E00
0E00
0E00
0E00
0E00
0E00
0E00
ENDCHAR
STARTCHAR 0143
ENCODING 323
SWIDTH 675 0
DWIDTH 30 0
BBX 22 41 4 0
BITMAP
001C00
003800
007800
007000
00E000
01C000
000000
000000
000000
F8003C
FC003C
FC003C
FE003C
FE003C
FF003C
FF003C
F7803C
F7803C
F3C03C
F3C03C
F1E03C
F1E03C
F0F03C
F0F03C
F0783C
F0783C
F03C3C
F03C3C
F01E3C
F01E3C
F01E3C
F00F3C
F00F3C
F007BC
F007BC
F003FC
F003FC
F001FC
F001FC
F000FC
F000FC
ENDCHAR
STARTCHAR 0144
ENCODING 324
SWIDTH 562 0
DWIDTH 25 0
BBX 18 35 4 0
BITMAP
007800
007000
00F000
01E000
01C000
038000
078000
070000
000000
000000
007000
E3FC00
E7FE00
EFFF00
FC0F80
F80780
F00780
F003C0
F003C0
E003C0
E003C0
E003C0
E003C0
E003C0
E003C0
E003C0
E003C0
E003C0
E003C0
E003C0
E003C0
E003C0
E003C0
E003C0
E003C0
ENDCHAR
STARTCHAR 0145
ENCODING 325
SWIDTH 675 0
DWIDTH 30 0
BBX 22 43 4 -11
BITMAP
F8003C
FC003C
FC003C
FE003C
FE003C
FF003C
FF003C
F7803C
F7803C
F3C03C
F3C03C
F1E03C
F1E03C
F0F03C
F0F03C
F0783C
F0783C
F03C3C
F03C3C
F01E3C
F01E3C
F01E3C
F00F3C
F00F3C
F007BC
F007BC
F003FC
F003FC
F001FC
F001FC
F000FC
F000FC
000000
000000
000000
000000
007800
007800
007000
007000
00E000
00E000
00C000
ENDCHAR
STARTCHAR 0146
ENCODING 326
SWIDTH 562 0
DWIDTH 25 0
BBX 18 36 4 -11
BITMAP
007000
E3FC00
E7FE00
EFFF00
FC0F80
F80780
F00780
F003C0
F003C0
E003C0
E003C0
E003C0
E003C0
E003C0
E003C0
E003C0
E003C0
E003C0
E003C0
E003C0
E003C0
E003C0
E003C0
E003C0
E003C0
000000
000000
000000
000000
01E000
01E000
01C000
03C000
038000
038000
030000
ENDCHAR
STARTCHAR 0147
ENCODING 327
SWIDTH 675 0
DWIDTH 30 0
BBX 22 41 4 0
BITMAP
070300
038700
038E00
01DC00
00F800
007800
000000
000000
000000
F8003C
FC003C
FC003C
FE003C
FE003C
FF003C
FF003C
F7803C
F7803C
F3C03C
F3C03C
F1E03C
F1E03C
F0F03C
F0F03C
F0783C
F0783C
F03C3C
F03C3C
F01E3C
F01E3C
F01E3C
F00F3C
F00F3C
F007BC
F007BC
F003FC
F003FC
F001FC
F001FC
F000FC
F000FC
ENDCHAR
STARTCHAR 0148
ENCODING 328
SWIDTH 562 0
DWIDTH 25 0
BBX 18 35 4 0
BITMAP
1C0C00
1C1C00
0E3800
073800
077000
03E000
03E000
01C000
000000
000000
007000
E3FC00
E7FE00
EFFF00
FC0F80
F80780
F00780
F003C0
F003C0
E003C0
E003C0
E003C0
E003C0
E003C0
E003C0
E003C0
E003C0
E003C0
E003C0
E003C0
E003C0
E003C0
E003C0
E003C0
E003C0
ENDCHAR
STARTCHAR 0149
ENCODING 329
SWIDTH 720 0
DWIDTH 32 0
BBX 24 32 4 0
BITMAP
3C0000
3C0000
3C0000
780000
780000
780000
700000
7000C0
E3C7F8
E3DFFC
03DFFE
03F81E
03F00F
03E00F
03C00F
03C007
03C007
03C007
03C007
03C007
03C007
03C007
03C007
03C007
03C007
03C007
03C007
03C007
03C007
03C007
03C007
03C007
ENDCHAR
STARTCHAR 014A
ENCODING 330
SWIDTH 675 0
DWIDTH 30 0
BBX 21 42 4 -9
BITMAP
001C00
F0FF80
F3FFC0
F7FFE0
F7FFE0
FF01F0
FE00F0
FC00F8
F80078
F80078
F00078
F00078
F00078
F00078
F00078
F00078
F00078
F00078
F00078
F00078
F00078
F00078
F00078
F00078
F00078
F00078
F00078
F00078
F00078
F00078
F00078
F00078
F00078
000078
000078
000078
000078
000078
0000F0
0007F0
0007E0
0007C0
ENDCHAR
STARTCHAR 014B
ENCODING 331
SWIDTH 562 0
DWIDTH 25 0
BBX 18 34 4 -9
BITMAP
007000
E3FC00
E7FE00
EFFF00
FC0F80
F80780
F00780
F003C0
F003C0
E003C0
E003C0
E003C0
E003C0
E003C0
E003C0
E003C0
E003C0
E003C0
E003C0
E003C0
E003C0
E003C0
E003C0
E003C0
E003C0
0003C0
0003C0
0003C0
0003C0
000380
000F80
03FF80
03FF00
03FC00
ENDCHAR
STARTCHAR 014C
ENCODING 332
SWIDTH 697 0
DWIDTH 31 0
BBX 27 41 2 -1
BITMAP
00FFE000
00FFE000
00FFE000
00000000
00000000
00000000
00000000
000E0000
00FFE000
03FFF800
07FFFC00
0FC07E00
1F801F00
1F000F00
3E000F80
3C000780
7C0003C0
780003C0
780003C0
780003E0
F80001E0
F00001E0
F00001E0
F00001E0
F00001E0
F00001E0
F00001E0
F80001E0
780003E0
780003C0
780003C0
7C0007C0
3C000780
3E000F80
1F000F00
1F801F00
0FC07E00
07FFFC00
03FFF800
00FFE000
000E0000
ENDCHAR
STARTCHAR 014D
ENCODING 333
SWIDTH 540 0
DWIDTH 24 0
BBX 20 34 2 -1
BITMAP
0FFF00
0FFF00
0FFF00
000000
000000
000000
000000
000000
007000
07FE00
0FFF00
1FFF80
3E07C0
3C03E0
7801E0
7801E0
7800F0
F000F0
F000F0
F000F0
F000F0
F000F0
F000F0
F000F0
F000F0
7800F0
7801E0
7801E0
3C03E0
3E07C0
1FFF80
0FFF00
07FE00
006000
ENDCHAR
STARTCHAR 014E
ENCODING 334
SWIDTH 697 0
DWIDTH 31 0
BBX 27 42 2 -1
BITMAP
00C07000
00E06000
00FBE000
007FC000
003F8000
00000000
00000000
00000000
000E0000
00FFE000
03FFF800
07FFFC00
0FC07E00
1F801F00
1F000F00
3E000F80
3C000780
7C0003C0
780003C0
780003C0
780003E0
F80001E0
F00001E0
F00001E0
F00001E0
F00001E0
F00001E0
F00001E0
F80001E0
780003E0
780003C0
780003C0
7C0007C0
3C000780
3E000F80
1F000F00
1F801F00
0FC07E00
07FFFC00
03FFF800
00FFE000
000E0000
ENDCHAR
STARTCHAR 014F
ENCODING 335
SWIDTH 540 0
DWIDTH 24 0
BBX 20 36 2 -1
BITMAP
0C0300
0E0300
0E0700
079F00
07FE00
03FC00
006000
000000
000000
000000
007000
07FE00
0FFF00
1FFF80
3E07C0
3C03E0
7801E0
7801E0
7800F0
F000F0
F000F0
F000F0
F000F0
F000F0
F000F0
F000F0
F000F0
7800F0
7801E0
7801E0
3C03E0
3E07C0
1FFF80
0FFF00
07FE00
006000
ENDCHAR
STARTCHAR 0150
ENCODING 336
SWIDTH 697 0
DWIDTH 31 0
BBX 27 42 2 -1
BITMAP
000E3C00
001E3800
003C7000
0038E000
0070E000
00E1C000
00000000
00000000
000E0000
00FFE000
03FFF800
07FFFC00
0FC07E00
1F801F00
1F000F00
3E000F80
3C000780
7C0003C0
780003C0
780003C0
780003E0
F80001E0
F00001E0
F00001E0
F00001E0
F00001E0
F00001E0
F00001E0
F80001E0
780003E0
780003C0
780003C0
7C0007C0
3C000780
3E000F80
1F000F00
1F801F00
0FC07E00
07FFFC00
03FFF800
00FFE000
000E0000
ENDCHAR
STARTCHAR 0151
ENCODING 337
SWIDTH 540 0
DWIDTH 24 0
BBX 20 36 2 -1
BITMAP
0070E0
0071C0
00E1C0
00E380
01C380
01C700
038600
038E00
000000
000000
007000
07FE00
0FFF00
1FFF80
3E07C0
3C03E0
7801E0
7801E0
7800F0
F000F0
F000F0
F000F0
F000F0
F000F0
F000F0
F000F0
F000F0
7800F0
7801E0
7801E0
3C03E0
3E07C0
1FFF80
0FFF00
07FE00
006000
ENDCHAR
STARTCHAR 0152
ENCODING 338
SWIDTH 945 0
DWIDTH 42 0
BBX 38 32 2 0
BITMAP
000FFFFFF8
00FFFFFFF8
01FFFFFFF8
07FFFFFFF8
0FE01E0000
1F801E0000
1F001E0000
3E001E0000
7C001E0000
7C001E0000
78001E0000
78001E0000
F8001E0000
F0001FFFF8
F0001FFFF8
F0001FFFF8
F0001FFFF8
F0001E0000
F0001E0000
F8001E0000
78001E0000
78001E0000
7C001E0000
3C001E0000
3E001E0000
1F001E0000
1F801E0000
0FE01E0000
07FFFFFFFC
01FFFFFFFC
007FFFFFFC
000FFFFFFC
ENDCHAR
STARTCHAR 0153
ENCODING 339
SWIDTH 922 0
DWIDTH 41 0
BBX 36 26 2 -1
BITMAP
0060003000
07FE03FF00
0FFF07FF80
1FFF9FFFC0
3E07DF03E0
3C03FC01E0
7801FC00F0
7801F800F0
7800F80070
F000F00070
F000F00070
F000FFFFF0
F000FFFFF0
F000FFFFF0
F000F00000
F000F00000
F000F00000
7800F80000
7801F80000
7801FC0000
3C03FE0010
3E07DF00F0
1FFF9FFFF0
0FFF07FFF0
07FE03FFC0
0060003800
ENDCHAR
STARTCHAR 0154
ENCODING 340
SWIDTH 630 0
DWIDTH 28 0
BBX 22 41 4 0
BITMAP
003800
007000
00F000
00E000
01C000
038000
000000
000000
000000
FFF800
FFFE00
FFFF00
F07F80
F00FC0
F007C0
F003C0
F003C0
F003C0
F003E0
F003C0
F003C0
F003C0
F007C0
F01F80
FFFF00
FFFE00
FFFE00
F07F00
F00F00
F00780
F007C0
F003C0
F003E0
F001E0
F001E0
F000F0
F000F0
F00078
F00078
F0003C
F0003C
ENDCHAR
STARTCHAR 0155
ENCODING 341
SWIDTH 360 0
DWIDTH 16 0
BBX 13 35 4 0
BITMAP
0078
0070
00F0
01E0
01C0
0380
0780
0700
0000
0000
0070
E3F0
E7F0
EFF0
FE00
F800
F000
F000
F000
E000
E000
E000
E000
E000
E000
E000
E000
E000
E000
E000
E000
E000
E000
E000
E000
ENDCHAR
STARTCHAR 0156
ENCODING 342
SWIDTH 630 0
DWIDTH 28 0
BBX 22 43 4 -11
BITMAP
FFF800
FFFE00
FFFF00
F07F80
F00FC0
F007C0
F003C0
F003C0
F003C0
F003E0
F003C0
F003C0
F003C0
F007C0
F01F80
FFFF00
FFFE00
FFFE00
F07F00
F00F00
F00780
F007C0
F003C0
F003E0
F001E0
F001E0
F000F0
F000F0
F00078
F00078
F0003C
F0003C
000000
000000
000000
000000
003C00
007800
007800
007000
007000
00E000
00E000
ENDCHAR
STARTCHAR 0157
ENCODING 343
SWIDTH 360 0
DWIDTH 16 0
BBX 13 36 3 -11
BITMAP
0038
71F8
73F8
77F8
7F00
7C00
7800
7800
7800
7000
7000
7000
7000
7000
7000
7000
7000
7000
7000
7000
7000
7000
7000
7000
7000
0000
0000
0000
0000
7800
7000
F000
E000
E000
E000
C000
ENDCHAR
STARTCHAR 0158
ENCODING 344
SWIDTH 630 0
DWIDTH 28 0
BBX 22 41 4 0
BITMAP
181C00
1C3800
0E3800
077000
03E000
03C000
000000
000000
000000
FFF800
FFFE00
FFFF00
F07F80
F00FC0
F007C0
F003C0
F003C0
F003C0
F003E0
F003C0
F003C0
F003C0
F007C0
F01F80
FFFF00
FFFE00
FFFE00
F07F00
F00F00
F00780
F007C0
F003C0
F003E0
F001E0
F001E0
F000F0
F000F0
F00078
F00078
F0003C
F0003C
ENDCHAR
STARTCHAR 0159
ENCODING 345
SWIDTH 360 0
DWIDTH 16 0
BBX 12 35 4 0
BITMAP
6070
7070
38E0
39C0
1DC0
0F80
0F80
0700
0000
0000
0070
E3F0
E7F0
EFF0
FE00
F800
F000
F000
F000
E000
E000
E000
E000
E000
E000
E000
E000
E000
E000
E000
E000
E000
E000
E000
E000
ENDCHAR
STARTCHAR 015A
ENCODING 346
SWIDTH 562 0
DWIDTH 25 0
BBX 20 42 3 -1
BITMAP
001C00
003800
007800
007000
00E000
01C000
000000
000000
01E000
0FFF80
1FFFC0
3FFFC0
7E03C0
F80040
F00000
F00000
F00000
F00000
F00000
F00000
F80000
FE0000
7FE000
3FFC00
1FFF00
07FF80
007FC0
0007E0
0003E0
0001F0
0000F0
0000F0
0000F0
0000F0
0000F0
0001E0
C003E0
F80FE0
FFFFC0
FFFF80
3FFE00
01E000
ENDCHAR
STARTCHAR 015B
ENCODING 347
SWIDTH 472 0
DWIDTH 21 0
BBX 17 36 2 -1
BITMAP
001E00
001C00
003C00
007800
007000
00E000
01E000
01C000
000000
000000
00C000
1FFE00
3FFF00
7FFF00
780300
F00000
F00000
F00000
F00000
780000
7E0000
7FE000
3FF800
0FFE00
00FF00
001F00
000F00
000780
000780
000780
800700
E01F00
FFFE00
FFFC00
7FF800
01C000
ENDCHAR
STARTCHAR 015C
ENCODING 348
SWIDTH 562 0
DWIDTH 25 0
BBX 20 42 3 -1
BITMAP
00F000
01F800
03B800
039C00
070E00
0E0600
000000
000000
01E000
0FFF80
1FFFC0
3FFFC0
7E03C0
F80040
F00000
F00000
F00000
F00000
F00000
F00000
F80000
FE0000
7FE000
3FFC00
1FFF00
07FF80
007FC0
0007E0
0003E0
0001F0
0000F0
0000F0
0000F0
0000F0
0000F0
0001E0
C003E0
F80FE0
FFFFC0
FFFF80
3FFE00
01E000
ENDCHAR
STARTCHAR 015D
ENCODING 349
SWIDTH 472 0
DWIDTH 21 0
BBX 17 36 2 -1
BITMAP
01C000
03E000
03F000
077000
0E3800
0E1800
1C1C00
180E00
000000
000000
00C000
1FFE00
3FFF00
7FFF00
780300
F00000
F00000
F00000
F00000
780000
7E0000
7FE000
3FF800
0FFE00
00FF00
001F00
000F00
000780
000780
000780
800700
E01F00
FFFE00
FFFC00
7FF800
01C000
ENDCHAR
STARTCHAR 015E
ENCODING 350
SWIDTH 562 0
DWIDTH 25 0
BBX 20 41 3 -8
BITMAP
01E000
0FFF80
1FFFC0
3FFFC0
7E03C0
F80040
F00000
F00000
F00000
F00000
F00000
F00000
F80000
FE0000
7FE000
3FFC00
1FFF00
07FF80
007FC0
0007E0
0003E0
0001F0
0000F0
0000F0
0000F0
0000F0
0000F0
0001E0
C003E0
F80FE0
FFFFC0
FFFF80
3FFE00
01F000
003000
003800
001800
003800
043800
07F800
07F000
ENDCHAR
STARTCHAR 015F
ENCODING 351
SWIDTH 472 0
DWIDTH 21 0
BBX 17 33 2 -8
BITMAP
00C000
1FFE00
3FFF00
7FFF00
780300
F00000
F00000
F00000
F00000
780000
7E0000
7FE000
3FF800
0FFE00
00FF00
001F00
000F00
000780
000780
000780
800700
E01F00
FFFE00
FFFC00
7FF800
01C000
006000
007000
007000
007000
08F000
0FF000
0FE000
ENDCHAR
STARTCHAR 0160
ENCODING 352
SWIDTH 562 0
DWIDTH 25 0
BBX 20 42 3 -1
BITMAP
0E0600
070E00
071C00
03B800
01F000
00F000
000000
000000
01E000
0FFF80
1FFFC0
3FFFC0
7E03C0
F80040
F00000
F00000
F00000
F00000
F00000
F00000
F80000
FE0000
7FE000
3FFC00
1FFF00
07FF80
007FC0
0007E0
0003E0
0001F0
0000F0
0000F0
0000F0
0000F0
0000F0
0001E0
C003E0
F80FE0
FFFFC0
FFFF80
3FFE00
01E000
ENDCHAR
STARTCHAR 0161
ENCODING 353
SWIDTH 472 0
DWIDTH 21 0
BBX 17 36 2 -1
BITMAP
1C0E00
0C1C00
0E3800
073800
077000
03F000
03E000
01C000
000000
000000
00C000
1FFE00
3FFF00
7FFF00
780300
F00000
F00000
F00000
F00000
780000
7E0000
7FE000
3FF800
0FFE00
00FF00
001F00
000F00
000780
000780
000780
800700
E01F00
FFFE00
FFFC00
7FF800
01C000
ENDCHAR
STARTCHAR 0162
ENCODING 354
SWIDTH 540 0
DWIDTH 24 0
BBX 24 40 0 -8
BITMAP
FFFFFF
FFFFFF
FFFFFF
FFFFFF
003C00
003C00
003C00
003C00
003C00
003C00
003C00
003C00
003C00
003C00
003C00
003C00
003C00
003C00
003C00
003C00
003C00
003C00
003C00
003C00
003C00
003C00
003C00
003C00
003C00
003C00
003C00
003C00
001800
000C00
000E00
000E00
000E00
010E00
01FE00
01FC00
ENDCHAR
STARTCHAR 0163
ENCODING 355
SWIDTH 360 0
DWIDTH 16 0
BBX 14 39 1 -8
BITMAP
1C00
1C00
1C00
1C00
1C00
1C00
1C00
FFFC
FFFC
FFFC
1C00
1C00
1C00
1C00
1C00
1C00
1C00
1C00
1C00
1C00
1C00
1C00
1C00
1C00
1C00
1C00
1E00
1F00
0FFC
0FFC
03FC
00C0
00E0
0070
0070
0070
08F0
0FF0
0FE0
ENDCHAR
STARTCHAR 0164
ENCODING 356
SWIDTH 540 0
DWIDTH 24 0
BBX 24 41 0 0
BITMAP
0381C0
01C380
00E700
007700
007E00
003C00
000000
000000
000000
FFFFFF
FFFFFF
FFFFFF
FFFFFF
003C00
003C00
003C00
003C00
003C00
003C00
003C00
003C00
003C00
003C00
003C00
003C00
003C00
003C00
003C00
003C00
003C00
003C00
003C00
003C00
003C00
003C00
003C00
003C00
003C00
003C00
003C00
003C00
ENDCHAR
STARTCHAR 0165
ENCODING 357
SWIDTH 360 0
DWIDTH 16 0
BBX 14 35 1 0
BITMAP
003C
0038
0078
0078
1C70
1C70
1C70
1C70
1C00
1C00
1C00
FFFC
FFFC
FFFC
1C00
1C00
1C00
1C00
1C00
1C00
1C00
1C00
1C00
1C00
1C00
1C00
1C00
1C00
1C00
1C00
1E00
1F00
0FFC
0FFC
03FC
ENDCHAR
STARTCHAR 0166
ENCODING 358
SWIDTH 540 0
DWIDTH 24 0
BBX 24 32 0 0
BITMAP
FFFFFF
FFFFFF
FFFFFF
FFFFFF
003C00
003C00
003C00
003C00
003C00
003C00
003C00
003C00
003C00
003C00
003C00
003C00
07FFE0
07FFE0
07FFE0
07FFE0
003C00
003C00
003C00
003C00
003C00
003C00
003C00
003C00
003C00
003C00
003C00
003C00
ENDCHAR
STARTCHAR 0167
ENCODING 359
SWIDTH 360 0
DWIDTH 16 0
BBX 14 31 1 0
BITMAP
1C00
1C00
1C00
1C00
1C00
1C00
1C00
FFFC
FFFC
FFFC
1C00
1C00
1C00
1C00
1C00
FFFC
FFFC
FFFC
1C00
1C00
1C00
1C00
1C00
1C00
1C00
1C00
1E00
1F00
0FFC
0FFC
03FC
ENDCHAR
STARTCHAR 0168
ENCODING 360
SWIDTH 652 0
DWIDTH 29 0
BBX 23 42 3 -1
BITMAP
0001C0
03F1C0
03FFC0
073F80
070F00
000000
000000
000000
000000
F0001E
F0001E
F0001E
F0001E
F0001E
F0001E
F0001E
F0001E
F0001E
F0001E
F0001E
F0001E
F0001E
F0001E
F0001E
F0001E
F0001E
F0001E
F0001E
F0001E
F0001E
F0001E
78003C
78003C
78003C
78003C
7C0078
3E00F8
1F01F0
1FFFF0
0FFFE0
03FF80
003800
ENDCHAR
STARTCHAR 0169
ENCODING 361
SWIDTH 562 0
DWIDTH 25 0
BBX 19 35 3 -1
BITMAP
078700
0FC700
0FE700
1CFE00
1C7E00
181800
000000
000000
000000
000000
F001E0
F001E0
F001E0
F001E0
F001E0
F001E0
F001E0
F001E0
F001E0
F001E0
F001E0
F001E0
F001E0
F001E0
F001E0
F001E0
F001E0
7003E0
7803E0
7807E0
7C0FE0
3FFDE0
1FF9E0
0FF1E0
018000
ENDCHAR
STARTCHAR 016A
ENCODING 362
SWIDTH 652 0
DWIDTH 29 0
BBX 23 41 3 -1
BITMAP
03FF80
03FF80
03FF80
000000
000000
000000
000000
000000
F0001E
F0001E
F0001E
F0001E
F0001E
F0001E
F0001E
F0001E
F0001E
F0001E
F0001E
F0001E
F0001E
F0001E
F0001E
F0001E
F0001E
F0001E
F0001E
F0001E
F0001E
F0001E
78003C
78003C
78003C
78003C
7C0078
3E00F8
1F01F0
1FFFF0
0FFFE0
03FF80
003800
ENDCHAR
STARTCHAR 016B
ENCODING 363
SWIDTH 562 0
DWIDTH 25 0
BBX 19 34 3 -1
BITMAP
0FFE00
0FFE00
0FFE00
000000
000000
000000
000000
000000
000000
F001E0
F001E0
F001E0
F001E0
F001E0
F001E0
F001E0
F001E0
F001E0
F001E0
F001E0
F001E0
F001E0
F001E0
F001E0
F001E0
F001E0
7003E0
7803E0
7807E0
7C0FE0
3FFDE0
1FF9E0
0FF1E0
018000
ENDCHAR
STARTCHAR 016C
ENCODING 364
SWIDTH 652 0
DWIDTH 29 0
BBX 23 42 3 -1
BITMAP
0701C0
030180
03EF80
01FF00
00FE00
000000
000000
000000
000000
F0001E
F0001E
F0001E
F0001E
F0001E
F0001E
F0001E
F0001E
F0001E
F0001E
F0001E
F0001E
F0001E
F0001E
F0001E
F0001E
F0001E
F0001E
F0001E
F0001E
F0001E
F0001E
78003C
78003C
78003C
78003C
7C0078
3E00F8
1F01F0
1FFFF0
0FFFE0
03FF80
003800
ENDCHAR
STARTCHAR 016D
ENCODING 365
SWIDTH 562 0
DWIDTH 25 0
BBX 19 36 3 -1
BITMAP
1C0600
1C0600
0C0E00
0F1E00
07FC00
03F800
004000
000000
000000
000000
000000
F001E0
F001E0
F001E0
F001E0
F001E0
F001E0
F001E0
F001E0
F001E0
F001E0
F001E0
F001E0
F001E0
F001E0
F001E0
F001E0
F001E0
7003E0
7803E0
7807E0
7C0FE0
3FFDE0
1FF9E0
0FF1E0
018000
ENDCHAR
STARTCHAR 016E
ENCODING 366
SWIDTH 652 0
DWIDTH 29 0
BBX 23 42 3 -1
BITMAP
001000
00FE00
01FF00
01C700
038380
038380
038380
038380
018300
F1EF1E
F0FE1E
F07C1E
F0001E
F0001E
F0001E
F0001E
F0001E
F0001E
F0001E
F0001E
F0001E
F0001E
F0001E
F0001E
F0001E
F0001E
F0001E
F0001E
F0001E
F0001E
F0001E
78003C
78003C
78003C
78003C
7C0078
3E00F8
1F01F0
1FFFF0
0FFFE0
03FF80
003800
ENDCHAR
STARTCHAR 016F
ENCODING 367
SWIDTH 562 0
DWIDTH 25 0
BBX 19 39 3 -1
BITMAP
004000
03F000
07F800
071C00
0E0C00
0C0E00
0C0E00
0E0C00
0E1C00
07FC00
03F800
01F000
000000
000000
F001E0
F001E0
F001E0
F001E0
F001E0
F001E0
F001E0
F001E0
F001E0
F001E0
F001E0
F001E0
F001E0
F001E0
F001E0
F001E0
F001E0
7003E0
7803E0
7807E0
7C0FE0
3FFDE0
1FF9E0
0FF1E0
018000
ENDCHAR
STARTCHAR 0170
ENCODING 368
SWIDTH 652 0
DWIDTH 29 0
BBX 23 42 3 -1
BITMAP
0038F0
0071E0
00F1C0
00E380
01C780
038700
000000
000000
000000
F0001E
F0001E
F0001E
F0001E
F0001E
F0001E
F0001E
F0001E
F0001E
F0001E
F0001E
F0001E
F0001E
F0001E
F0001E
F0001E
F0001E
F0001E
F0001E
F0001E
F0001E
F0001E
78003C
78003C
78003C
78003C
7C0078
3E00F8
1F01F0
1FFFF0
0FFFE0
03FF80
003800
ENDCHAR
STARTCHAR 0171
ENCODING 369
SWIDTH 562 0
DWIDTH 25 0
BBX 19 36 3 -1
BITMAP
00F1C0
00E3C0
01E380
01C700
018700
038E00
030E00
071C00
000000
000000
000000
F001E0
F001E0
F001E0
F001E0
F001E0
F001E0
F001E0
F001E0
F001E0
F001E0
F001E0
F001E0
F001E0
F001E0
F001E0
F001E0
F001E0
7003E0
7803E0
7807E0
7C0FE0
3FFDE0
1FF9E0
0FF1E0
018000
ENDCHAR
STARTCHAR 0172
ENCODING 370
SWIDTH 652 0
DWIDTH 29 0
BBX 23 40 3 -8
BITMAP
F0001E
F0001E
F0001E
F0001E
F0001E
F0001E
F0001E
F0001E
F0001E
F0001E
F0001E
F0001E
F0001E
F0001E
F0001E
F0001E
F0001E
F0001E
F0001E
F0001E
F0001E
F0001E
78003C
78003C
78003C
78003C
7C0078
3E00F8
1F01F0
1FFFF0
0FFFE0
03FF80
003800
007000
006000
00E000
00E000
00F000
007E00
007E00
ENDCHAR
STARTCHAR 0173
ENCODING 371
SWIDTH 562 0
DWIDTH 25 0
BBX 21 32 3 -7
BITMAP
F001E0
F001E0
F001E0
F001E0
F001E0
F001E0
F001E0
F001E0
F001E0
F001E0
F001E0
F001E0
F001E0
F001E0
F001E0
F001E0
F001E0
7003E0
7803E0
7807E0
7C0FE0
3FFDE0
1FF9E0
0FF1E0
0180C0
0001C0
000180
000380
000380
0003C0
0003F8
0001F8
ENDCHAR
STARTCHAR 0174
ENCODING 372
SWIDTH 877 0
DWIDTH 39 0
BBX 37 41 1 0
BITMAP
0000780000
0000F80000
0001DC0000
00038E0000
0003860000
0007070000
0000000000
0000000000
0000000000
F000F80078
7800F80078
7800F800F0
7800FC00F0
7801FC00F0
3C01DC00F0
3C01DC01E0
3C01DC01E0
3C03CE01E0
3C038E01E0
1E038E01C0
1E038E03C0
1E038F03C0
1E078703C0
0F070703C0
0F07070780
0F07070780
0F0F038780
070E038780
078E038700
078E038F00
078E03CF00
079E01CF00
03DC01CF00
03DC01DE00
03DC01DE00
03FC01FE00
01F800FE00
01F800FC00
01F800FC00
01F800FC00
01F8007C00
ENDCHAR
STARTCHAR 0175
ENCODING 373
SWIDTH 720 0
DWIDTH 32 0
BBX 29 35 2 0
BITMAP
000F0000
000F8000
001F8000
001DC000
0039C000
0070E000
00707000
00E07000
00000000
00000000
00000000
E00F0078
F00F8070
F01F8070
F01F80F0
701F80F0
781FC0E0
781DC0E0
7839C1E0
3839C1E0
3839E1C0
3C38E1C0
3C78E3C0
1C70E3C0
1C70F3C0
1E707380
1EF07780
0EE07780
0EE07780
0FE03F00
0FE03F00
0FC03F00
07C03F00
07C03E00
07C01E00
ENDCHAR
STARTCHAR 0176
ENCODING 374
SWIDTH 540 0
DWIDTH 24 0
BBX 24 41 0 0
BITMAP
003C00
007E00
007F00
00E700
01C380
0381C0
000000
000000
000000
F0000F
78001E
7C001E
3C003C
1E007C
1F0078
0F00F0
0781F0
0781E0
03C3C0
03E3C0
01E780
00FF80
00FF00
007E00
007E00
003C00
003C00
003C00
003C00
003C00
003C00
003C00
003C00
003C00
003C00
003C00
003C00
003C00
003C00
003C00
003C00
ENDCHAR
STARTCHAR 0177
ENCODING 375
SWIDTH 517 0
DWIDTH 23 0
BBX 21 44 1 -9
BITMAP
007800
00F800
00FC00
01DC00
01CE00
038700
070700
070380
000000
000000
000000
F00078
780078
780070
3800F0
3C00F0
3C01E0
1C01E0
1E01E0
1E03C0
0E03C0
0F0380
0F0780
070780
078700
038F00
03CF00
03CE00
01DE00
01FE00
01FC00
00FC00
00F800
007800
007800
007000
00F000
00F000
01E000
01E000
03C000
3FC000
3F8000
3F0000
ENDCHAR
STARTCHAR 0178
ENCODING 376
SWIDTH 540 0
DWIDTH 24 0
BBX 24 40 0 0
BITMAP
03C3C0
03C3C0
03C3C0
03C3C0
000000
000000
000000
000000
F0000F
78001E
7C001E
3C003C
1E007C
1F0078
0F00F0
0781F0
0781E0
03C3C0
03E3C0
01E780
00FF80
00FF00
007E00
007E00
003C00
003C00
003C00
003C00
003C00
003C00
003C00
003C00
003C00
003C00
003C00
003C00
003C00
003C00
003C00
003C00
ENDCHAR
STARTCHAR 0179
ENCODING 377
SWIDTH 607 0
DWIDTH 27 0
BBX 23 41 2 0
BITMAP
000E00
001C00
003C00
003800
007000
00E000
000000
000000
000000
FFFFFE
FFFFFE
FFFFFE
FFFFFE
00007C
000078
0000F8
0001F0
0003E0
0003C0
0007C0
000F80
000F00
001E00
003E00
007C00
007800
00F800
01F000
03E000
03C000
07C000
0F8000
0F0000
1E0000
3E0000
7C0000
780000
FFFFFE
FFFFFE
FFFFFE
FFFFFE
ENDCHAR
STARTCHAR 017A
ENCODING 378
SWIDTH 472 0
DWIDTH 21 0
BBX 17 35 2 0
BITMAP
001E00
001C00
003C00
007800
007000
00E000
01E000
01C000
000000
000000
000000
FFFF80
FFFF80
FFFF80
000780
000F00
001F00
003E00
003C00
007800
00F000
01F000
01E000
03C000
078000
0F8000
1F0000
1E0000
3C0000
7C0000
F80000
F00000
FFFF80
FFFF80
FFFF80
ENDCHAR
STARTCHAR 017B
ENCODING 379
SWIDTH 607 0
DWIDTH 27 0
BBX 23 40 2 0
BITMAP
003C00
003C00
003C00
003C00
000000
000000
000000
000000
FFFFFE
FFFFFE
FFFFFE
FFFFFE
00007C
000078
0000F8
0001F0
0003E0
0003C0
0007C0
000F80
000F00
001E00
003E00
007C00
007800
00F800
01F000
03E000
03C000
07C000
0F8000
0F0000
1E0000
3E0000
7C0000
780000
FFFFFE
FFFFFE
FFFFFE
FFFFFE
ENDCHAR
STARTCHAR 017C
ENCODING 380
SWIDTH 472 0
DWIDTH 21 0
BBX 17 33 2 0
BITMAP
01C000
01C000
01C000
01C000
01C000
000000
000000
000000
000000
FFFF80
FFFF80
FFFF80
000780
000F00
001F00
003E00
003C00
007800
00F000
01F000
01E000
03C000
078000
0F8000
1F0000
1E0000
3C0000
7C0000
F80000
F00000
FFFF80
FFFF80
FFFF80
ENDCHAR
STARTCHAR 017D
ENCODING 381
SWIDTH 607 0
DWIDTH 27 0
BBX 23 41 2 0
BITMAP
038180
018380
01C700
00EE00
007C00
007C00
000000
000000
000000
FFFFFE
FFFFFE
FFFFFE
FFFFFE
00007C
000078
0000F8
0001F0
0003E0
0003C0
0007C0
000F80
000F00
001E00
003E00
007C00
007800
00F800
01F000
03E000
03C000
07C000
0F8000
0F0000
1E0000
3E0000
7C0000
780000
FFFFFE
FFFFFE
FFFFFE
FFFFFE
ENDCHAR
STARTCHAR 017E
ENCODING 382
SWIDTH 472 0
DWIDTH 21 0
BBX 17 35 2 0
BITMAP
181C00
1C1C00
0E3800
0E7000
077000
03E000
03E000
01C000
000000
000000
000000
FFFF80
FFFF80
FFFF80
000780
000F00
001F00
003E00
003C00
007800
00F000
01F000
01E000
03C000
078000
0F8000
1F0000
1E0000
3C0000
7C0000
F80000
F00000
FFFF80
FFFF80
FFFF80
ENDCHAR
STARTCHAR 017F
ENCODING 383
SWIDTH 315 0
DWIDTH 14 0
BBX 14 33 1 0
BITMAP
03FC
07FC
0FFC
0F00
0E00
1E00
1E00
1E00
1E00
FE00
FE00
FE00
1E00
1E00
1E00
1E00
1E00
1E00
1E00
1E00
1E00
1E00
1E00
1E00
1E00
1E00
1E00
1E00
1E00
1E00
1E00
1E00
1E00
ENDCHAR
STARTCHAR 0180
ENCODING 384
SWIDTH 562 0
DWIDTH 25 0
BBX 22 34 1 -1
BITMAP
1C0000
1C0000
1C0000
FFF000
FFF000
1C0000
1C0000
1C0000
1C0C00
1C7F80
1CFFC0
1DFFE0
1F81F0
1F00F0
1F0078
1E0078
1E003C
1C003C
1C003C
1C003C
1C003C
1C003C
1C003C
1C003C
1C003C
1E003C
1E0078
1F0078
1F00F0
1F81F0
1DFFE0
1CFFC0
1C7F80
000C00
ENDCHAR
STARTCHAR 0181
ENCODING 385
SWIDTH 652 0
DWIDTH 29 0
BBX 28 32 -2 0
BITMAP
0FFFFC00
3FFFFF00
7FFFFF80
7FF03FC0
F0F003E0
E0F003E0
E0F001E0
E0F001E0
E0F001E0
00F001E0
00F001E0
00F003C0
00F007C0
00FFFF80
00FFFE00
00FFFF00
00FFFFC0
00F003E0
00F001E0
00F000F0
00F000F0
00F000F0
00F000F0
00F000F0
00F000F0
00F000F0
00F001F0
00F003E0
00FFFFE0
00FFFFC0
00FFFF80
00FFFC00
ENDCHAR
STARTCHAR 0182
ENCODING 386
SWIDTH 607 0
DWIDTH 27 0
BBX 20 32 4 0
BITMAP
FFFFC0
FFFFC0
FFFFC0
F00000
F00000
F00000
F00000
F00000
F00000
F00000
F00000
F00000
F00000
FFFC00
FFFF00
FFFFC0
FFFFE0
F003E0
F001F0
F000F0
F000F0
F000F0
F000F0
F000F0
F000F0
F000F0
F001F0
F003E0
FFFFE0
FFFFC0
FFFF80
FFFC00
ENDCHAR
STARTCHAR 0183
ENCODING 387
SWIDTH 562 0
DWIDTH 25 0
BBX 19 34 4 -1
BITMAP
FFFF00
FFFF00
FFFF00
E00000
E00000
E00000
E00000
E00000
E06000
E3FC00
E7FE00
EFFF00
FC0F80
F80780
F803C0
F003C0
F001E0
E001E0
E001E0
E001E0
E001E0
E001E0
E001E0
E001E0
E001E0
F001E0
F003C0
F803C0
F80780
FC0F80
EFFF00
E7FE00
E3FC00
006000
ENDCHAR
STARTCHAR 0184
ENCODING 388
SWIDTH 607 0
DWIDTH 27 0
BBX 24 32 0 0
BITMAP
030000
070000
0F0000
0F0000
1F0000
3F0000
7F0000
7F0000
FF0000
0F0000
0F0000
0F0000
0F0000
0FFFC0
0FFFF0
0FFFFC
0FFFFE
0F003E
0F001F
0F000F
0F000F
0F000F
0F000F
0F000F
0F000F
0F000F
0F001F
0F003E
0FFFFE
0FFFFC
0FFFF8
0FFFC0
ENDCHAR
STARTCHAR 0185
ENCODING 389
SWIDTH 562 0
DWIDTH 25 0
BBX 23 34 0 -1
BITMAP
060000
0E0000
0E0000
1E0000
1E0000
3E0000
3E0000
7E0000
7E0600
FE3FC0
0E7FE0
0EFFF0
0FC0F8
0F8078
0F803C
0F003C
0F001E
0E001E
0E001E
0E001E
0E001E
0E001E
0E001E
0E001E
0E001E
0F001E
0F003C
0F803C
0F8078
0FC0F8
0EFFF0
0E7FE0
0E3FC0
000600
ENDCHAR
STARTCHAR 0186
ENCODING 390
SWIDTH 630 0
DWIDTH 28 0
BBX 23 34 2 -1
BITMAP
01E000
1FFE00
3FFF80
FFFFC0
F807E0
E001F0
C000F8
80007C
00003C
00003C
00003E
00001E
00001E
00001E
00001E
00001E
00001E
00001E
00001E
00001E
00001E
00001E
00001E
00003E
00003C
00003C
800078
C000F8
E001F0
FC07E0
FFFFC0
3FFF80
0FFE00
00E000
ENDCHAR
STARTCHAR 0187
ENCODING 391
SWIDTH 630 0
DWIDTH 28 0
BBX 29 42 2 -1
BITMAP
00000038
000001F8
000003F8
000007F8
000007C0
00000F80
00000F00
00000F00
00070F00
00FFFF00
01FFFF00
07FFFF00
0FE03F00
1F800F00
1F000300
3E000100
3C000000
7C000000
78000000
78000000
78000000
F8000000
F0000000
F0000000
F0000000
F0000000
F0000000
F0000000
F8000000
78000000
78000000
78000000
7C000000
3C000000
3E000100
1F000300
1F800F00
0FE03F00
07FFFF00
01FFFC00
00FFF000
00070000
ENDCHAR
STARTCHAR 0188
ENCODING 392
SWIDTH 495 0
DWIDTH 22 0
BBX 22 34 2 -1
BITMAP
00007C
0001FC
0001FC
0003E0
0003C0
0003C0
000380
000380
003B80
03FF80
0FFF80
1FFF80
3F0180
3C0000
7C0000
780000
780000
F00000
F00000
F00000
F00000
F00000
F00000
F00000
F00000
780000
780000
7C0000
3C0000
3F0180
1FFF80
0FFF80
03FF00
007000
ENDCHAR
STARTCHAR 0189
ENCODING 393
SWIDTH 697 0
DWIDTH 31 0
BBX 28 32 0 0
BITMAP
0FFFC000
0FFFF800
0FFFFE00
0F07FF00
0F001F80
0F000FC0
0F0007C0
0F0003E0
0F0001E0
0F0001F0
0F0000F0
0F0000F0
0F0000F0
0F0000F0
FFFE00F0
FFFE00F0
FFFE00F0
0F0000F0
0F0000F0
0F0000F0
0F0000F0
0F0000F0
0F0001F0
0F0001E0
0F0003E0
0F0007C0
0F000FC0
0F003F80
0FFFFF00
0FFFFE00
0FFFF800
0FFF8000
ENDCHAR
STARTCHAR 018A
ENCODING 394
SWIDTH 720 0
DWIDTH 32 0
BBX 32 32 -2 0
BITMAP
0FFFFC00
3FFFFF80
7FFFFFE0
7FF07FF0
F0F003F8
E0F000FC
E0F0007C
E0F0003E
E0F0001E
00F0001E
00F0001F
00F0000F
00F0000F
00F0000F
00F0000F
00F0000F
00F0000F
00F0000F
00F0000F
00F0000F
00F0000F
00F0001F
00F0001E
00F0001E
00F0003E
00F0007C
00F000F8
00F003F8
00FFFFF0
00FFFFC0
00FFFF00
00FFF800
ENDCHAR
STARTCHAR 018B
ENCODING 395
SWIDTH 607 0
DWIDTH 27 0
BBX 20 32 4 0
BITMAP
0FFFF0
0FFFF0
0FFFF0
0000F0
0000F0
0000F0
0000F0
0000F0
0000F0
0000F0
0000F0
0000F0
0000F0
01FFF0
0FFFF0
3FFFF0
3FFFF0
7C00F0
F800F0
F800F0
F000F0
F000F0
F000F0
F000F0
F000F0
F800F0
F800F0
7C00F0
7FFFF0
3FFFF0
0FFFF0
03FFF0
ENDCHAR
STARTCHAR 018C
ENCODING 396
SWIDTH 562 0
DWIDTH 25 0
BBX 20 34 2 -1
BITMAP
1FFFF0
1FFFF0
1FFFF0
0000F0
0000F0
0000F0
0000F0
0000F0
00C0F0
07F8F0
0FFCF0
1FFEF0
3E07F0
3C03F0
7801F0
7801F0
7001F0
F000F0
F000F0
F000F0
F000F0
F000F0
F000F0
F000F0
F000F0
7001F0
7801F0
7801F0
3C03F0
3E07F0
1FFEF0
0FFCF0
07F8F0
00C000
ENDCHAR
STARTCHAR 018D
ENCODING 397
SWIDTH 540 0
DWIDTH 24 0
BBX 20 33 2 -9
BITMAP
01FC00
07FF00
1FFF80
1F0FC0
3E03C0
7C01E0
7801E0
7800E0
7000F0
F000F0
F000F0
F000F0
F000F0
F000F0
F000F0
F000F0
7800E0
7801E0
7C01E0
3E01C0
3F0380
1FFF00
07FE00
03FF00
003F80
0007C0
0003C0
0003C0
0003C0
1C0FC0
1FFF80
1FFF00
07FC00
ENDCHAR
STARTCHAR 018E
ENCODING 398
SWIDTH 562 0
DWIDTH 25 0
BBX 18 32 3 0
BITMAP
FFFFC0
FFFFC0
FFFFC0
FFFFC0
0003C0
0003C0
0003C0
0003C0
0003C0
0003C0
0003C0
0003C0
0003C0
FFFFC0
FFFFC0
FFFFC0
FFFFC0
0003C0
0003C0
0003C0
0003C0
0003C0
0003C0
0003C0
0003C0
0003C0
0003C0
0003C0
FFFFC0
FFFFC0
FFFFC0
FFFFC0
ENDCHAR
STARTCHAR 018F
ENCODING 399
SWIDTH 697 0
DWIDTH 31 0
BBX 27 34 2 -1
BITMAP
003C0000
03FFE000
0FFFF800
3FFFFC00
3F00FE00
3C003F00
30000F00
20000F80
00000780
000003C0
000003C0
000003C0
000003E0
000001E0
000001E0
000001E0
FFFFFFE0
FFFFFFE0
FFFFFFE0
FFFFFFE0
780001E0
780003E0
780003C0
780003C0
7C0003C0
3C000780
3E000F80
1F000F00
1F803F00
0FC07E00
07FFFC00
03FFF800
00FFE000
000E0000
ENDCHAR
STARTCHAR 0190
ENCODING 400
SWIDTH 540 0
DWIDTH 24 0
BBX 19 34 3 -1
BITMAP
00F000
07FFC0
0FFFC0
1FFFC0
3F01C0
7C0000
780000
780000
780000
780000
780000
780000
3C0000
3E0000
0FFC00
03FC00
0FFC00
1FFC00
3E0000
7C0000
780000
F00000
F00000
F00000
F00000
F00000
F80000
780000
7C0020
3F01E0
1FFFE0
0FFFE0
07FFC0
007800
ENDCHAR
STARTCHAR 0191
ENCODING 401
SWIDTH 517 0
DWIDTH 23 0
BBX 22 41 -2 -9
BITMAP
03FFFC
03FFFC
03FFFC
03FFFC
03C000
03C000
03C000
03C000
03C000
03C000
03C000
03C000
03C000
03FFF8
03FFF8
03FFF8
03FFF8
03C000
03C000
03C000
03C000
03C000
03C000
03C000
03C000
03C000
03C000
03C000
03C000
03C000
03C000
03C000
03C000
03C000
078000
078000
0F8000
FF0000
FF0000
FC0000
F00000
ENDCHAR
STARTCHAR 0192
ENCODING 402
SWIDTH 315 0
DWIDTH 14 0
BBX 17 42 -2 -9
BITMAP
007F80
00FF80
01FF80
01E000
01C000
03C000
03C000
03C000
03C000
1FFF00
1FFF00
1FFF00
03C000
03C000
03C000
03C000
03C000
03C000
03C000
03C000
03C000
03C000
03C000
03C000
03C000
03C000
03C000
03C000
03C000
03C000
03C000
03C000
03C000
03C000
03C000
03C000
03C000
03C000
078000
FF8000
FF0000
FE0000
ENDCHAR
STARTCHAR 0193
ENCODING 403
SWIDTH 697 0
DWIDTH 31 0
BBX 31 42 2 -1
BITMAP
0000001E
000000FE
000001FE
000003FE
000003E0
000007C0
00000780
00000780
00078780
00FFFF80
01FFFF80
07FFFF80
0FE01F80
1F800780
1F000180
3E000080
3C000000
7C000000
78000000
78000000
78000000
F8000000
F0000000
F0000000
F001FF80
F001FF80
F001FF80
F001FF80
F8000380
78000380
78000380
78000380
7C000380
3C000380
3E000380
1F000380
1F800780
0FE01F80
07FFFF80
01FFFE00
007FF800
00070000
ENDCHAR
STARTCHAR 0194
ENCODING 404
SWIDTH 607 0
DWIDTH 27 0
BBX 27 41 0 -9
BITMAP
F80003E0
780003C0
7C0007C0
3C000780
3E000F80
1E000F00
1F001F00
0F001E00
0F803E00
07803C00
07C03C00
03C07800
03E07800
01E0F000
01F0F000
00F1E000
00F9E000
007BC000
007FC000
003FC000
003F8000
001F8000
001F0000
001F0000
001F0000
003F8000
003F8000
007FC000
007BC000
007BE000
00F1E000
00F1E000
00F0F000
01E0F000
01E0F000
01E0F000
01E0F000
00FBF000
00FFE000
007FC000
003F8000
ENDCHAR
STARTCHAR 0195
ENCODING 405
SWIDTH 877 0
DWIDTH 39 0
BBX 32 33 4 0
BITMAP
E0000000
E0000000
E0000000
E0000000
E0000000
E0000000
E0000000
E0000000
E0700000
E3FC01C0
E7FE01F0
EFFF01F8
FC0F80FC
F807803C
F007801E
F003C01E
F003C00E
E003C00F
E003C00F
E003C00F
E003C00F
E003C00F
E003C00F
E003C00F
E003C00F
E003C00F
E003C01E
E003C01E
E001C03C
E001F0FC
E001FFF8
E000FFE0
E0003F80
ENDCHAR
STARTCHAR 0196
ENCODING 406
SWIDTH 315 0
DWIDTH 14 0
BBX 10 32 4 0
BITMAP
F000
F000
F000
F000
F000
F000
F000
F000
F000
F000
F000
F000
F000
F000
F000
F000
F000
F000
F000
F000
F000
F000
F000
F000
F000
F000
7800
7C00
7FC0
3FC0
1FC0
07C0
ENDCHAR
STARTCHAR 0197
ENCODING 407
SWIDTH 270 0
DWIDTH 12 0
BBX 12 32 0 0
BITMAP
0F00
0F00
0F00
0F00
0F00
0F00
0F00
0F00
0F00
0F00
0F00
0F00
0F00
0F00
0F00
0F00
FFF0
FFF0
FFF0
FFF0
0F00
0F00
0F00
0F00
0F00
0F00
0F00
0F00
0F00
0F00
0F00
0F00
ENDCHAR
STARTCHAR 0198
ENCODING 408
SWIDTH 675 0
DWIDTH 30 0
BBX 26 33 4 0
BITMAP
00001000
F000FE00
F001FF00
F003FF80
F007C780
F00F8380
F01F03C0
F01E03C0
F03C03C0
F07C0000
F0F80000
F1F00000
F3E00000
F7C00000
FF800000
FF000000
FF000000
FF800000
F7C00000
F3E00000
F3F00000
F1F00000
F0F80000
F07C0000
F03E0000
F01F0000
F00F8000
F007C000
F003E000
F001F000
F001F800
F000F800
F0007C00
ENDCHAR
STARTCHAR 0199
ENCODING 409
SWIDTH 517 0
DWIDTH 23 0
BBX 18 33 4 0
BITMAP
3FC000
7FC000
7FC000
F00000
F00000
E00000
E00000
E00000
E00000
E007C0
E00F80
E01F00
E03E00
E07C00
E0F800
E1F000
E3E000
E7C000
EF8000
FF0000
FE0000
FF0000
EF8000
E7C000
E3E000
E1F000
E0F800
E07C00
E03E00
E01F00
E00F00
E00780
E003C0
ENDCHAR
STARTCHAR 019A
ENCODING 410
SWIDTH 247 0
DWIDTH 11 0
BBX 11 33 0 0
BITMAP
0E00
0E00
0E00
0E00
0E00
0E00
0E00
0E00
0E00
0E00
0E00
0E00
0E00
0E00
0E00
FFE0
FFE0
FFE0
0E00
0E00
0E00
0E00
0E00
0E00
0E00
0E00
0E00
0E00
0E00
0E00
0E00
0E00
0E00
ENDCHAR
STARTCHAR 019B
ENCODING 411
SWIDTH 517 0
DWIDTH 23 0
BBX 21 33 1 0
BITMAP
03C000
01E380
01FF80
01FE00
03F000
1FF000
3E7000
307800
007800
003800
007C00
007C00
007C00
00FE00
00FE00
01EE00
01EF00
01CF00
03C700
03C780
078780
078380
0F03C0
0F03C0
0F01C0
1E01E0
1E01E0
3C00E0
3C00F0
3800F0
780070
780078
F00078
ENDCHAR
STARTCHAR 019C
ENCODING 412
SWIDTH 877 0
DWIDTH 39 0
BBX 32 33 3 -1
BITMAP
F003C00F
F003C00F
F003C00F
F003C00F
F003C00F
F003C00F
F003C00F
F003C00F
F003C00F
F003C00F
F003C00F
F003C00F
F003C00F
F003C00F
F003C00F
F003C00F
F003C00F
F003C00F
F003C00F
F003C00F
F003C00F
F003C00F
F003C00F
F003C00F
7003E00F
7803E00F
7807E01F
780FF03F
7C1DF87F
3FFCFFFF
1FF87FEF
0FF03FCF
03000600
ENDCHAR
STARTCHAR 019D
ENCODING 413
SWIDTH 675 0
DWIDTH 30 0
BBX 28 41 -2 -9
BITMAP
03E000F0
03F000F0
03F000F0
03F800F0
03F800F0
03FC00F0
03FC00F0
03DE00F0
03DE00F0
03CF00F0
03CF00F0
03C780F0
03C780F0
03C3C0F0
03C3C0F0
03C1E0F0
03C1E0F0
03C0F0F0
03C0F0F0
03C078F0
03C078F0
03C078F0
03C03CF0
03C03CF0
03C01EF0
03C01EF0
03C00FF0
03C00FF0
03C007F0
03C007F0
03C003F0
03C003F0
03C00000
03800000
07800000
07800000
0F800000
FF000000
FE000000
FC000000
F0000000
ENDCHAR
STARTCHAR 019E
ENCODING 414
SWIDTH 562 0
DWIDTH 25 0
BBX 18 34 4 -9
BITMAP
007000
E3FC00
E7FE00
EFFF00
FC0F80
F80780
F00780
F003C0
F003C0
E003C0
E003C0
E003C0
E003C0
E003C0
E003C0
E003C0
E003C0
E003C0
E003C0
E003C0
E003C0
E003C0
E003C0
E003C0
E003C0
0003C0
0003C0
0003C0
0003C0
0003C0
0003C0
0003C0
0003C0
0003C0
ENDCHAR
STARTCHAR 019F
ENCODING 415
SWIDTH 697 0
DWIDTH 31 0
BBX 27 34 2 -1
BITMAP
000E0000
00FFE000
03FFF800
07FFFC00
0FC07E00
1F801F00
1F000F00
3E000F80
3C000780
7C0003C0
780003C0
780003C0
780003E0
F80001E0
FFFFFFE0
FFFFFFE0
FFFFFFE0
FFFFFFE0
F00001E0
F00001E0
F80001E0
780003E0
780003C0
780003C0
7C0007C0
3C000780
3E000F80
1F000F00
1F801F00
0FC07E00
07FFFC00
03FFF800
00FFE000
000E0000
ENDCHAR
STARTCHAR 01A0
ENCODING 416
SWIDTH 810 0
DWIDTH 36 0
BBX 28 35 2 -1
BITMAP
00000070
000E0030
00FFE030
03FFF830
07FFFC70
0FC07FF0
1F003FF0
3E001FE0
3E000F80
7C000780
780007C0
780003C0
780003C0
F80003C0
F00003C0
F00003E0
F00001E0
F00001E0
F00001E0
F00001E0
F00003E0
F00003C0
F80003C0
780003C0
780003C0
780007C0
7C000780
3E000F80
3E001F00
1F003F00
0FC07E00
07FFFC00
03FFF800
00FFE000
000E0000
ENDCHAR
STARTCHAR 01A1
ENCODING 417
SWIDTH 540 0
DWIDTH 24 0
BBX 22 28 2 -1
BITMAP
00001C
00001C
00701C
07FE1C
0FFF1C
1FFFFC
3E07F8
3C03F8
7801E0
7801E0
7800F0
7000F0
F000F0
F000F0
F000F0
F000F0
F000F0
F000F0
7000F0
7800F0
7801E0
7801E0
3C03E0
3E07C0
1FFF80
0FFF00
07FE00
006000
ENDCHAR
STARTCHAR 01A2
ENCODING 418
SWIDTH 855 0
DWIDTH 38 0
BBX 32 34 2 -1
BITMAP
000F0000
00FFFFE0
03FFFFF8
07FFFFFC
0FC07FFC
1F801E3E
1F001E1E
3E001E1E
3C001E0E
7C001E0F
78001E0F
78001E0F
78001E0F
F8001E0F
F0001E0F
F0001E0F
F0001E0F
F0001E0F
F0001E0F
F0001E0F
F8001E0F
78001E0F
78001E0F
78001E0F
7C001E0F
3C001E0F
3E001E0F
1F001E0F
1F801E0F
0FC07E0F
07FFFC0F
03FFF80F
00FFE00F
000E0000
ENDCHAR
STARTCHAR 01A3
ENCODING 419
SWIDTH 675 0
DWIDTH 30 0
BBX 24 34 2 -9
BITMAP
007000
07FFF8
0FFFFC
1FFFFE
3E079F
3C038F
780387
780387
780387
F00387
F00387
F00387
F00387
F00387
F00387
F00387
F00387
780387
780387
780387
3C0387
3E0787
1FFF87
0FFF07
07FE07
006007
000007
000007
000007
000007
000007
000007
000007
000007
ENDCHAR
STARTCHAR 01A4
ENCODING 420
SWIDTH 585 0
DWIDTH 26 0
BBX 26 32 -2 0
BITMAP
0FFFF800
3FFFFE00
7FFFFF00
7FF07F80
F0F00F80
E0F007C0
E0F003C0
E0F003C0
E0F003C0
00F003C0
00F003C0
00F003C0
00F003C0
00F007C0
00F00FC0
00F07F80
00FFFF00
00FFFE00
00FFF800
00F00000
00F00000
00F00000
00F00000
00F00000
00F00000
00F00000
00F00000
00F00000
00F00000
00F00000
00F00000
00F00000
ENDCHAR
STARTCHAR 01A5
ENCODING 421
SWIDTH 562 0
DWIDTH 25 0
BBX 19 42 4 -9
BITMAP
3FE000
7FE000
7FE000
F00000
F00000
E00000
E00000
E00000
E06000
E3FC00
E7FE00
EFFF00
FC0F80
F80780
F803C0
F003C0
F001E0
E001E0
E001E0
E001E0
E001E0
E001E0
E001E0
E001E0
E001E0
F001E0
F003C0
F803C0
F80780
FC0F80
EFFF00
E7FE00
E3FC00
E06000
E00000
E00000
E00000
E00000
E00000
E00000
E00000
E00000
ENDCHAR
STARTCHAR 01A6
ENCODING 422
SWIDTH 630 0
DWIDTH 28 0
BBX 22 38 4 -6
BITMAP
F00000
F00000
F00000
F00000
F00000
F00000
FFFC00
FFFF00
FFFF80
F01F80
F007C0
F007C0
F003C0
F003C0
F003E0
F003E0
F003C0
F003C0
F003C0
F00780
F00F80
FFFF00
FFFC00
FFFE00
F03F00
F00F80
F00780
F003C0
F003C0
F001E0
F001E0
F001F0
0000F0
0000F0
000078
000078
00003C
00003C
ENDCHAR
STARTCHAR 01A7
ENCODING 423
SWIDTH 562 0
DWIDTH 25 0
BBX 21 34 2 -1
BITMAP
007800
1FFF00
3FFF80
3FFFE0
3C03E0
2001F0
0000F0
0000F0
000070
000078
0000F0
0000F0
0001F0
0007F0
007FE0
03FFC0
0FFF80
1FFE00
3FE000
7F0000
7C0000
F80000
F80000
F00000
F00000
F00000
F80000
780000
7C0030
3F01F0
3FFFF0
1FFFF0
07FFC0
007800
ENDCHAR
STARTCHAR 01A8
ENCODING 424
SWIDTH 472 0
DWIDTH 21 0
BBX 16 26 2 -1
BITMAP
0380
7FF8
7FFC
7FFE
601F
000F
0007
0007
0007
000F
003F
03FE
1FFC
3FF0
7F80
FC00
F000
F000
F000
F000
F000
7807
7FFF
3FFF
0FFE
00C0
ENDCHAR
STARTCHAR 01A9
ENCODING 425
SWIDTH 562 0
DWIDTH 25 0
BBX 19 32 4 0
BITMAP
FFFFC0
FFFFC0
FFFFC0
FFFFC0
780000
7C0000
3E0000
1F0000
0F0000
078000
03C000
03E000
01F000
00F800
007800
007800
00F800
01F000
01E000
03C000
07C000
078000
0F0000
1F0000
1E0000
3C0000
7C0000
F80000
FFFFE0
FFFFE0
FFFFE0
FFFFE0
ENDCHAR
STARTCHAR 01AA
ENCODING 426
SWIDTH 292 0
DWIDTH 13 0
BBX 19 42 -5 -9
BITMAP
3F8000
7FE000
FFE000
E0F000
E0F000
FFFF00
FFFF00
7FFF00
1FFF00
007000
007000
007000
007000
007000
007000
007000
007000
007000
007000
007000
007000
007000
007000
007000
007000
007000
007000
007000
007000
007000
007000
007000
007000
007000
007000
007000
007000
007800
007C00
003FE0
001FE0
000FE0
ENDCHAR
STARTCHAR 01AB
ENCODING 427
SWIDTH 360 0
DWIDTH 16 0
BBX 14 40 1 -9
BITMAP
1C00
1C00
1C00
1C00
1C00
1C00
1C00
FFFC
FFFC
FFFC
1C00
1C00
1C00
1C00
1C00
1C00
1C00
1C00
1C00
1C00
1C00
1C00
1C00
1C00
1C00
1C00
1E00
1F00
0FFC
0FFC
03FC
003C
003C
003C
0038
0078
00F8
03F0
03F0
03C0
ENDCHAR
STARTCHAR 01AC
ENCODING 428
SWIDTH 540 0
DWIDTH 24 0
BBX 24 32 0 0
BITMAP
0FFFFF
1FFFFF
3FFFFF
7FFFFF
783C00
703C00
F03C00
E03C00
E03C00
003C00
003C00
003C00
003C00
003C00
003C00
003C00
003C00
003C00
003C00
003C00
003C00
003C00
003C00
003C00
003C00
003C00
003C00
003C00
003C00
003C00
003C00
003C00
ENDCHAR
STARTCHAR 01AD
ENCODING 429
SWIDTH 360 0
DWIDTH 16 0
BBX 14 33 1 0
BITMAP
07F8
0FF8
0FF8
1E00
1E00
1C00
1C00
1C00
1C00
FFFC
FFFC
FFFC
1C00
1C00
1C00
1C00
1C00
1C00
1C00
1C00
1C00
1C00
1C00
1C00
1C00
1C00
1C00
1C00
1E00
1F00
0FFC
0FFC
03FC
ENDCHAR
STARTCHAR 01AE
ENCODING 430
SWIDTH 540 0
DWIDTH 24 0
BBX 24 41 0 -9
BITMAP
FFFFFF
FFFFFF
FFFFFF
FFFFFF
003C00
003C00
003C00
003C00
003C00
003C00
003C00
003C00
003C00
003C00
003C00
003C00
003C00
003C00
003C00
003C00
003C00
003C00
003C00
003C00
003C00
003C00
003C00
003C00
003C00
003C00
003C00
003C00
003C00
003C00
001E00
001E00
001F00
000FF0
000FF0
0007F0
0000F0
ENDCHAR
STARTCHAR 01AF
ENCODING 431
SWIDTH 765 0
DWIDTH 34 0
BBX 29 35 3 -1
BITMAP
00000030
00000030
F0001C38
F0001C38
F0001C30
F0001FF0
F0001FF0
F0001DE0
F0001C00
F0001C00
F0001C00
F0001C00
F0001C00
F0001C00
F0001C00
F0001C00
F0001C00
F0001C00
F0001C00
F0001C00
F0001C00
F0003C00
F0003C00
F0003C00
F0003C00
78003C00
78003C00
78003C00
7C007800
3E00F800
3F01F000
1FFFF000
0FFFE000
03FF8000
00380000
ENDCHAR
STARTCHAR 01B0
ENCODING 432
SWIDTH 562 0
DWIDTH 25 0
BBX 24 28 3 -1
BITMAP
000006
000007
000007
F001E7
F001E7
F001FF
F001FE
F001FC
F001E0
F001E0
F001E0
F001E0
F001E0
F001E0
F001E0
F001E0
F001E0
F001E0
F001E0
F001E0
7003E0
7803E0
7807E0
7C0FE0
3FFDE0
1FF9E0
0FF1E0
018000
ENDCHAR
STARTCHAR 01B1
ENCODING 433
SWIDTH 675 0
DWIDTH 30 0
BBX 28 33 1 -1
BITMAP
FFF0FFF0
FFF0FFF0
FFF0FFF0
FFF0FFF0
03E07C00
07C03E00
0F801F00
0F000F80
1E000780
1E0007C0
3C0003C0
3C0003E0
7C0001E0
780001E0
780001E0
780001E0
780001E0
780001E0
780001E0
780001E0
780001E0
780001E0
7C0001E0
3C0003E0
3C0003C0
1E0007C0
1F000F80
0F801F00
07E07F00
03FFFE00
01FFF800
007FF000
00060000
ENDCHAR
STARTCHAR 01B2
ENCODING 434
SWIDTH 652 0
DWIDTH 29 0
BBX 23 33 4 -1
BITMAP
F00000
F00000
F00000
F00000
F003C0
F003E0
F001E0
F000F0
F000F8
F00078
F0007C
F0003C
F0003C
F0001E
F0001E
F0001E
F0001E
F0001E
F0001E
F0001E
F0001E
F0001E
F0003C
F0003C
F0007C
F00078
F000F8
7801F0
7C07E0
3FFFC0
3FFF80
0FFE00
01F000
ENDCHAR
STARTCHAR 01B3
ENCODING 435
SWIDTH 652 0
DWIDTH 29 0
BBX 29 33 0 0
BITMAP
00000300
F0000FE0
78001FF0
7C003FF8
3C003C78
1E007838
1F007838
0F00F038
0781F038
0781E000
03C3C000
03E3C000
01E78000
00FF8000
00FF0000
007E0000
007E0000
003C0000
003C0000
003C0000
003C0000
003C0000
003C0000
003C0000
003C0000
003C0000
003C0000
003C0000
003C0000
003C0000
003C0000
003C0000
003C0000
ENDCHAR
STARTCHAR 01B4
ENCODING 436
SWIDTH 652 0
DWIDTH 29 0
BBX 28 34 1 -9
BITMAP
00000600
F0003F80
78007FC0
78007FE0
3800F9E0
3C00F0F0
3C01E0F0
1C01E0F0
1E01E0F0
1E03C0F0
0E03C000
0F038000
0F078000
07078000
07870000
038F0000
03CF0000
03CE0000
01DE0000
01FE0000
01FC0000
00FC0000
00F80000
00780000
00780000
00700000
00F00000
00F00000
01E00000
01E00000
03C00000
3FC00000
3F800000
3F000000
ENDCHAR
STARTCHAR 01B5
ENCODING 437
SWIDTH 607 0
DWIDTH 27 0
BBX 23 32 2 0
BITMAP
FFFFFE
FFFFFE
FFFFFE
FFFFFE
00007C
000078
0000F8
0001F0
0003E0
0003C0
0007C0
000F80
000F00
001E00
1FFFF8
1FFFF8
1FFFF8
00F800
01F000
03E000
03C000
07C000
0F8000
0F0000
1E0000
3E0000
7C0000
780000
FFFFFE
FFFFFE
FFFFFE
FFFFFE
ENDCHAR
STARTCHAR 01B6
ENCODING 438
SWIDTH 472 0
DWIDTH 21 0
BBX 17 24 2 0
BITMAP
FFFF80
FFFF80
FFFF80
000780
000F00
001F00
003E00
003C00
007800
00F000
7FFF00
7FFF00
7FFF00
078000
0F8000
1F0000
1E0000
3C0000
7C0000
F80000
F00000
FFFF80
FFFF80
FFFF80
ENDCHAR
STARTCHAR 01B7
ENCODING 439
SWIDTH 585 0
DWIDTH 26 0
BBX 22 33 3 -1
BITMAP
FFFFF0
FFFFF0
FFFFF0
FFFFF0
0003E0
0003C0
000780
000F80
000F00
001E00
003C00
007C00
007800
00F000
00FE00
00FF80
00FFE0
000FE0
0001F0
0000F8
000078
000078
00003C
00003C
00003C
000078
000078
0000F8
6001F0
7E0FF0
7FFFE0
7FFFC0
1FFF00
ENDCHAR
STARTCHAR 01B8
ENCODING 440
SWIDTH 585 0
DWIDTH 26 0
BBX 21 33 2 -1
BITMAP
7FFFF8
7FFFF8
7FFFF8
3FFFF8
3E0000
1F0000
0F0000
078000
07C000
03E000
01E000
00F000
00F800
007800
03FC00
0FFC00
1FFC00
3FC000
7C0000
780000
F00000
F00000
F00000
F00000
F00000
F00000
F00000
F80000
7C0018
3FC3F8
3FFFF8
0FFFF8
03FFC0
ENDCHAR
STARTCHAR 01B9
ENCODING 441
SWIDTH 517 0
DWIDTH 23 0
BBX 19 33 2 -9
BITMAP
3FFFE0
3FFFE0
3FFFE0
3C0000
3E0000
1F0000
0F0000
078000
03C000
03E000
01E000
00F000
007800
007C00
03FC00
0FFC00
1FFC00
3FC000
7C0000
780000
F80000
F00000
F00000
F00000
F00000
F00000
F80000
780000
7C0060
3FC3E0
1FFFE0
0FFFE0
03FF80
ENDCHAR
STARTCHAR 01BA
ENCODING 442
SWIDTH 472 0
DWIDTH 21 0
BBX 17 33 2 -9
BITMAP
FFFF80
FFFF80
FFFF80
000780
000F00
001F00
003E00
003C00
007800
00F000
01F000
01E000
03E000
07FE00
0FFF00
001F80
000780
000380
000380
000780
003F00
03FF00
1FFC00
3FF000
7E0000
780000
700000
700000
780080
7E0780
3FFF80
1FFF80
07FE00
ENDCHAR
STARTCHAR 01BB
ENCODING 443
SWIDTH 562 0
DWIDTH 25 0
BBX 18 33 3 0
BITMAP
03C000
1FF800
FFFE00
FFFF00
F81F80
E00F80
8007C0
0003C0
0003C0
0003C0
0003C0
0003C0
0003C0
000780
000780
000F00
001F00
3FFF80
3FFF80
3FFF80
00F000
01E000
03E000
07C000
0F8000
1F0000
3E0000
3C0000
780000
FFFFC0
FFFFC0
FFFFC0
FFFFC0
ENDCHAR
STARTCHAR 01BC
ENCODING 444
SWIDTH 585 0
DWIDTH 26 0
BBX 23 33 2 -1
BITMAP
3FFFF0
3FFFF0
3FFFF0
3FFFF0
3C0000
3C0000
3C0000
3C0000
3C0000
3C0000
3C0000
3C0000
3C0000
3C0000
3FFF80
3FFFC0
3FFFF0
0007F8
0000F8
00007C
00003C
00003C
00001E
F0001E
F0001E
F0003C
F0003C
F8007C
7C00F8
3FC7F8
3FFFF0
0FFFE0
03FF80
ENDCHAR
STARTCHAR 01BD
ENCODING 445
SWIDTH 517 0
DWIDTH 23 0
BBX 19 33 2 -9
BITMAP
3FFF80
3FFF80
3FFF80
3FFF80
380000
380000
380000
380000
380000
380000
380000
380000
380000
380000
3FF800
3FFE00
3FFF00
007F80
0007C0
0003C0
0003E0
0001E0
0001E0
0001E0
0001E0
0001E0
0003E0
0003C0
C007C0
F87F80
FFFF00
FFFE00
3FF800
ENDCHAR
STARTCHAR 01BE
ENCODING 446
SWIDTH 450 0
DWIDTH 20 0
BBX 16 32 2 -1
BITMAP
0780
0780
0780
0780
0780
0780
FFF8
FFF8
FFF8
FFF8
0780
0780
0780
07F0
07F8
01FC
003E
001E
000F
000F
000F
000F
000F
000F
000F
001E
001E
C07C
FFFC
FFF8
FFE0
0600
ENDCHAR
STARTCHAR 01BF
ENCODING 447
SWIDTH 562 0
DWIDTH 25 0
BBX 19 34 4 -9
BITMAP
001C00
E1FF00
E7FF80
EFFFC0
FF07C0
FE03E0
F801E0
F001E0
F001E0
E001E0
E001E0
E001E0
E001C0
E003C0
E00780
E00780
E00F00
E01E00
E03C00
E07800
E1F000
E3E000
E7C000
FF8000
FF0000
FC0000
F80000
E00000
E00000
E00000
E00000
E00000
E00000
E00000
ENDCHAR
STARTCHAR 01C0
ENCODING 448
SWIDTH 270 0
DWIDTH 12 0
BBX 4 41 4 -9
BITMAP
F0
F0
F0
F0
F0
F0
F0
F0
F0
F0
F0
F0
F0
F0
F0
F0
F0
F0
F0
F0
F0
F0
F0
F0
F0
F0
F0
F0
F0
F0
F0
F0
F0
F0
F0
F0
F0
F0
F0
F0
F0
ENDCHAR
STARTCHAR 01C1
ENCODING 449
SWIDTH 427 0
DWIDTH 19 0
BBX 12 41 4 -9
BITMAP
F0F0
F0F0
F0F0
F0F0
F0F0
F0F0
F0F0
F0F0
F0F0
F0F0
F0F0
F0F0
F0F0
F0F0
F0F0
F0F0
F0F0
F0F0
F0F0
F0F0
F0F0
F0F0
F0F0
F0F0
F0F0
F0F0
F0F0
F0F0
F0F0
F0F0
F0F0
F0F0
F0F0
F0F0
F0F0
F0F0
F0F0
F0F0
F0F0
F0F0
F0F0
ENDCHAR
STARTCHAR 01C2
ENCODING 450
SWIDTH 405 0
DWIDTH 18 0
BBX 18 41 0 -9
BITMAP
01E000
01E000
01E000
01E000
01E000
01E000
01E000
01E000
01E000
01E000
01E000
01E000
01E000
FFFFC0
FFFFC0
FFFFC0
FFFFC0
01E000
01E000
01E000
01E000
01E000
FFFFC0
FFFFC0
FFFFC0
FFFFC0
01E000
01E000
01E000
01E000
01E000
01E000
01E000
01E000
01E000
01E000
01E000
01E000
01E000
01E000
01E000
ENDCHAR
STARTCHAR 01C3
ENCODING 451
SWIDTH 270 0
DWIDTH 12 0
BBX 4 32 4 0
BITMAP
F0
F0
F0
F0
F0
F0
F0
F0
F0
F0
F0
F0
F0
F0
F0
F0
F0
F0
F0
F0
F0
E0
00
00
00
00
00
F0
F0
F0
F0
F0
ENDCHAR
STARTCHAR 01C4
ENCODING 452
SWIDTH 1260 0
DWIDTH 56 0
BBX 50 41 4 0
BITMAP
00000000E06000
0000000070E000
0000000039C000
000000003B8000
000000001F8000
000000000F0000
00000000000000
00000000000000
00000000000000
FFFC003FFFFF80
FFFF803FFFFF80
FFFFE03FFFFF80
F07FF03FFFFF80
F003F800000F00
F000FC00001E00
F0007C00003E00
F0003E00007C00
F0001E00007800
F0001E0000F800
F0001F0001F000
F0000F0003E000
F0000F0003C000
F0000F0007C000
F0000F000F8000
F0000F000F0000
F0000F001E0000
F0000F003E0000
F0000F007C0000
F0000F00780000
F0000F00F80000
F0001F01F00000
F0001E03E00000
F0001E03C00000
F0003E07C00000
F0007C0F800000
F000FC0F000000
F003F81E000000
FFFFF03FFFFFC0
FFFFC03FFFFFC0
FFFF803FFFFFC0
FFF8003FFFFFC0
ENDCHAR
STARTCHAR 01C5
ENCODING 453
SWIDTH 1147 0
DWIDTH 51 0
BBX 44 35 4 0
BITMAP
000000030380
000000038300
00000001C700
FFFC0001CE00
FFFF8000EE00
FFFFE000FC00
F07FF0007C00
F003F8003800
F000FC000000
F0007C000000
F0003E000000
F0001E1FFFF0
F0001E1FFFF0
F0001F1FFFF0
F0000F0000F0
F0000F0001E0
F0000F0003C0
F0000F0007C0
F0000F000780
F0000F000F00
F0000F001E00
F0000F003E00
F0000F007C00
F0000F007800
F0001F00F000
F0001E01F000
F0001E03E000
F0003E03C000
F0007C078000
F000FC0F0000
F003F81F0000
FFFFF01E0000
FFFFC01FFFF0
FFFF801FFFF0
FFF8001FFFF0
ENDCHAR
STARTCHAR 01C6
ENCODING 454
SWIDTH 1035 0
DWIDTH 46 0
BBX 40 36 2 -1
BITMAP
000000381C
0000001838
0000F01C70
0000F00E70
0000F00EE0
0000F007E0
0000F007C0
0000F00380
0000F00000
0000F00000
00C0F00000
07F8F1FFFF
0FFCF1FFFF
1FFEF1FFFF
3E07F0000F
3C03F0001F
7801F0001E
7801F0003C
7001F00078
F000F000F8
F000F001F0
F000F001E0
F000F003C0
F000F00780
F000F00F80
F000F00F00
F000F01E00
7001F03C00
7801F07C00
7801F0F800
3C03F0F000
3E07F1E000
1FFEF1FFFF
0FFCF1FFFF
07F8F1FFFF
00C0000000
ENDCHAR
STARTCHAR 01C7
ENCODING 455
SWIDTH 742 0
DWIDTH 33 0
BBX 26 41 4 -9
BITMAP
F00003C0
F00003C0
F00003C0
F00003C0
F00003C0
F00003C0
F00003C0
F00003C0
F00003C0
F00003C0
F00003C0
F00003C0
F00003C0
F00003C0
F00003C0
F00003C0
F00003C0
F00003C0
F00003C0
F00003C0
F00003C0
F00003C0
F00003C0
F00003C0
F00003C0
F00003C0
F00003C0
F00003C0
FFFFC3C0
FFFFC3C0
FFFFC3C0
FFFFC3C0
000003C0
000003C0
000003C0
000007C0
00000F80
00007F80
00007F00
00007E00
00007800
ENDCHAR
STARTCHAR 01C8
ENCODING 456
SWIDTH 697 0
DWIDTH 31 0
BBX 25 42 4 -9
BITMAP
00000780
F0000780
F0000780
F0000780
F0000780
F0000000
F0000000
F0000000
F0000000
F0000780
F0000780
F0000780
F0000780
F0000780
F0000780
F0000780
F0000780
F0000780
F0000780
F0000780
F0000780
F0000780
F0000780
F0000780
F0000780
F0000780
F0000780
F0000780
F0000780
FFFFC780
FFFFC780
FFFFC780
FFFFC780
00000780
00000780
00000780
00000780
00000780
00000F00
00007F00
00007E00
00007C00
ENDCHAR
STARTCHAR 01C9
ENCODING 457
SWIDTH 405 0
DWIDTH 18 0
BBX 11 42 4 -9
BITMAP
E1E0
E1E0
E1E0
E1E0
E1E0
E000
E000
E000
E000
E1E0
E1E0
E1E0
E1E0
E1E0
E1E0
E1E0
E1E0
E1E0
E1E0
E1E0
E1E0
E1E0
E1E0
E1E0
E1E0
E1E0
E1E0
E1E0
E1E0
E1E0
E1E0
E1E0
E1E0
01E0
01C0
01C0
01C0
03C0
07C0
1F80
1F80
1E00
ENDCHAR
STARTCHAR 01CA
ENCODING 458
SWIDTH 832 0
DWIDTH 37 0
BBX 30 41 4 -9
BITMAP
F8003C3C
FC003C3C
FC003C3C
FE003C3C
FE003C3C
FF003C3C
FF003C3C
F7803C3C
F7803C3C
F3C03C3C
F3C03C3C
F1E03C3C
F1E03C3C
F0F03C3C
F0F03C3C
F0783C3C
F0783C3C
F03C3C3C
F03C3C3C
F01E3C3C
F01E3C3C
F01E3C3C
F00F3C3C
F00F3C3C
F007BC3C
F007BC3C
F003FC3C
F003FC3C
F001FC3C
F001FC3C
F000FC3C
F000FC3C
0000003C
0000003C
0000003C
0000007C
000000F8
000007F8
000007F0
000007E0
00000780
ENDCHAR
STARTCHAR 01CB
ENCODING 459
SWIDTH 832 0
DWIDTH 37 0
BBX 29 42 4 -9
BITMAP
00000038
F8003C38
FC003C38
FC003C38
FE003C38
FE003C00
FF003C00
FF003C00
F7803C00
F7803C38
F3C03C38
F3C03C38
F1E03C38
F1E03C38
F0F03C38
F0F03C38
F0783C38
F0783C38
F03C3C38
F03C3C38
F01E3C38
F01E3C38
F01E3C38
F00F3C38
F00F3C38
F007BC38
F007BC38
F003FC38
F003FC38
F001FC38
F001FC38
F000FC38
F000FC38
00000038
00000038
00000038
00000078
00000078
000000F0
000007F0
000007E0
000007C0
ENDCHAR
STARTCHAR 01CC
ENCODING 460
SWIDTH 720 0
DWIDTH 32 0
BBX 25 42 4 -9
BITMAP
00000780
00000780
00000780
00000780
00000780
00000000
00000000
00000000
00700000
E3FC0780
E7FE0780
EFFF0780
FC0F8780
F8078780
F0078780
F003C780
F003C780
E003C780
E003C780
E003C780
E003C780
E003C780
E003C780
E003C780
E003C780
E003C780
E003C780
E003C780
E003C780
E003C780
E003C780
E003C780
E003C780
00000780
00000780
00000780
00000780
00000780
00000F00
00007F00
00007E00
00007C00
ENDCHAR
STARTCHAR 01CD
ENCODING 461
SWIDTH 607 0
DWIDTH 27 0
BBX 27 41 0 0
BITMAP
00E06000
0060E000
0071C000
003B8000
001F0000
001F0000
00000000
00000000
00000000
001F0000
001F0000
003F8000
003F8000
003B8000
007BC000
007BC000
0071C000
00F1E000
00F1E000
00E0E000
01E0F000
01E0F000
01C07000
03C07800
03C07800
03803800
07803C00
07803C00
07001C00
0FFFFE00
0FFFFE00
0FFFFF00
1FFFFF00
1E000F00
1E000780
3C000780
3C000780
7C0003C0
780003C0
780003C0
F80001E0
ENDCHAR
STARTCHAR 01CE
ENCODING 462
SWIDTH 540 0
DWIDTH 24 0
BBX 19 36 2 -1
BITMAP
0E0600
0E0E00
071C00
039C00
03B800
01F000
01F000
00E000
000000
000000
00E000
1FFC00
3FFF00
3FFF80
300F80
0003C0
0003C0
0001C0
0001C0
0001E0
07FFE0
1FFFE0
3FFFE0
7E01E0
7801E0
7001E0
F001E0
F001E0
F003E0
F003E0
7807E0
7C0FE0
3FFDE0
3FF9E0
1FF1E0
038000
ENDCHAR
STARTCHAR 01CF
ENCODING 463
SWIDTH 270 0
DWIDTH 12 0
BBX 12 41 0 0
BITMAP
E070
70E0
39C0
3B80
1F80
0F00
0000
0000
0000
0F00
0F00
0F00
0F00
0F00
0F00
0F00
0F00
0F00
0F00
0F00
0F00
0F00
0F00
0F00
0F00
0F00
0F00
0F00
0F00
0F00
0F00
0F00
0F00
0F00
0F00
0F00
0F00
0F00
0F00
0F00
0F00
ENDCHAR
STARTCHAR 01D0
ENCODING 464
SWIDTH 247 0
DWIDTH 11 0
BBX 11 35 0 0
BITMAP
E060
E0E0
71C0
39C0
3B80
1F00
1F00
0E00
0000
0000
0000
0E00
0E00
0E00
0E00
0E00
0E00
0E00
0E00
0E00
0E00
0E00
0E00
0E00
0E00
0E00
0E00
0E00
0E00
0E00
0E00
0E00
0E00
0E00
0E00
ENDCHAR
STARTCHAR 01D1
ENCODING 465
SWIDTH 697 0
DWIDTH 31 0
BBX 27 42 2 -1
BITMAP
00E06000
0070E000
0071C000
003B8000
001F0000
000F0000
00000000
00000000
000E0000
00FFE000
03FFF800
07FFFC00
0FC07E00
1F801F00
1F000F00
3E000F80
3C000780
7C0003C0
780003C0
780003C0
780003E0
F80001E0
F00001E0
F00001E0
F00001E0
F00001E0
F00001E0
F00001E0
F80001E0
780003E0
780003C0
780003C0
7C0007C0
3C000780
3E000F80
1F000F00
1F801F00
0FC07E00
07FFFC00
03FFF800
00FFE000
000E0000
ENDCHAR
STARTCHAR 01D2
ENCODING 466
SWIDTH 540 0
DWIDTH 24 0
BBX 20 36 2 -1
BITMAP
0E0700
070600
030E00
039C00
01DC00
01F800
00F000
007000
000000
000000
007000
07FE00
0FFF00
1FFF80
3E07C0
3C03E0
7801E0
7801E0
7800F0
F000F0
F000F0
F000F0
F000F0
F000F0
F000F0
F000F0
F000F0
7800F0
7801E0
7801E0
3C03E0
3E07C0
1FFF80
0FFF00
07FE00
006000
ENDCHAR
STARTCHAR 01D3
ENCODING 467
SWIDTH 652 0
DWIDTH 29 0
BBX 23 42 3 -1
BITMAP
038180
01C380
01C700
00EE00
007C00
003C00
000000
000000
000000
F0001E
F0001E
F0001E
F0001E
F0001E
F0001E
F0001E
F0001E
F0001E
F0001E
F0001E
F0001E
F0001E
F0001E
F0001E
F0001E
F0001E
F0001E
F0001E
F0001E
F0001E
F0001E
78003C
78003C
78003C
78003C
7C0078
3E00F8
1F01F0
1FFFF0
0FFFE0
03FF80
003800
ENDCHAR
STARTCHAR 01D4
ENCODING 468
SWIDTH 562 0
DWIDTH 25 0
BBX 19 36 3 -1
BITMAP
1C0E00
0E0C00
061C00
073800
03B800
03F000
01E000
00E000
000000
000000
000000
F001E0
F001E0
F001E0
F001E0
F001E0
F001E0
F001E0
F001E0
F001E0
F001E0
F001E0
F001E0
F001E0
F001E0
F001E0
F001E0
F001E0
7003E0
7803E0
7807E0
7C0FE0
3FFDE0
1FF9E0
0FF1E0
018000
ENDCHAR
STARTCHAR 01D5
ENCODING 469
SWIDTH 652 0
DWIDTH 29 0
BBX 23 46 3 -1
BITMAP
03FF80
03FF80
03FF80
000000
000000
000000
03C780
03C780
03C780
03C780
000000
000000
000000
F0001E
F0001E
F0001E
F0001E
F0001E
F0001E
F0001E
F0001E
F0001E
F0001E
F0001E
F0001E
F0001E
F0001E
F0001E
F0001E
F0001E
F0001E
F0001E
F0001E
F0001E
F0001E
78003C
78003C
78003C
78003C
7C0078
3E00F8
1F01F0
1FFFF0
0FFFE0
03FF80
003800
ENDCHAR
STARTCHAR 01D6
ENCODING 470
SWIDTH 562 0
DWIDTH 25 0
BBX 19 41 3 -1
BITMAP
0FFE00
0FFE00
0FFE00
000000
000000
000000
000000
0E1E00
0E1E00
0E1E00
0E1E00
000000
000000
000000
000000
000000
F001E0
F001E0
F001E0
F001E0
F001E0
F001E0
F001E0
F001E0
F001E0
F001E0
F001E0
F001E0
F001E0
F001E0
F001E0
F001E0
F001E0
7003E0
7803E0
7807E0
7C0FE0
3FFDE0
1FF9E0
0FF1E0
018000
ENDCHAR
STARTCHAR 01D7
ENCODING 471
SWIDTH 652 0
DWIDTH 29 0
BBX 23 47 3 -1
BITMAP
000780
000700
000E00
001E00
001C00
003800
000000
03C780
03C780
03C780
03C780
000000
000000
000000
F0001E
F0001E
F0001E
F0001E
F0001E
F0001E
F0001E
F0001E
F0001E
F0001E
F0001E
F0001E
F0001E
F0001E
F0001E
F0001E
F0001E
F0001E
F0001E
F0001E
F0001E
F0001E
78003C
78003C
78003C
78003C
7C0078
3E00F8
1F01F0
1FFFF0
0FFFE0
03FF80
003800
ENDCHAR
STARTCHAR 01D8
ENCODING 472
SWIDTH 562 0
DWIDTH 25 0
BBX 19 40 3 -1
BITMAP
001E00
003C00
003800
007000
00F000
00E000
000000
0E1E00
0E1E00
0E1E00
0E1E00
000000
000000
000000
000000
F001E0
F001E0
F001E0
F001E0
F001E0
F001E0
F001E0
F001E0
F001E0
F001E0
F001E0
F001E0
F001E0
F001E0
F001E0
F001E0
F001E0
7003E0
7803E0
7807E0
7C0FE0
3FFDE0
1FF9E0
0FF1E0
018000
ENDCHAR
STARTCHAR 01D9
ENCODING 473
SWIDTH 652 0
DWIDTH 29 0
BBX 23 47 3 -1
BITMAP
038380
018300
01C700
00EE00
007C00
007C00
000000
03C780
03C780
03C780
03C780
000000
000000
000000
F0001E
F0001E
F0001E
F0001E
F0001E
F0001E
F0001E
F0001E
F0001E
F0001E
F0001E
F0001E
F0001E
F0001E
F0001E
F0001E
F0001E
F0001E
F0001E
F0001E
F0001E
F0001E
78003C
78003C
78003C
78003C
7C0078
3E00F8
1F01F0
1FFFF0
0FFFE0
03FF80
003800
ENDCHAR
STARTCHAR 01DA
ENCODING 474
SWIDTH 562 0
DWIDTH 25 0
BBX 19 40 3 -1
BITMAP
0C0E00
0E1C00
071C00
03B800
01F000
01E000
000000
0F1E00
0F1E00
0F1E00
0F1E00
000000
000000
000000
000000
F001E0
F001E0
F001E0
F001E0
F001E0
F001E0
F001E0
F001E0
F001E0
F001E0
F001E0
F001E0
F001E0
F001E0
F001E0
F001E0
F001E0
7003E0
7803E0
7807E0
7C0FE0
3FFDE0
1FF9E0
0FF1E0
018000
ENDCHAR
STARTCHAR 01DB
ENCODING 475
SWIDTH 652 0
DWIDTH 29 0
BBX 23 47 3 -1
BITMAP
03C000
01C000
00E000
00F000
007000
003800
000000
03C780
03C780
03C780
03C780
000000
000000
000000
F0001E
F0001E
F0001E
F0001E
F0001E
F0001E
F0001E
F0001E
F0001E
F0001E
F0001E
F0001E
F0001E
F0001E
F0001E
F0001E
F0001E
F0001E
F0001E
F0001E
F0001E
F0001E
78003C
78003C
78003C
78003C
7C0078
3E00F8
1F01F0
1FFFF0
0FFFE0
03FF80
003800
ENDCHAR
STARTCHAR 01DC
ENCODING 476
SWIDTH 562 0
DWIDTH 25 0
BBX 19 40 3 -1
BITMAP
0E0000
070000
078000
038000
01C000
00E000
000000
0E1E00
0E1E00
0E1E00
0E1E00
000000
000000
000000
000000
F001E0
F001E0
F001E0
F001E0
F001E0
F001E0
F001E0
F001E0
F001E0
F001E0
F001E0
F001E0
F001E0
F001E0
F001E0
F001E0
F001E0
7003E0
7803E0
7807E0
7C0FE0
3FFDE0
1FF9E0
0FF1E0
018000
ENDCHAR
STARTCHAR 01DD
ENCODING 477
SWIDTH 540 0
DWIDTH 24 0
BBX 20 26 2 -1
BITMAP
00E000
1FFC00
7FFF00
7FFF80
700FC0
4003E0
0001E0
0001E0
0000F0
0000F0
0000F0
0000F0
FFFFF0
FFFFF0
FFFFF0
F000F0
F000F0
F000F0
7000E0
7801E0
7C03E0
3E07C0
1FFF80
0FFF00
07FE00
00E000
ENDCHAR
STARTCHAR 01DE
ENCODING 478
SWIDTH 607 0
DWIDTH 27 0
BBX 27 45 0 0
BITMAP
00FFE000
00FFE000
00FFE000
00000000
00000000
00000000
00F1E000
00F1E000
00F1E000
00F1E000
00000000
00000000
00000000
001F0000
001F0000
003F8000
003F8000
003B8000
007BC000
007BC000
0071C000
00F1E000
00F1E000
00E0E000
01E0F000
01E0F000
01C07000
03C07800
03C07800
03803800
07803C00
07803C00
07001C00
0FFFFE00
0FFFFE00
0FFFFF00
1FFFFF00
1E000F00
1E000780
3C000780
3C000780
7C0003C0
780003C0
780003C0
F80001E0
ENDCHAR
STARTCHAR 01DF
ENCODING 479
SWIDTH 540 0
DWIDTH 24 0
BBX 19 41 2 -1
BITMAP
0FFE00
0FFE00
0FFE00
000000
000000
000000
000000
0F1E00
0F1E00
0F1E00
0F1E00
000000
000000
000000
000000
00E000
1FFC00
3FFF00
3FFF80
300F80
0003C0
0003C0
0001C0
0001C0
0001E0
07FFE0
1FFFE0
3FFFE0
7E01E0
7801E0
7001E0
F001E0
F001E0
F003E0
F003E0
7807E0
7C0FE0
3FFDE0
3FF9E0
1FF1E0
038000
ENDCHAR
STARTCHAR 01E0
ENCODING 480
SWIDTH 607 0
DWIDTH 27 0
BBX 27 45 0 0
BITMAP
00FFE000
00FFE000
00FFE000
00000000
00000000
00000000
000F0000
000F0000
000F0000
000F0000
00000000
00000000
00000000
001F0000
001F0000
003F8000
003F8000
003B8000
007BC000
007BC000
0071C000
00F1E000
00F1E000
00E0E000
01E0F000
01E0F000
01C07000
03C07800
03C07800
03803800
07803C00
07803C00
07001C00
0FFFFE00
0FFFFE00
0FFFFF00
1FFFFF00
1E000F00
1E000780
3C000780
3C000780
7C0003C0
780003C0
780003C0
F80001E0
ENDCHAR
STARTCHAR 01E1
ENCODING 481
SWIDTH 540 0
DWIDTH 24 0
BBX 19 39 2 -1
BITMAP
0FFE00
0FFE00
0FFE00
000000
000000
000000
01E000
01E000
01E000
01E000
000000
000000
000000
00E000
1FFC00
3FFF00
3FFF80
300F80
0003C0
0003C0
0001C0
0001C0
0001E0
07FFE0
1FFFE0
3FFFE0
7E01E0
7801E0
7001E0
F001E0
F001E0
F003E0
F003E0
7807E0
7C0FE0
3FFDE0
3FF9E0
1FF1E0
038000
ENDCHAR
STARTCHAR 01E2
ENCODING 482
SWIDTH 877 0
DWIDTH 39 0
BBX 36 40 0 0
BITMAP
00003FFC00
00003FFC00
00003FFC00
0000000000
0000000000
0000000000
0000000000
0000000000
000FFFFFF0
000FFFFFF0
001FFFFFF0
001E7FFFF0
001C780000
003C780000
003C780000
0078780000
0078780000
0078780000
00F0780000
00F0780000
01E0780000
01E07FFFE0
01E07FFFE0
03C07FFFE0
03C07FFFE0
03C0780000
0780780000
0780780000
0FFFF80000
0FFFF80000
0FFFF80000
1FFFF80000
1E00780000
1E00780000
3C00780000
3C00780000
78007FFFF0
78007FFFF0
78007FFFF0
F0007FFFF0
ENDCHAR
STARTCHAR 01E3
ENCODING 483
SWIDTH 877 0
DWIDTH 39 0
BBX 35 34 2 -1
BITMAP
000FFE0000
000FFE0000
000FFE0000
0000000000
0000000000
0000000000
0000000000
0000000000
00E000E000
1FFC0FFC00
3FFF1FFE00
3FFFBFFF00
300FFC0F80
0003F80780
0003F003C0
0001E001C0
0001E001C0
0001E001E0
07FFE001E0
1FFFFFFFE0
3FFFFFFFE0
7E01FFFFE0
7801C00000
7001E00000
F001E00000
F001E00000
F003F00000
F003F00000
7807F80040
7C0F7C01C0
3FFE3FFFC0
3FFC1FFFC0
0FF807FF00
0380006000
ENDCHAR
STARTCHAR 01E4
ENCODING 484
SWIDTH 697 0
DWIDTH 31 0
BBX 28 34 2 -1
BITMAP
00078000
00FFF800
01FFFE00
07FFFF80
0FE01F80
1F800780
1F000180
3E000080
3C000000
7C000000
78000000
78000000
78000000
F8000000
F0000000
F0000000
F001FF80
F001FF80
F001FF80
F001FF80
F8000380
78000380
78000380
78007FF0
7C007FF0
3C000380
3E000380
1F000380
1F800780
0FE01F80
07FFFF80
01FFFE00
007FF800
00070000
ENDCHAR
STARTCHAR 01E5
ENCODING 485
SWIDTH 562 0
DWIDTH 25 0
BBX 23 34 2 -9
BITMAP
00C000
07F8F0
0FFEF0
1FFEF0
3E07F0
3C03F0
7801F0
7801F0
7001F0
F000F0
F000F0
F000F0
F000F0
F000F0
F000F0
F000F0
7000F0
7801F0
7801F0
7C03F0
3E07F0
1F1FF0
1FFEF0
0FFCF0
03F0E0
0000E0
1FFFFE
1FFFFE
0003E0
1003C0
1C0FC0
1FFF80
1FFF00
07FC00
ENDCHAR
STARTCHAR 01E6
ENCODING 486
SWIDTH 697 0
DWIDTH 31 0
BBX 25 42 2 -1
BITMAP
00607000
0070E000
0038E000
001DC000
001F8000
000F0000
00000000
00000000
00078000
00FFF800
01FFFE00
07FFFF80
0FE01F80
1F800780
1F000180
3E000080
3C000000
7C000000
78000000
78000000
78000000
F8000000
F0000000
F0000000
F001FF80
F001FF80
F001FF80
F001FF80
F8000380
78000380
78000380
78000380
7C000380
3C000380
3E000380
1F000380
1F800780
0FE01F80
07FFFF80
01FFFE00
007FF800
00070000
ENDCHAR
STARTCHAR 01E7
ENCODING 487
SWIDTH 562 0
DWIDTH 25 0
BBX 20 44 2 -9
BITMAP
0C0E00
0E0E00
071C00
073800
03B800
03F000
01F000
00E000
000000
000000
00C000
07F8F0
0FFEF0
1FFEF0
3E07F0
3C03F0
7801F0
7801F0
7001F0
F000F0
F000F0
F000F0
F000F0
F000F0
F000F0
F000F0
7000F0
7801F0
7801F0
7C03F0
3E07F0
1F1FF0
1FFEF0
0FFCF0
03F0E0
0000E0
0001E0
0001E0
0001E0
1003C0
1C0FC0
1FFF80
1FFF00
07FC00
ENDCHAR
STARTCHAR 01E8
ENCODING 488
SWIDTH 585 0
DWIDTH 26 0
BBX 22 41 4 0
BITMAP
1C0E00
0E1C00
073800
03F800
03F000
01E000
000000
000000
000000
F000F8
F001F0
F003E0
F007C0
F00F80
F01F00
F03F00
F07E00
F07C00
F0F800
F1F000
F3E000
F7C000
FF8000
FF0000
FF0000
FF8000
F7C000
F3E000
F3F000
F1F000
F0F800
F07C00
F03E00
F01F00
F00F80
F007C0
F003E0
F001F0
F001F8
F000F8
F0007C
ENDCHAR
STARTCHAR 01E9
ENCODING 489
SWIDTH 517 0
DWIDTH 23 0
BBX 22 41 0 0
BITMAP
E0E000
60C000
71C000
3B8000
1F0000
1F0000
000000
000000
0E0000
0E0000
0E0000
0E0000
0E0000
0E0000
0E0000
0E0000
0E0000
0E007C
0E00F8
0E01F0
0E03E0
0E07C0
0E0F80
0E1F00
0E3E00
0E7C00
0EF800
0FF000
0FE000
0FF000
0EF800
0E7C00
0E3E00
0E1F00
0E0F80
0E07C0
0E03E0
0E01F0
0E00F0
0E0078
0E003C
ENDCHAR
STARTCHAR 01EA
ENCODING 490
SWIDTH 697 0
DWIDTH 31 0
BBX 27 41 2 -8
BITMAP
000E0000
00FFE000
03FFF800
07FFFC00
0FC07E00
1F801F00
1F000F00
3E000F80
3C000780
7C0003C0
780003C0
780003C0
780003E0
F80001E0
F00001E0
F00001E0
F00001E0
F00001E0
F00001E0
F00001E0
F80001E0
780003E0
780003C0
780003C0
7C0007C0
3C000780
3E000F80
1F000F00
1F801F00
0FC07E00
07FFFC00
03FFF800
00FFE000
000E0000
001C0000
00180000
00180000
00380000
003C4000
001FC000
001FC000
ENDCHAR
STARTCHAR 01EB
ENCODING 491
SWIDTH 540 0
DWIDTH 24 0
BBX 20 33 2 -8
BITMAP
007000
07FE00
0FFF00
1FFF80
3E07C0
3C03E0
7801E0
7801E0
7800F0
F000F0
F000F0
F000F0
F000F0
F000F0
F000F0
F000F0
F000F0
7800F0
7801E0
7801E0
3C03E0
3E07C0
1FFF80
0FFF00
07FE00
006000
00C000
01C000
01C000
01C000
01E400
01FC00
00FC00
ENDCHAR
STARTCHAR 01EC
ENCODING 492
SWIDTH 697 0
DWIDTH 31 0
BBX 27 48 2 -8
BITMAP
00FFE000
00FFE000
00FFE000
00000000
00000000
00000000
00000000
000E0000
00FFE000
03FFF800
07FFFC00
0FC07E00
1F801F00
1F000F00
3E000F80
3C000780
7C0003C0
780003C0
780003C0
780003E0
F80001E0
F00001E0
F00001E0
F00001E0
F00001E0
F00001E0
F00001E0
F80001E0
780003E0
780003C0
780003C0
7C0007C0
3C000780
3E000F80
1F000F00
1F801F00
0FC07E00
07FFFC00
03FFF800
00FFE000
000E0000
001C0000
00180000
00180000
00380000
003C4000
001FC000
001FC000
ENDCHAR
STARTCHAR 01ED
ENCODING 493
SWIDTH 540 0
DWIDTH 24 0
BBX 20 41 2 -8
BITMAP
0FFF00
0FFF00
0FFF00
000000
000000
000000
000000
000000
007000
07FE00
0FFF00
1FFF80
3E07C0
3C03E0
7801E0
7801E0
7800F0
F000F0
F000F0
F000F0
F000F0
F000F0
F000F0
F000F0
F000F0
7800F0
7801E0
7801E0
3C03E0
3E07C0
1FFF80
0FFF00
07FE00
006000
00C000
01C000
01C000
01C000
01E400
01FC00
00FC00
ENDCHAR
STARTCHAR 01EE
ENCODING 494
SWIDTH 585 0
DWIDTH 26 0
BBX 22 42 3 -1
BITMAP
070300
030700
038E00
01DC00
00F800
00F800
000000
000000
000000
FFFFF0
FFFFF0
FFFFF0
FFFFF0
0003E0
0003C0
000780
000F80
000F00
001E00
003C00
007C00
007800
00F000
00FE00
00FF80
00FFE0
000FE0
0001F0
0000F8
000078
000078
00003C
00003C
00003C
000078
000078
0000F8
6001F0
7E0FF0
7FFFE0
7FFFC0
1FFF00
ENDCHAR
STARTCHAR 01EF
ENCODING 495
SWIDTH 517 0
DWIDTH 23 0
BBX 19 44 2 -9
BITMAP
181C00
1C1C00
0E3800
0E7000
077000
03E000
03E000
01C000
000000
000000
000000
FFFF80
FFFF80
FFFF80
000780
000F00
001F00
003E00
003C00
007800
00F000
01F000
03E000
03C000
078000
07F800
07FE00
07FF00
007F80
000F80
0003C0
0003C0
0001E0
0001E0
0001E0
0001E0
0001E0
0003C0
0007C0
800FC0
F87F80
FFFF00
FFFE00
3FF800
ENDCHAR
STARTCHAR 01F0
ENCODING 496
SWIDTH 247 0
DWIDTH 11 0
BBX 12 44 -1 -9
BITMAP
7030
7070
38E0
1CE0
1DC0
0FC0
0F80
0700
0000
0000
0000
0700
0700
0700
0700
0700
0700
0700
0700
0700
0700
0700
0700
0700
0700
0700
0700
0700
0700
0700
0700
0700
0700
0700
0700
0700
0700
0700
0F00
0F00
1F00
FE00
FC00
F800
ENDCHAR
STARTCHAR 01F1
ENCODING 497
SWIDTH 1260 0
DWIDTH 56 0
BBX 50 32 4 0
BITMAP
FFFC003FFFFF80
FFFF803FFFFF80
FFFFE03FFFFF80
F07FF03FFFFF80
F003F800000F00
F000FC00001E00
F0007C00003E00
F0003E00007C00
F0001E00007800
F0001E0000F800
F0001F0001F000
F0000F0003E000
F0000F0003C000
F0000F0007C000
F0000F000F8000
F0000F000F0000
F0000F001E0000
F0000F003E0000
F0000F007C0000
F0000F00780000
F0000F00F80000
F0001F01F00000
F0001E03E00000
F0001E03C00000
F0003E07C00000
F0007C0F800000
F000FC0F000000
F003F81E000000
FFFFF03FFFFFC0
FFFFC03FFFFFC0
FFFF803FFFFFC0
FFF8003FFFFFC0
ENDCHAR
STARTCHAR 01F2
ENCODING 498
SWIDTH 1147 0
DWIDTH 51 0
BBX 44 32 4 0
BITMAP
FFFC00000000
FFFF80000000
FFFFE0000000
F07FF0000000
F003F8000000
F000FC000000
F0007C000000
F0003E000000
F0001E1FFFF0
F0001E1FFFF0
F0001F1FFFF0
F0000F0000F0
F0000F0001E0
F0000F0003C0
F0000F0007C0
F0000F000780
F0000F000F00
F0000F001E00
F0000F003E00
F0000F007C00
F0000F007800
F0001F00F000
F0001E01F000
F0001E03E000
F0003E03C000
F0007C078000
F000FC0F0000
F003F81F0000
FFFFF01E0000
FFFFC01FFFF0
FFFF801FFFF0
FFF8001FFFF0
ENDCHAR
STARTCHAR 01F3
ENCODING 499
SWIDTH 1035 0
DWIDTH 46 0
BBX 40 34 2 -1
BITMAP
0000F00000
0000F00000
0000F00000
0000F00000
0000F00000
0000F00000
0000F00000
0000F00000
00C0F00000
07F8F1FFFF
0FFCF1FFFF
1FFEF1FFFF
3E07F0000F
3C03F0001F
7801F0001E
7801F0003C
7001F00078
F000F000F8
F000F001F0
F000F001E0
F000F003C0
F000F00780
F000F00F80
F000F00F00
F000F01E00
7001F03C00
7801F07C00
7801F0F800
3C03F0F000
3E07F1E000
1FFEF1FFFF
0FFCF1FFFF
07F8F1FFFF
00C0000000
ENDCHAR
STARTCHAR 01F4
ENCODING 500
SWIDTH 697 0
DWIDTH 31 0
BBX 25 42 2 -1
BITMAP
0003C000
00038000
00070000
000E0000
000E0000
001C0000
00000000
00000000
00078000
00FFF800
01FFFE00
07FFFF80
0FE01F80
1F800780
1F000180
3E000080
3C000000
7C000000
78000000
78000000
78000000
F8000000
F0000000
F0000000
F001FF80
F001FF80
F001FF80
F001FF80
F8000380
78000380
78000380
78000380
7C000380
3C000380
3E000380
1F000380
1F800780
0FE01F80
07FFFF80
01FFFE00
007FF800
00070000
ENDCHAR
STARTCHAR 01F5
ENCODING 501
SWIDTH 562 0
DWIDTH 25 0
BBX 20 44 2 -9
BITMAP
001C00
003C00
007800
007000
00E000
01E000
01C000
038000
000000
000000
00C000
07F8F0
0FFEF0
1FFEF0
3E07F0
3C03F0
7801F0
7801F0
7001F0
F000F0
F000F0
F000F0
F000F0
F000F0
F000F0
F000F0
7000F0
7801F0
7801F0
7C03F0
3E07F0
1F1FF0
1FFEF0
0FFCF0
03F0E0
0000E0
0001E0
0001E0
0001E0
1003C0
1C0FC0
1FFF80
1FFF00
07FC00
ENDCHAR
STARTCHAR 01F6
ENCODING 502
SWIDTH 990 0
DWIDTH 44 0
BBX 36 33 4 -1
BITMAP
F0003C0000
F0003C0000
F0003C0000
F0003C0000
F0003C0000
F0003C0000
F0003C0000
F0003C0000
F0003C0070
F0003C0070
F0003C0070
F0003C0070
F0003C0070
FFFFFC0070
FFFFFC0070
FFFFFC0070
FFFFFC0070
F0003C0070
F0003C0070
F0003C0070
F0003C0070
F0003C0070
F0003C0070
F0003C00F0
F0003C00F0
F0003C00F0
F0003E00F0
F0001E01F0
F0001F03E0
F0000FFFE0
F0000FFFC0
F00003FF80
0000007800
ENDCHAR
STARTCHAR 01F7
ENCODING 503
SWIDTH 607 0
DWIDTH 27 0
BBX 21 42 4 -9
BITMAP
000F00
F0FFC0
F3FFE0
F7FFE0
FFE7F0
FF01F0
FE00F8
FC00F8
F80078
F00078
F00078
F00078
F000F0
F000F0
F001F0
F001E0
F003C0
F007C0
F00F80
F01F00
F03E00
F07C00
F0F800
F3F000
F7E000
FFC000
FF0000
FE0000
FC0000
F00000
F00000
F00000
F00000
F00000
F00000
F00000
F00000
F00000
F00000
F00000
F00000
F00000
ENDCHAR
STARTCHAR 01F8
ENCODING 504
SWIDTH 675 0
DWIDTH 30 0
BBX 22 41 4 0
BITMAP
01E000
00E000
007000
007800
003800
001C00
000000
000000
000000
F8003C
FC003C
FC003C
FE003C
FE003C
FF003C
FF003C
F7803C
F7803C
F3C03C
F3C03C
F1E03C
F1E03C
F0F03C
F0F03C
F0783C
F0783C
F03C3C
F03C3C
F01E3C
F01E3C
F01E3C
F00F3C
F00F3C
F007BC
F007BC
F003FC
F003FC
F001FC
F001FC
F000FC
F000FC
ENDCHAR
STARTCHAR 01F9
ENCODING 505
SWIDTH 562 0
DWIDTH 25 0
BBX 18 35 4 0
BITMAP
078000
03C000
01C000
00E000
00F000
007000
003800
001C00
000000
000000
007000
E3FC00
E7FE00
EFFF00
FC0F80
F80780
F00780
F003C0
F003C0
E003C0
E003C0
E003C0
E003C0
E003C0
E003C0
E003C0
E003C0
E003C0
E003C0
E003C0
E003C0
E003C0
E003C0
E003C0
E003C0
ENDCHAR
STARTCHAR 01FA
ENCODING 506
SWIDTH 607 0
DWIDTH 27 0
BBX 27 41 0 0
BITMAP
000E03C0
003F8380
007FC700
0071CF00
00E0EE00
00E0FC00
00E0E000
00E0E000
0071C000
007FC000
003F8000
003F8000
003F8000
003B8000
007BC000
007BC000
0071C000
00F1E000
00F1E000
00E0E000
01E0F000
01E0F000
01C07000
03C07800
03C07800
03803800
07803C00
07803C00
07801C00
0FFFFE00
0FFFFE00
0FFFFF00
1FFFFF00
1E000F00
1E000780
3C000780
3C000780
7C0003C0
780003C0
780003C0
F80001E0
ENDCHAR
STARTCHAR 01FB
ENCODING 507
SWIDTH 540 0
DWIDTH 24 0
BBX 22 42 2 -1
BITMAP
00003C
000038
004070
03F8F0
07FCE0
071DC0
0E0E00
0E0E00
0E0E00
0E0E00
060C00
07BC00
03F800
01F000
000000
000000
00E000
1FFC00
3FFF00
3FFF80
300F80
0003C0
0003C0
0001C0
0001C0
0001E0
07FFE0
1FFFE0
3FFFE0
7E01E0
7801E0
7001E0
F001E0
F001E0
F003E0
F003E0
7807E0
7C0FE0
3FFDE0
3FF9E0
1FF1E0
038000
ENDCHAR
STARTCHAR 01FC
ENCODING 508
SWIDTH 877 0
DWIDTH 39 0
BBX 36 41 0 0
BITMAP
000003C000
0000038000
0000070000
00000F0000
00000E0000
00001C0000
0000000000
0000000000
0000000000
000FFFFFF0
000FFFFFF0
001FFFFFF0
001E7FFFF0
001C780000
003C780000
003C780000
0078780000
0078780000
0078780000
00F0780000
00F0780000
01E0780000
01E07FFFE0
01E07FFFE0
03C07FFFE0
03C07FFFE0
03C0780000
0780780000
0780780000
0FFFF80000
0FFFF80000
0FFFF80000
1FFFF80000
1E00780000
1E00780000
3C00780000
3C00780000
78007FFFF0
78007FFFF0
78007FFFF0
F0007FFFF0
ENDCHAR
STARTCHAR 01FD
ENCODING 509
SWIDTH 877 0
DWIDTH 39 0
BBX 35 36 2 -1
BITMAP
0000780000
0000F00000
0000E00000
0001C00000
0003C00000
0003800000
0007000000
000E000000
0000000000
0000000000
00E000E000
1FFC0FFC00
3FFF1FFE00
3FFFBFFF00
300FFC0F80
0003F80780
0003F003C0
0001E001C0
0001E001C0
0001E001E0
07FFE001E0
1FFFFFFFE0
3FFFFFFFE0
7E01FFFFE0
7801C00000
7001E00000
F001E00000
F001E00000
F003F00000
F003F00000
7807F80040
7C0F7C01C0
3FFE3FFFC0
3FFC1FFFC0
0FF807FF00
0380006000
ENDCHAR
STARTCHAR 01FE
ENCODING 510
SWIDTH 697 0
DWIDTH 31 0
BBX 27 42 2 -2
BITMAP
00038000
00070000
000F0000
000E0000
001C0000
00380000
00000000
00000000
000E00C0
00FFE0E0
03FFF9C0
07FFFFC0
0FC07F80
1F803F00
1F000F00
3E001F80
3C003F80
7C003FC0
780073C0
7800F3C0
7801E3E0
F801C1E0
F00381E0
F00701E0
F00F01E0
F01E01E0
F01C01E0
F03801E0
F87801E0
78F003E0
78E003C0
79C003C0
7FC007C0
3F800780
3F000F80
1F000F00
1F801F00
3FE07E00
3FFFFC00
73FFF800
E0FFE000
600E0000
ENDCHAR
STARTCHAR 01FF
ENCODING 511
SWIDTH 540 0
DWIDTH 24 0
BBX 21 37 2 -2
BITMAP
001C00
003C00
007800
007000
00E000
01E000
01C000
038000
000000
000010
007038
07FE70
0FFFE0
1FFFE0
3E07C0
3C03E0
7807E0
7807E0
780EF0
F01CF0
F03CF0
F038F0
F070F0
F0E0F0
F1E0F0
F1C0F0
F380F0
7700F0
7F01E0
7E01E0
3C03E0
3E07C0
7FFF80
7FFF00
E7FE00
C06000
400000
ENDCHAR
STARTCHAR 0200
ENCODING 512
SWIDTH 607 0
DWIDTH 27 0
BBX 27 41 0 0
BITMAP
03C70000
01C78000
00E3C000
0071C000
0070E000
00387000
00000000
00000000
00000000
001F0000
001F0000
003F8000
003F8000
003B8000
007BC000
007BC000
0071C000
00F1E000
00F1E000
00E0E000
01E0F000
01E0F000
01C07000
03C07800
03C07800
03803800
07803C00
07803C00
07001C00
0FFFFE00
0FFFFE00
0FFFFF00
1FFFFF00
1E000F00
1E000780
3C000780
3C000780
7C0003C0
780003C0
780003C0
F80001E0
ENDCHAR
STARTCHAR 0201
ENCODING 513
SWIDTH 540 0
DWIDTH 24 0
BBX 19 36 2 -1
BITMAP
1E3800
0E3800
0E1C00
071C00
030E00
038E00
018700
01C700
000000
000000
00E000
1FFC00
3FFF00
3FFF80
300F80
0003C0
0003C0
0001C0
0001C0
0001E0
07FFE0
1FFFE0
3FFFE0
7E01E0
7801E0
7001E0
F001E0
F001E0
F003E0
F003E0
7807E0
7C0FE0
3FFDE0
3FF9E0
1FF1E0
038000
ENDCHAR
STARTCHAR 0202
ENCODING 514
SWIDTH 607 0
DWIDTH 27 0
BBX 27 40 0 0
BITMAP
001F0000
007FC000
00FFE000
00E0E000
00C06000
00000000
00000000
00000000
001F0000
001F0000
003F8000
003F8000
003B8000
007BC000
007BC000
0071C000
00F1E000
00F1E000
00E0E000
01E0F000
01E0F000
01C07000
03C07800
03C07800
03803800
07803C00
07803C00
07001C00
0FFFFE00
0FFFFE00
0FFFFF00
1FFFFF00
1E000F00
1E000780
3C000780
3C000780
7C0003C0
780003C0
780003C0
F80001E0
ENDCHAR
STARTCHAR 0203
ENCODING 515
SWIDTH 540 0
DWIDTH 24 0
BBX 19 36 2 -1
BITMAP
004000
03F800
07FC00
0FBE00
0E0600
0C0700
0C0700
000000
000000
000000
00E000
1FFC00
3FFF00
3FFF80
300F80
0003C0
0003C0
0001C0
0001C0
0001E0
07FFE0
1FFFE0
3FFFE0
7E01E0
7801E0
7001E0
F001E0
F001E0
F003E0
F003E0
7807E0
7C0FE0
3FFDE0
3FF9E0
1FF1E0
038000
ENDCHAR
STARTCHAR 0204
ENCODING 516
SWIDTH 562 0
DWIDTH 25 0
BBX 19 41 4 0
BITMAP
71E000
38F000
3C7000
1C3800
0E1C00
071C00
000000
000000
000000
FFFFC0
FFFFC0
FFFFC0
FFFFC0
F00000
F00000
F00000
F00000
F00000
F00000
F00000
F00000
F00000
FFFFC0
FFFFC0
FFFFC0
FFFFC0
F00000
F00000
F00000
F00000
F00000
F00000
F00000
F00000
F00000
F00000
F00000
FFFFE0
FFFFE0
FFFFE0
FFFFE0
ENDCHAR
STARTCHAR 0205
ENCODING 517
SWIDTH 540 0
DWIDTH 24 0
BBX 20 36 2 -1
BITMAP
0E3C00
0F1C00
071E00
038E00
038600
01C700
01C300
00E380
000000
000000
007000
03FE00
0FFF80
1FFFC0
1E03C0
3C01E0
7800E0
7800F0
7000F0
F00070
F00070
FFFFF0
FFFFF0
FFFFF0
F00000
F00000
F00000
780000
780000
7C0000
3C0000
1F00E0
1FFFE0
0FFFE0
03FFC0
003800
ENDCHAR
STARTCHAR 0206
ENCODING 518
SWIDTH 562 0
DWIDTH 25 0
BBX 19 40 4 0
BITMAP
01F000
07F800
0FFC00
1E1E00
1C0600
000000
000000
000000
FFFFC0
FFFFC0
FFFFC0
FFFFC0
F00000
F00000
F00000
F00000
F00000
F00000
F00000
F00000
F00000
FFFFC0
FFFFC0
FFFFC0
FFFFC0
F00000
F00000
F00000
F00000
F00000
F00000
F00000
F00000
F00000
F00000
F00000
FFFFE0
FFFFE0
FFFFE0
FFFFE0
ENDCHAR
STARTCHAR 0207
ENCODING 519
SWIDTH 540 0
DWIDTH 24 0
BBX 20 35 2 0
BITMAP
01FE00
03FF00
03CF00
070380
070180
060180
000000
000000
000000
007000
03FE00
0FFF80
1FFFC0
1E03C0
3C01E0
7800E0
7800F0
7000F0
F00070
F00070
FFFFF0
FFFFF0
FFFFF0
F00000
F00000
F00000
780000
780000
7C0000
3C0000
1F00E0
1FFFE0
0FFFE0
03FFC0
003800
ENDCHAR
STARTCHAR 0208
ENCODING 520
SWIDTH 270 0
DWIDTH 12 0
BBX 14 41 -2 0
BITMAP
F1E0
78E0
3870
1C78
0E38
0E1C
0000
0000
0000
03C0
03C0
03C0
03C0
03C0
03C0
03C0
03C0
03C0
03C0
03C0
03C0
03C0
03C0
03C0
03C0
03C0
03C0
03C0
03C0
03C0
03C0
03C0
03C0
03C0
03C0
03C0
03C0
03C0
03C0
03C0
03C0
ENDCHAR
STARTCHAR 0209
ENCODING 521
SWIDTH 247 0
DWIDTH 11 0
BBX 13 35 -1 0
BITMAP
F1C0
71E0
78E0
38E0
1C70
1C70
0E38
0E18
0000
0000
0000
0700
0700
0700
0700
0700
0700
0700
0700
0700
0700
0700
0700
0700
0700
0700
0700
0700
0700
0700
0700
0700
0700
0700
0700
ENDCHAR
STARTCHAR 020A
ENCODING 522
SWIDTH 270 0
DWIDTH 12 0
BBX 12 40 0 0
BITMAP
0F80
3FC0
7FE0
F0F0
E030
0000
0000
0000
0F00
0F00
0F00
0F00
0F00
0F00
0F00
0F00
0F00
0F00
0F00
0F00
0F00
0F00
0F00
0F00
0F00
0F00
0F00
0F00
0F00
0F00
0F00
0F00
0F00
0F00
0F00
0F00
0F00
0F00
0F00
0F00
ENDCHAR
STARTCHAR 020B
ENCODING 523
SWIDTH 247 0
DWIDTH 11 0
BBX 13 35 -1 0
BITMAP
0200
1FC0
3FE0
7DF0
7070
6030
E038
0000
0000
0000
0000
0700
0700
0700
0700
0700
0700
0700
0700
0700
0700
0700
0700
0700
0700
0700
0700
0700
0700
0700
0700
0700
0700
0700
0700
ENDCHAR
STARTCHAR 020C
ENCODING 524
SWIDTH 697 0
DWIDTH 31 0
BBX 27 42 2 -1
BITMAP
038F0000
01C78000
01E38000
00E1C000
0070E000
0038E000
00000000
00000000
000E0000
00FFE000
03FFF800
07FFFC00
0FC07E00
1F801F00
1F000F00
3E000F80
3C000780
7C0003C0
780003C0
780003C0
780003E0
F80001E0
F00001E0
F00001E0
F00001E0
F00001E0
F00001E0
F00001E0
F80001E0
780003E0
780003C0
780003C0
7C0007C0
3C000780
3E000F80
1F000F00
1F801F00
0FC07E00
07FFFC00
03FFF800
00FFE000
000E0000
ENDCHAR
STARTCHAR 020D
ENCODING 525
SWIDTH 540 0
DWIDTH 24 0
BBX 20 36 2 -1
BITMAP
1E3800
0E3C00
0F1C00
071C00
038E00
038600
01C700
01C300
000000
000000
007000
07FE00
0FFF00
1FFF80
3E07C0
3C03E0
7801E0
7801E0
7800F0
F000F0
F000F0
F000F0
F000F0
F000F0
F000F0
F000F0
F000F0
7800F0
7801E0
7801E0
3C03E0
3E07C0
1FFF80
0FFF00
07FE00
006000
ENDCHAR
STARTCHAR 020E
ENCODING 526
SWIDTH 697 0
DWIDTH 31 0
BBX 27 41 2 -1
BITMAP
001F0000
007FC000
00FFE000
00E0E000
01C06000
00000000
00000000
000E0000
00FFE000
03FFF800
07FFFC00
0FC07E00
1F801F00
1F000F00
3E000F80
3C000780
7C0003C0
780003C0
780003C0
780003E0
F80001E0
F00001E0
F00001E0
F00001E0
F00001E0
F00001E0
F00001E0
F80001E0
780003E0
780003C0
780003C0
7C0007C0
3C000780
3E000F80
1F000F00
1F801F00
0FC07E00
07FFFC00
03FFF800
00FFE000
000E0000
ENDCHAR
STARTCHAR 020F
ENCODING 527
SWIDTH 540 0
DWIDTH 24 0
BBX 20 36 2 -1
BITMAP
002000
01FC00
03FE00
07DF00
070300
060380
060380
000000
000000
000000
007000
07FE00
0FFF00
1FFF80
3E07C0
3C03E0
7801E0
7801E0
7800F0
F000F0
F000F0
F000F0
F000F0
F000F0
F000F0
F000F0
F000F0
7800F0
7801E0
7801E0
3C03E0
3E07C0
1FFF80
0FFF00
07FE00
006000
ENDCHAR
STARTCHAR 0210
ENCODING 528
SWIDTH 630 0
DWIDTH 28 0
BBX 22 41 4 0
BITMAP
F1C000
71E000
38E000
3C7000
1C3800
0E3800
000000
000000
000000
FFF800
FFFE00
FFFF00
F07F80
F00FC0
F007C0
F003C0
F003C0
F003C0
F003E0
F003C0
F003C0
F003C0
F007C0
F01F80
FFFF00
FFFE00
FFFE00
F07F00
F00F00
F00780
F007C0
F003C0
F003E0
F001E0
F001E0
F000F0
F000F0
F00078
F00078
F0003C
F0003C
ENDCHAR
STARTCHAR 0211
ENCODING 529
SWIDTH 360 0
DWIDTH 16 0
BBX 13 35 3 0
BITMAP
E3C0
71C0
70E0
38E0
3870
1C70
1C30
0E38
0000
0000
0038
71F8
73F8
77F8
7F00
7C00
7800
7800
7800
7000
7000
7000
7000
7000
7000
7000
7000
7000
7000
7000
7000
7000
7000
7000
7000
ENDCHAR
STARTCHAR 0212
ENCODING 530
SWIDTH 630 0
DWIDTH 28 0
BBX 22 40 4 0
BITMAP
03E000
0FF800
1FFC00
1C1C00
380C00
000000
000000
000000
FFF800
FFFE00
FFFF00
F07F80
F00FC0
F007C0
F003C0
F003C0
F003C0
F003E0
F003C0
F003C0
F003C0
F007C0
F01F80
FFFF00
FFFE00
FFFE00
F07F00
F00F00
F00780
F007C0
F003C0
F003E0
F001E0
F001E0
F000F0
F000F0
F00078
F00078
F0003C
F0003C
ENDCHAR
STARTCHAR 0213
ENCODING 531
SWIDTH 360 0
DWIDTH 16 0
BBX 13 35 4 0
BITMAP
0200
1FC0
3FE0
7DF0
7030
6038
6038
0000
0000
0000
0070
E3F0
E7F0
EFF0
FE00
F800
F000
F000
F000
E000
E000
E000
E000
E000
E000
E000
E000
E000
E000
E000
E000
E000
E000
E000
E000
ENDCHAR
STARTCHAR 0214
ENCODING 532
SWIDTH 652 0
DWIDTH 29 0
BBX 23 42 3 -1
BITMAP
0F1C00
071E00
038E00
03C700
01C380
00E380
000000
000000
000000
F0001E
F0001E
F0001E
F0001E
F0001E
F0001E
F0001E
F0001E
F0001E
F0001E
F0001E
F0001E
F0001E
F0001E
F0001E
F0001E
F0001E
F0001E
F0001E
F0001E
F0001E
F0001E
78003C
78003C
78003C
78003C
7C0078
3E00F8
1F01F0
1FFFF0
0FFFE0
03FF80
003800
ENDCHAR
STARTCHAR 0215
ENCODING 533
SWIDTH 562 0
DWIDTH 25 0
BBX 19 36 3 -1
BITMAP
1E3800
0E3C00
0F1C00
071C00
038E00
038600
01C700
01C300
000000
000000
000000
F001E0
F001E0
F001E0
F001E0
F001E0
F001E0
F001E0
F001E0
F001E0
F001E0
F001E0
F001E0
F001E0
F001E0
F001E0
F001E0
F001E0
7003E0
7803E0
7807E0
7C0FE0
3FFDE0
1FF9E0
0FF1E0
018000
ENDCHAR
STARTCHAR 0216
ENCODING 534
SWIDTH 652 0
DWIDTH 29 0
BBX 23 41 3 -1
BITMAP
007C00
01FF00
03FF80
038380
070180
000000
000000
000000
F0001E
F0001E
F0001E
F0001E
F0001E
F0001E
F0001E
F0001E
F0001E
F0001E
F0001E
F0001E
F0001E
F0001E
F0001E
F0001E
F0001E
F0001E
F0001E
F0001E
F0001E
F0001E
78003C
78003C
78003C
78003C
7C0078
3E00F8
1F01F0
1FFFF0
0FFFE0
03FF80
003800
ENDCHAR
STARTCHAR 0217
ENCODING 535
SWIDTH 562 0
DWIDTH 25 0
BBX 19 35 3 0
BITMAP
03FC00
07FE00
079E00
0E0700
0E0300
0C0300
000000
000000
000000
000000
F001E0
F001E0
F001E0
F001E0
F001E0
F001E0
F001E0
F001E0
F001E0
F001E0
F001E0
F001E0
F001E0
F001E0
F001E0
F001E0
F001E0
7003E0
7803E0
7807E0
7C0FE0
3FFDE0
1FF9E0
0FF1E0
018000
ENDCHAR
STARTCHAR 0218
ENCODING 536
SWIDTH 562 0
DWIDTH 25 0
BBX 20 44 3 -11
BITMAP
01E000
0FFF80
1FFFC0
3FFFC0
7E03C0
F80040
F00000
F00000
F00000
F00000
F00000
F00000
F80000
FE0000
7FE000
3FFC00
1FFF00
07FF80
007FC0
0007E0
0003E0
0001F0
0000F0
0000F0
0000F0
0000F0
0000F0
0001E0
C003E0
F80FE0
FFFFC0
FFFF80
3FFE00
01E000
000000
000000
000000
00F000
01E000
01E000
01C000
01C000
018000
038000
ENDCHAR
STARTCHAR 0219
ENCODING 537
SWIDTH 472 0
DWIDTH 21 0
BBX 17 36 2 -11
BITMAP
00C000
1FFE00
3FFF00
7FFF00
780300
F00000
F00000
F00000
F00000
780000
7E0000
7FE000
3FF800
0FFE00
00FF00
001F00
000F00
000780
000780
000780
800700
E01F00
FFFE00
FFFC00
7FF800
01C000
000000
000000
000000
01E000
01E000
01C000
01C000
038000
038000
030000
ENDCHAR
STARTCHAR 021A
ENCODING 538
SWIDTH 540 0
DWIDTH 24 0
BBX 24 43 0 -11
BITMAP
FFFFFF
FFFFFF
FFFFFF
FFFFFF
003C00
003C00
003C00
003C00
003C00
003C00
003C00
003C00
003C00
003C00
003C00
003C00
003C00
003C00
003C00
003C00
003C00
003C00
003C00
003C00
003C00
003C00
003C00
003C00
003C00
003C00
003C00
003C00
000000
000000
000000
000000
003C00
003800
003800
007800
007000
007000
006000
ENDCHAR
STARTCHAR 021B
ENCODING 539
SWIDTH 360 0
DWIDTH 16 0
BBX 14 42 1 -11
BITMAP
1C00
1C00
1C00
1C00
1C00
1C00
1C00
FFFC
FFFC
FFFC
1C00
1C00
1C00
1C00
1C00
1C00
1C00
1C00
1C00
1C00
1C00
1C00
1C00
1C00
1C00
1C00
1E00
1F00
0FFC
0FFC
03FC
0000
0000
0000
0000
01E0
01E0
01C0
01C0
0380
0380
0380
ENDCHAR
STARTCHAR 021C
ENCODING 540
SWIDTH 562 0
DWIDTH 25 0
BBX 19 42 3 -9
BITMAP
00E000
07FC00
1FFF00
7FFF80
7C0F80
7007C0
6003C0
0003C0
0003C0
0003C0
0003C0
0003C0
0003C0
000780
000780
000F00
001E00
007C00
01F800
07FF00
1FFF80
1F8FC0
1C03C0
1003E0
0001E0
0001E0
0001E0
0001E0
0001E0
0003C0
0003C0
0007C0
000F80
001F00
003E00
00FC00
03F800
0FF000
7FC000
FF0000
FC0000
E00000
ENDCHAR
STARTCHAR 021D
ENCODING 541
SWIDTH 472 0
DWIDTH 21 0
BBX 17 34 1 -9
BITMAP
00C000
07FC00
1FFE00
7E3F00
700F00
600780
000780
000780
000780
000780
000700
000F00
001E00
003C00
00F800
03FC00
1FFE00
1F0F00
180780
000380
000380
000380
000380
000380
000780
000F00
001F00
003E00
00FC00
03F000
1FE000
FF8000
FC0000
E00000
ENDCHAR
STARTCHAR 021E
ENCODING 542
SWIDTH 675 0
DWIDTH 30 0
BBX 22 41 4 0
BITMAP
070380
038700
01CE00
01FC00
00FC00
007800
000000
000000
000000
F0003C
F0003C
F0003C
F0003C
F0003C
F0003C
F0003C
F0003C
F0003C
F0003C
F0003C
F0003C
F0003C
FFFFFC
FFFFFC
FFFFFC
FFFFFC
F0003C
F0003C
F0003C
F0003C
F0003C
F0003C
F0003C
F0003C
F0003C
F0003C
F0003C
F0003C
F0003C
F0003C
F0003C
ENDCHAR
STARTCHAR 021F
ENCODING 543
SWIDTH 562 0
DWIDTH 25 0
BBX 22 41 0 0
BITMAP
E06000
60E000
71C000
3B8000
1F0000
1F0000
000000
000000
0E0000
0E0000
0E0000
0E0000
0E0000
0E0000
0E0000
0E0000
0E0700
0E3FC0
0E7FE0
0EFFF0
0FC0F8
0F8078
0F0078
0F003C
0F003C
0E003C
0E003C
0E003C
0E003C
0E003C
0E003C
0E003C
0E003C
0E003C
0E003C
0E003C
0E003C
0E003C
0E003C
0E003C
0E003C
ENDCHAR
STARTCHAR 0220
ENCODING 544
SWIDTH 652 0
DWIDTH 29 0
BBX 21 42 4 -9
BITMAP
001C00
F0FF80
F3FFC0
F3FFE0
F7FFE0
FF01F0
FE00F0
FC00F8
F80078
F80078
F00078
F00078
F00078
F00078
F00078
F00078
F00078
F00078
F00078
F00078
F00078
F00078
F00078
F00078
F00078
F00078
F00078
F00078
F00078
F00078
F00078
F00078
F00078
000078
000078
000078
000078
000078
000078
000078
000078
000078
ENDCHAR
STARTCHAR 0221
ENCODING 545
SWIDTH 742 0
DWIDTH 33 0
BBX 29 36 2 -3
BITMAP
0000F000
0000F000
0000F000
0000F000
0000F000
0000F000
0000F000
0000F000
00C0F000
07F8F000
0FFEF000
1FFEF000
3E07F000
3C03F000
7801F000
7801F000
7001F000
F000F000
F000F000
F000F000
F000F000
F000F000
F000F1C0
F000F3F0
F000F7F8
7001FFF8
7801FE78
7801FE78
3C03FC78
3E07FC78
1FFEFFF0
0FFC7FF0
07F8FFE0
00C0F600
0000E000
0001E000
ENDCHAR
STARTCHAR 0222
ENCODING 546
SWIDTH 630 0
DWIDTH 28 0
BBX 23 34 2 -1
BITMAP
000600
0007C0
0007F0
0000F8
07E03C
1FE03C
3F001C
3C001E
78001E
78001E
78001C
78003C
3C007C
3E00F8
1FFFF0
03FFC0
07FFC0
1FFFF0
3F00F8
7C003C
78003E
F8001E
F0001E
F0000E
F0001E
F0001E
F8001E
78003E
7C007E
3F00FC
3FFFF8
0FFFF0
07FFC0
003C00
ENDCHAR
STARTCHAR 0223
ENCODING 547
SWIDTH 540 0
DWIDTH 24 0
BBX 20 29 2 -1
BITMAP
3801C0
3801E0
7801E0
7801E0
7801E0
7801E0
3801E0
3C03C0
3E07C0
1FFF80
07FE00
07FF00
1FFF80
3E07C0
7C01E0
7801E0
F000F0
F000F0
F000F0
F000F0
F000F0
F000F0
7801F0
7C03E0
7E07E0
3FFFC0
1FFF80
07FE00
00F000
ENDCHAR
STARTCHAR 0224
ENCODING 548
SWIDTH 607 0
DWIDTH 27 0
BBX 23 41 2 -9
BITMAP
FFFFFE
FFFFFE
FFFFFE
FFFFFE
00007C
000078
0000F8
0001F0
0003E0
0003C0
0007C0
000F80
000F00
001E00
003E00
007C00
007800
00F800
01F000
03E000
03C000
07C000
0F8000
0F0000
1E0000
3E0000
7C0000
780000
FFFFFE
FFFFFE
FFFFFE
FFFFFE
00000E
00000E
00000E
00000E
00001E
00003E
000FFC
000FF8
000FF0
ENDCHAR
STARTCHAR 0225
ENCODING 549
SWIDTH 472 0
DWIDTH 21 0
BBX 17 33 2 -9
BITMAP
FFFF80
FFFF80
FFFF80
000780
000F00
001F00
003E00
003C00
007800
00F000
01F000
01E000
03C000
078000
0F8000
1F0000
1E0000
3C0000
7C0000
F80000
F00000
FFFF80
FFFF80
FFFF80
000380
000780
000780
000780
000780
000F00
03FF00
03FE00
03FC00
ENDCHAR
STARTCHAR 0226
ENCODING 550
SWIDTH 607 0
DWIDTH 27 0
BBX 27 40 0 0
BITMAP
000F0000
000F0000
000F0000
000F0000
00000000
00000000
00000000
00000000
001F0000
001F0000
003F8000
003F8000
003B8000
007BC000
007BC000
0071C000
00F1E000
00F1E000
00E0E000
01E0F000
01E0F000
01C07000
03C07800
03C07800
03803800
07803C00
07803C00
07001C00
0FFFFE00
0FFFFE00
0FFFFF00
1FFFFF00
1E000F00
1E000780
3C000780
3C000780
7C0003C0
780003C0
780003C0
F80001E0
ENDCHAR
STARTCHAR 0227
ENCODING 551
SWIDTH 540 0
DWIDTH 24 0
BBX 19 34 2 -1
BITMAP
00E000
00E000
00E000
00E000
00E000
000000
000000
000000
00E000
1FFC00
3FFF00
3FFF80
300F80
0003C0
0003C0
0001C0
0001C0
0001E0
07FFE0
1FFFE0
3FFFE0
7E01E0
7801E0
7001E0
F001E0
F001E0
F003E0
F003E0
7807E0
7C0FE0
3FFDE0
3FF9E0
1FF1E0
038000
ENDCHAR
STARTCHAR 0228
ENCODING 552
SWIDTH 562 0
DWIDTH 25 0
BBX 19 40 4 -8
BITMAP
FFFFC0
FFFFC0
FFFFC0
FFFFC0
F00000
F00000
F00000
F00000
F00000
F00000
F00000
F00000
F00000
FFFFC0
FFFFC0
FFFFC0
FFFFC0
F00000
F00000
F00000
F00000
F00000
F00000
F00000
F00000
F00000
F00000
F00000
FFFFE0
FFFFE0
FFFFE0
FFFFE0
006000
007000
003000
003800
003800
047800
07F000
07F000
ENDCHAR
STARTCHAR 0229
ENCODING 553
SWIDTH 540 0
DWIDTH 24 0
BBX 20 33 2 -8
BITMAP
007000
03FE00
0FFF80
1FFFC0
1E03C0
3C01E0
7800E0
7800F0
7000F0
F00070
F00070
FFFFF0
FFFFF0
FFFFF0
F00000
F00000
F00000
780000
780000
7C0000
3C0000
1F00E0
1FFFE0
0FFFE0
03FFC0
003800
003800
001C00
001C00
001C00
023C00
03FC00
03F800
ENDCHAR
STARTCHAR 022A
ENCODING 554
SWIDTH 697 0
DWIDTH 31 0
BBX 27 46 2 -1
BITMAP
00FFE000
00FFE000
00FFE000
00000000
00000000
00000000
00F1E000
00F1E000
00F1E000
00F1E000
00000000
00000000
000E0000
00FFE000
03FFF800
07FFFC00
0FC07E00
1F801F00
1F000F00
3E000F80
3C000780
7C0003C0
780003C0
780003C0
780003E0
F80001E0
F00001E0
F00001E0
F00001E0
F00001E0
F00001E0
F00001E0
F80001E0
780003E0
780003C0
780003C0
7C0007C0
3C000780
3E000F80
1F000F00
1F801F00
0FC07E00
07FFFC00
03FFF800
00FFE000
000E0000
ENDCHAR
STARTCHAR 022B
ENCODING 555
SWIDTH 540 0
DWIDTH 24 0
BBX 20 41 2 -1
BITMAP
0FFF00
0FFF00
0FFF00
000000
000000
000000
000000
0F0F00
0F0F00
0F0F00
0F0F00
000000
000000
000000
000000
007000
07FE00
0FFF00
1FFF80
3E07C0
3C03E0
7801E0
7801E0
7800F0
F000F0
F000F0
F000F0
F000F0
F000F0
F000F0
F000F0
F000F0
7800F0
7801E0
7801E0
3C03E0
3E07C0
1FFF80
0FFF00
07FE00
006000
ENDCHAR
STARTCHAR 022C
ENCODING 556
SWIDTH 697 0
DWIDTH 31 0
BBX 27 46 2 -1
BITMAP
00FFE000
00FFE000
00FFE000
00000000
00000000
00003000
00FC7000
00FF7000
01CFE000
01C3C000
00000000
00000000
000E0000
00FFE000
03FFF800
07FFFC00
0FC07E00
1F801F00
1F000F00
3E000F80
3C000780
7C0003C0
780003C0
780003C0
780003E0
F80001E0
F00001E0
F00001E0
F00001E0
F00001E0
F00001E0
F00001E0
F80001E0
780003E0
780003C0
780003C0
7C0007C0
3C000780
3E000F80
1F000F00
1F801F00
0FC07E00
07FFFC00
03FFF800
00FFE000
000E0000
ENDCHAR
STARTCHAR 022D
ENCODING 557
SWIDTH 540 0
DWIDTH 24 0
BBX 20 39 2 -1
BITMAP
0FFF00
0FFF00
0FFF00
000000
000000
000380
07C300
0FF700
0E7F00
0C3E00
000000
000000
000000
007000
07FE00
0FFF00
1FFF80
3E07C0
3C03E0
7801E0
7801E0
7800F0
F000F0
F000F0
F000F0
F000F0
F000F0
F000F0
F000F0
F000F0
7800F0
7801E0
7801E0
3C03E0
3E07C0
1FFF80
0FFF00
07FE00
006000
ENDCHAR
STARTCHAR 022E
ENCODING 558
SWIDTH 697 0
DWIDTH 31 0
BBX 27 41 2 -1
BITMAP
000F0000
000F0000
000F0000
000F0000
00000000
00000000
00000000
000E0000
00FFE000
03FFF800
07FFFC00
0FC07E00
1F801F00
1F000F00
3E000F80
3C000780
7C0003C0
780003C0
780003C0
780003E0
F80001E0
F00001E0
F00001E0
F00001E0
F00001E0
F00001E0
F00001E0
F80001E0
780003E0
780003C0
780003C0
7C0007C0
3C000780
3E000F80
1F000F00
1F801F00
0FC07E00
07FFFC00
03FFF800
00FFE000
000E0000
ENDCHAR
STARTCHAR 022F
ENCODING 559
SWIDTH 540 0
DWIDTH 24 0
BBX 20 34 2 -1
BITMAP
00F000
00F000
00F000
00F000
00F000
000000
000000
000000
007000
07FE00
0FFF00
1FFF80
3E07C0
3C03E0
7801E0
7801E0
7800F0
F000F0
F000F0
F000F0
F000F0
F000F0
F000F0
F000F0
F000F0
7800F0
7801E0
7801E0
3C03E0
3E07C0
1FFF80
0FFF00
07FE00
006000
ENDCHAR
STARTCHAR 0230
ENCODING 560
SWIDTH 697 0
DWIDTH 31 0
BBX 27 46 2 -1
BITMAP
00FFE000
00FFE000
00FFE000
00000000
00000000
00000000
000F0000
000F0000
000F0000
000F0000
00000000
00000000
000E0000
00FFE000
03FFF800
07FFFC00
0FC07E00
1F801F00
1F000F00
3E000F80
3C000780
7C0003C0
780003C0
780003C0
780003E0
F80001E0
F00001E0
F00001E0
F00001E0
F00001E0
F00001E0
F00001E0
F80001E0
780003E0
780003C0
780003C0
7C0007C0
3C000780
3E000F80
1F000F00
1F801F00
0FC07E00
07FFFC00
03FFF800
00FFE000
000E0000
ENDCHAR
STARTCHAR 0231
ENCODING 561
SWIDTH 540 0
DWIDTH 24 0
BBX 20 41 2 -1
BITMAP
0FFF00
0FFF00
0FFF00
000000
000000
000000
000000
00F000
00F000
00F000
00F000
00F000
000000
000000
000000
007000
07FE00
0FFF00
1FFF80
3E07C0
3C03E0
7801E0
7801E0
7800F0
F000F0
F000F0
F000F0
F000F0
F000F0
F000F0
F000F0
F000F0
7800F0
7801E0
7801E0
3C03E0
3E07C0
1FFF80
0FFF00
07FE00
006000
ENDCHAR
STARTCHAR 0232
ENCODING 562
SWIDTH 540 0
DWIDTH 24 0
BBX 24 40 0 0
BITMAP
03FFC0
03FFC0
03FFC0
000000
000000
000000
000000
000000
F0000F
78001E
7C001E
3C003C
1E007C
1F0078
0F00F0
0781F0
0781E0
03C3C0
03E3C0
01E780
00FF80
00FF00
007E00
007E00
003C00
003C00
003C00
003C00
003C00
003C00
003C00
003C00
003C00
003C00
003C00
003C00
003C00
003C00
003C00
003C00
ENDCHAR
STARTCHAR 0233
ENCODING 563
SWIDTH 517 0
DWIDTH 23 0
BBX 21 42 1 -9
BITMAP
07FF80
07FF80
07FF80
000000
000000
000000
000000
000000
000000
F00078
780078
780070
3800F0
3C00F0
3C01E0
1C01E0
1E01E0
1E03C0
0E03C0
0F0380
0F0780
070780
078700
038F00
03CF00
03CE00
01DE00
01FE00
01FC00
00FC00
00F800
007800
007800
007000
00F000
00F000
01E000
01E000
03C000
3FC000
3F8000
3F0000
ENDCHAR
STARTCHAR 0234
ENCODING 564
SWIDTH 427 0
DWIDTH 19 0
BBX 14 36 3 -3
BITMAP
7000
7000
7000
7000
7000
7000
7000
7000
7000
7000
7000
7000
7000
7000
7000
7000
7000
7000
7000
7000
7000
7000
70C0
73F8
77F8
77FC
7F3C
7E3C
7E38
7C78
7FF8
7FF0
7FE0
7B00
F000
F000
ENDCHAR
STARTCHAR 0235
ENCODING 565
SWIDTH 742 0
DWIDTH 33 0
BBX 27 28 4 -3
BITMAP
00700000
E3FC0000
E7FE0000
EFFF0000
FC0F8000
F8078000
F0078000
F003C000
F003C000
E003C000
E003C000
E003C000
E003C000
E003C000
E003C700
E003CFC0
E003DFE0
E003FFE0
E003F8E0
E003F8E0
E003F1E0
E003F1E0
E001FFC0
E001FFC0
E001FF80
0003C800
0003C000
00078000
ENDCHAR
STARTCHAR 0236
ENCODING 566
SWIDTH 427 0
DWIDTH 19 0
BBX 16 34 1 -3
BITMAP
1C00
1C00
1C00
1C00
1C00
1C00
1C00
FFFC
FFFC
FFFC
1C00
1C00
1C00
1C00
1C00
1C00
1C00
1C00
1C00
1C00
1C38
1CFE
1DFE
1DFF
1FCF
1F8F
1F8F
1F1E
1FFE
0FFC
1FF8
1EC0
3C00
3C00
ENDCHAR
STARTCHAR 0237
ENCODING 567
SWIDTH 247 0
DWIDTH 11 0
BBX 8 33 -1 -9
BITMAP
07
07
07
07
07
07
07
07
07
07
07
07
07
07
07
07
07
07
07
07
07
07
07
07
07
07
07
0F
0F
1F
FE
FC
F8
ENDCHAR
STARTCHAR 0238
ENCODING 568
SWIDTH 900 0
DWIDTH 40 0
BBX 35 34 2 -1
BITMAP
0000F00000
0000F00000
0000F00000
0000F00000
0000F00000
0000F00000
0000F00000
0000F00000
00C0F07000
07F8F3FC00
0FFCF7FF00
1FFEFFFF80
3E07FE0F80
3C03FC03C0
7801F803C0
7801F001E0
7001F001E0
F000F001E0
F000F000E0
F000F000E0
F000F000E0
F000F000E0
F000F000E0
F000F001E0
F000F001E0
7001F001E0
7801F001E0
7801F803C0
3C03FC03C0
3E07FE0F80
1FFEFFFF80
0FFCF7FF00
07F8F3FC00
00C0007000
ENDCHAR
STARTCHAR 0239
ENCODING 569
SWIDTH 900 0
DWIDTH 40 0
BBX 35 34 2 -9
BITMAP
00C0007000
07F8F3FC00
0FFCF7FF00
1FFEFFFF80
3E07FE0F80
3C03FC03C0
7801F803C0
7801F001E0
7001F001E0
F000F001E0
F000F000E0
F000F000E0
F000F000E0
F000F000E0
F000F000E0
F000F001E0
F000F001E0
7001F001E0
7801F001E0
7801F803C0
3C03FC03C0
3E07FE0F80
1FFEFFFF80
0FFCF7FF00
07F8F3FC00
00C0F07000
0000F00000
0000F00000
0000F00000
0000F00000
0000F00000
0000F00000
0000F00000
0000F00000
ENDCHAR
STARTCHAR 023A
ENCODING 570
SWIDTH 607 0
DWIDTH 27 0
BBX 27 34 0 -1
BITMAP
000000C0
001F00E0
001F01C0
003F83C0
003F8780
003B8700
007BCE00
007BDE00
0071FC00
00F1F800
00F1F000
00E0F000
01E1F000
01E1F000
01C3F000
03C77800
03CF7800
039E3800
079C3C00
07B83C00
07781C00
0FFFFE00
0FFFFE00
0FFFFF00
1FFFFF00
1F800F00
1F000780
3E000780
3E000780
3C0003C0
780003C0
780003C0
F80001E0
60000000
ENDCHAR
STARTCHAR 023B
ENCODING 571
SWIDTH 630 0
DWIDTH 28 0
BBX 27 34 0 -1
BITMAP
0001C040
003FFCE0
007FFFE0
01FFFFC0
03F80FC0
07E007C0
07C00FC0
0F801E40
0F001C00
1F003800
1E007800
1E00F000
1E00E000
3E01C000
3C038000
3C078000
3C0F0000
3C0E0000
3C1C0000
3C3C0000
3E780000
1E700000
1EE00000
1FE00000
1FC00000
0F800000
0F800040
0FC000C0
1FE003C0
1FF80FC0
39FFFFC0
787FFF00
F03FFC00
6001C000
ENDCHAR
STARTCHAR 023C
ENCODING 572
SWIDTH 495 0
DWIDTH 22 0
BBX 21 28 0 -2
BITMAP
000010
000C18
00FFF8
03FFF0
07FFF0
0FC0E0
0F01C0
1F0380
1E0780
1E0700
3C0E00
3C1C00
3C3C00
3C3800
3C7000
3CE000
3DE000
3DC000
1F8000
1F0000
1F0000
0F0000
1FC060
3FFFE0
3BFFE0
70FFC0
E01C00
400000
ENDCHAR
STARTCHAR 023D
ENCODING 573
SWIDTH 495 0
DWIDTH 22 0
BBX 22 32 0 0
BITMAP
0F0000
0F0000
0F0000
0F0000
0F0000
0F0000
0F0000
0F0000
0F0000
0F0000
0F0000
0F0000
0F0000
0F0000
FFF000
FFF000
FFF000
0F0000
0F0000
0F0000
0F0000
0F0000
0F0000
0F0000
0F0000
0F0000
0F0000
0F0000
0FFFFC
0FFFFC
0FFFFC
0FFFFC
ENDCHAR
STARTCHAR 023E
ENCODING 574
SWIDTH 540 0
DWIDTH 24 0
BBX 27 35 -1 -1
BITMAP
000000C0
7FFFFFE0
7FFFFFC0
7FFFFF80
7FFFFF80
001E0F00
001E1E00
001E1C00
001E3800
001E7800
001EF000
001EE000
001FC000
001FC000
001F8000
001F0000
001E0000
001E0000
003E0000
007E0000
007E0000
00FE0000
01FE0000
03DE0000
039E0000
071E0000
0F1E0000
1E1E0000
1C1E0000
381E0000
781E0000
F01E0000
E01E0000
C0000000
40000000
ENDCHAR
STARTCHAR 023F
ENCODING 575
SWIDTH 472 0
DWIDTH 21 0
BBX 18 36 2 -11
BITMAP
00C000
1FFE00
3FFF00
7FFF00
780300
F00000
F00000
F00000
F00000
780000
7E0000
7FE000
1FF800
0FFE00
00FF00
001F00
000F00
000780
000780
000780
800700
E01F00
FFFE00
FFFE00
7FF800
07C000
03E000
01F000
00F800
007C00
003E00
001F00
001FC0
0007C0
0003C0
000040
ENDCHAR
STARTCHAR 0240
ENCODING 576
SWIDTH 472 0
DWIDTH 21 0
BBX 19 35 2 -11
BITMAP
FFFF80
FFFF80
FFFF80
000780
000F00
001F00
003E00
003C00
007800
00F000
01F000
01E000
03C000
078000
0F8000
1F0000
1E0000
3C0000
7C0000
F80000
F00000
FC0000
FE0000
FF0000
1F8000
078000
07C000
03E000
01F000
00F800
007C00
003FE0
001FE0
000FE0
0001E0
ENDCHAR
STARTCHAR 0241
ENCODING 577
SWIDTH 540 0
DWIDTH 24 0
BBX 21 32 2 0
BITMAP
3FFE00
FFFF80
FFFFC0
FC1FE0
8003F0
0001F0
0000F0
0000F0
0000F0
0000F8
0000F0
0000F0
0000F0
0001F0
0003E0
001FE0
03FFC0
03FF80
03FE00
03C000
03C000
03C000
03C000
03C000
03C000
03C000
03C000
03C000
03C000
03C000
03C000
03C000
ENDCHAR
STARTCHAR 0242
ENCODING 578
SWIDTH 427 0
DWIDTH 19 0
BBX 16 25 2 0
BITMAP
0700
FFE0
FFF8
FFFC
C07C
003E
001E
001E
001F
001F
001F
001F
001E
001E
003E
00FE
0FFC
0FF8
0FF0
0F00
0F00
0F00
0F00
0F00
0F00
ENDCHAR
STARTCHAR 0243
ENCODING 579
SWIDTH 607 0
DWIDTH 27 0
BBX 24 32 0 0
BITMAP
0FFFC0
0FFFF0
0FFFF8
0F03FC
0F003E
0F001E
0F001E
0F001E
0F001E
0F001E
0F001E
0F003C
0F007C
0FFFF8
0FFFE0
0FFFF0
0FFFFC
0F003E
0F001E
0F000F
0F000F
FFFE0F
FFFE0F
FFFE0F
0F000F
0F000F
0F001F
0F003E
0FFFFE
0FFFFC
0FFFF8
0FFFC0
ENDCHAR
STARTCHAR 0244
ENCODING 580
SWIDTH 652 0
DWIDTH 29 0
BBX 29 33 0 -1
BITMAP
1E0003C0
1E0003C0
1E0003C0
1E0003C0
1E0003C0
1E0003C0
1E0003C0
1E0003C0
1E0003C0
1E0003C0
1E0003C0
1E0003C0
1E0003C0
FFFFFFF8
FFFFFFF8
FFFFFFF8
FFFFFFF8
1E0003C0
1E0003C0
1E0003C0
1E0003C0
1E0003C0
0F000780
0F000780
0F000780
0F000780
0F800F00
07C01F00
03E03E00
03FFFE00
01FFFC00
007FF000
00070000
ENDCHAR
STARTCHAR 0245
ENCODING 581
SWIDTH 607 0
DWIDTH 27 0
BBX 27 32 0 0
BITMAP
001F0000
001F0000
003F8000
003F8000
003B8000
007BC000
007BC000
0071C000
00F1E000
00F1E000
00E0E000
01E0F000
01E0F000
01E07000
03C07800
03C07800
03C03800
07803C00
07803C00
07801C00
0F001E00
0F001E00
0F000F00
1E000F00
1E000F00
1E000780
3C000780
3C000780
7C0003C0
780003C0
780003C0
F80001E0
ENDCHAR
STARTCHAR 0246
ENCODING 582
SWIDTH 562 0
DWIDTH 25 0
BBX 19 40 4 -4
BITMAP
0003C0
000380
000380
000780
FFFFC0
FFFFC0
FFFFC0
FFFFC0
F00E00
F01E00
F01C00
F01C00
F03C00
F03C00
F03800
F03800
F07800
FFFFC0
FFFFC0
FFFFC0
FFFFC0
F0E000
F1E000
F1C000
F1C000
F1C000
F3C000
F38000
F38000
F78000
F70000
F70000
FFFFE0
FFFFE0
FFFFE0
FFFFE0
1C0000
1C0000
3C0000
3C0000
ENDCHAR
STARTCHAR 0247
ENCODING 583
SWIDTH 540 0
DWIDTH 24 0
BBX 20 32 2 -4
BITMAP
000380
000380
000780
007700
03FF00
0FFF80
1FFFC0
1E1FC0
3C1DE0
781CE0
783CF0
7038F0
F03870
F07070
FFFFF0
FFFFF0
FFFFF0
F0E000
F1E000
F1C000
79C000
7BC000
7F8000
3F8000
1F00E0
1FFFE0
0FFFE0
0FFFC0
0E3800
1E0000
1C0000
1C0000
ENDCHAR
STARTCHAR 0248
ENCODING 584
SWIDTH 270 0
DWIDTH 12 0
BBX 14 41 -2 -9
BITMAP
03C0
03C0
03C0
03C0
03C0
03C0
03C0
03C0
03C0
03C0
03C0
03C0
03C0
03C0
03C0
3FFC
3FFC
3FFC
03C0
03C0
03C0
03C0
03C0
03C0
03C0
03C0
03C0
03C0
03C0
03C0
03C0
03C0
03C0
03C0
0780
0780
0F80
FF00
FF00
FC00
F000
ENDCHAR
STARTCHAR 0249
ENCODING 585
SWIDTH 247 0
DWIDTH 11 0
BBX 11 42 -1 -9
BITMAP
0700
0700
0700
0700
0700
0000
0000
0000
0000
0700
0700
0700
0700
0700
0700
0700
0700
0700
0700
0700
7FE0
7FE0
7FE0
0700
0700
0700
0700
0700
0700
0700
0700
0700
0700
0700
0700
0700
0F00
0F00
1F00
FE00
FC00
F800
ENDCHAR
STARTCHAR 024A
ENCODING 586
SWIDTH 697 0
DWIDTH 31 0
BBX 31 42 2 -9
BITMAP
00180000
01FF8780
03FFE780
07FFF780
0FC0F780
1F007F80
1E003F80
3C001F80
3C000F80
78000F80
78000F80
78000780
78000780
F0000780
F0000780
F0000780
F0000780
F0000780
F0000780
F0000780
F0000780
78000780
78000780
78000F80
78000F80
3C000F80
3C001F80
1E003F80
1F007F80
0FC0F780
07FFF780
03FFE780
01FF8780
00180780
00000780
000003C0
000003C0
000003E0
000001FE
000001FE
0000007E
0000001E
ENDCHAR
STARTCHAR 024B
ENCODING 587
SWIDTH 562 0
DWIDTH 25 0
BBX 24 34 2 -9
BITMAP
00C000
07F8F0
0FFCF0
1FFEF0
3E07F0
3C03F0
7801F0
7801F0
7001F0
F000F0
F000F0
F000F0
F000F0
F000F0
F000F0
F000F0
F000F0
7001F0
7801F0
7801F0
3C03F0
3E07F0
1FFEF0
0FFCF0
07F8F0
00C0F0
0000F0
0000F0
0000F0
0000F0
000078
00007F
00003F
00001F
ENDCHAR
STARTCHAR 024C
ENCODING 588
SWIDTH 630 0
DWIDTH 28 0
BBX 26 32 0 0
BITMAP
0FFF8000
0FFFE000
0FFFF000
0F07F800
0F00FC00
0F007C00
0F003C00
0F003C00
0F003C00
0F003E00
0F003C00
0F003C00
0F003C00
0F007C00
0F01F800
FFFFF000
FFFFE000
FFFFE000
0F07F000
0F00F000
0F007800
0F007C00
0F003C00
0F003E00
0F001E00
0F001E00
0F000F00
0F000F00
0F000780
0F000780
0F0003C0
0F0003C0
ENDCHAR
STARTCHAR 024D
ENCODING 589
SWIDTH 360 0
DWIDTH 16 0
BBX 16 25 0 0
BITMAP
0007
0E3F
0E7F
0EFF
0FE0
0F80
0F80
0F00
0F00
0E00
0E00
0E00
FFC0
FFC0
FFC0
0E00
0E00
0E00
0E00
0E00
0E00
0E00
0E00
0E00
0E00
ENDCHAR
STARTCHAR 024E
ENCODING 590
SWIDTH 540 0
DWIDTH 24 0
BBX 24 32 0 0
BITMAP
F0000F
78001E
7C003E
3C003C
1E007C
FFFFFF
FFFFFF
FFFFFF
0781E0
03C3C0
03E3C0
01E780
00FF80
00FF00
007E00
007E00
003C00
003C00
003C00
003C00
003C00
003C00
003C00
003C00
003C00
003C00
003C00
003C00
003C00
003C00
003C00
003C00
ENDCHAR
STARTCHAR 024F
ENCODING 591
SWIDTH 517 0
DWIDTH 23 0
BBX 23 33 0 -9
BITMAP
78003C
3C003C
3C0038
1C0078
1E0078
1E00F0
0E00F0
0F00F0
0F01E0
0701E0
FFFFFE
FFFFFE
FFFFFE
03C380
01C780
01E780
01E700
00EF00
00FF00
00FE00
007E00
007C00
003C00
003C00
003800
007800
007800
00F000
00F000
01E000
1FE000
1FC000
1F8000
ENDCHAR
STARTCHAR 0250
ENCODING 592
SWIDTH 540 0
DWIDTH 24 0
BBX 19 26 3 -1
BITMAP
003800
F1FF00
F3FF80
F7FFC0
FE07C0
FC03C0
F801E0
F801E0
F001E0
F001E0
F001C0
F003C0
F00FC0
FFFF80
FFFF00
FFFC00
F00000
700000
700000
780000
780000
3E0180
3FFF80
1FFF80
07FF00
00E000
ENDCHAR
STARTCHAR 0251
ENCODING 593
SWIDTH 562 0
DWIDTH 25 0
BBX 20 26 2 -1
BITMAP
00C000
07F8F0
0FFCF0
1FFEF0
3E07F0
3C03F0
7801F0
7801F0
7001F0
F000F0
F000F0
F000F0
F000F0
F000F0
F000F0
F000F0
F000F0
7001F0
7801F0
7801F0
3C03F0
3E07F0
1FFEF0
0FFCF0
07F8F0
00C000
ENDCHAR
STARTCHAR 0252
ENCODING 594
SWIDTH 562 0
DWIDTH 25 0
BBX 19 26 4 -1
BITMAP
006000
E3FC00
E7FE00
EFFF00
FC0F80
F80780
F803C0
F003C0
F001C0
E001E0
E001E0
E001E0
E001E0
E001E0
E001E0
E001E0
E001E0
F001C0
F003C0
F803C0
F80780
FC0F80
EFFF00
E7FE00
E3FC00
006000
ENDCHAR
STARTCHAR 0253
ENCODING 595
SWIDTH 562 0
DWIDTH 25 0
BBX 19 34 4 -1
BITMAP
1FE000
3FE000
7FE000
F80000
F00000
E00000
E00000
E00000
E06000
E3FC00
E7FE00
EFFF00
FC0F80
F80780
F803C0
F003C0
F001E0
E001E0
E001E0
E001E0
E001E0
E001E0
E001E0
E001E0
E001E0
F001E0
F003C0
F803C0
F80780
FC0F80
EFFF00
E7FE00
E3FC00
006000
ENDCHAR
STARTCHAR 0254
ENCODING 596
SWIDTH 495 0
DWIDTH 22 0
BBX 18 26 2 -1
BITMAP
038000
7FF000
FFF800
FFFC00
E03E00
801F00
000F00
000780
000780
000780
000380
0003C0
0003C0
0003C0
0003C0
000380
000780
000780
000780
000F00
801F00
E03E00
FFFC00
FFF800
7FF000
030000
ENDCHAR
STARTCHAR 0255
ENCODING 597
SWIDTH 495 0
DWIDTH 22 0
BBX 17 28 2 -3
BITMAP
003000
03FF80
0FFF80
1FFF80
3F0180
3C0000
7C0000
780000
780000
F00000
F00000
F00000
F00000
F00000
F00000
F00000
F01800
78FF00
79FF80
7FEF80
3F8380
1F8380
1FFF80
0FFF80
07FF00
077800
070000
070000
ENDCHAR
STARTCHAR 0256
ENCODING 598
SWIDTH 562 0
DWIDTH 25 0
BBX 24 42 2 -9
BITMAP
0000F0
0000F0
0000F0
0000F0
0000F0
0000F0
0000F0
0000F0
00C0F0
07F8F0
0FFCF0
1FFEF0
3E07F0
3C03F0
7801F0
7801F0
7001F0
F000F0
F000F0
F000F0
F000F0
F000F0
F000F0
F000F0
F000F0
7001F0
7801F0
7801F0
3C03F0
3E07F0
1FFEF0
0FFCF0
07F8F0
00C0F0
0000F0
0000F0
0000F0
0000F0
000078
00007F
00003F
00001F
ENDCHAR
STARTCHAR 0257
ENCODING 599
SWIDTH 630 0
DWIDTH 28 0
BBX 26 34 2 -1
BITMAP
00001FC0
00003FC0
00007FC0
00007800
0000F000
0000F000
0000F000
0000F000
00C0F000
07F8F000
0FFCF000
1FFEF000
3E07F000
3C03F000
7801F000
7801F000
7001F000
F000F000
F000F000
F000F000
F000F000
F000F000
F000F000
F000F000
F000F000
7001F000
7801F000
7801F000
3C03F000
3E07F000
1FFEF000
0FFCF000
07F8F000
00C00000
ENDCHAR
STARTCHAR 0258
ENCODING 600
SWIDTH 540 0
DWIDTH 24 0
BBX 20 26 2 -1
BITMAP
00E000
07FE00
0FFF00
1FFF80
3E07C0
7C03E0
7801E0
7000E0
F000F0
F000F0
F000F0
FFFFF0
FFFFF0
FFFFF0
0000F0
0000F0
0000F0
0000F0
0001E0
0001E0
4003E0
700FC0
7FFF80
7FFF00
1FFC00
00C000
ENDCHAR
STARTCHAR 0259
ENCODING 601
SWIDTH 540 0
DWIDTH 24 0
BBX 20 26 2 -1
BITMAP
00E000
1FFC00
7FFF00
7FFF80
700FC0
4003E0
0001E0
0001E0
0000F0
0000F0
0000F0
0000F0
FFFFF0
FFFFF0
FFFFF0
F000F0
F000F0
F000F0
7000E0
7801E0
7C03E0
3E07C0
1FFF80
0FFF00
07FE00
00E000
ENDCHAR
STARTCHAR 025A
ENCODING 602
SWIDTH 720 0
DWIDTH 32 0
BBX 30 26 2 -1
BITMAP
00E00000
1FFC0000
7FFF0000
7FFF87C0
7007CFC0
4003FFC0
0001FFC0
0001FBC0
0003F3C0
000FF1C0
003FF1E0
007CF1FC
01F8F0FC
03E0F07C
0FC0F01C
1F00F000
7E00F000
F800F000
7001E000
7801E000
7C03E000
3E07C000
1FFF8000
0FFF0000
07FE0000
00E00000
ENDCHAR
STARTCHAR 025B
ENCODING 603
SWIDTH 472 0
DWIDTH 21 0
BBX 16 26 3 -1
BITMAP
01C0
1FFE
3FFE
7FFE
F806
F000
F000
F000
F000
7800
3F00
1FE0
1FE0
3FE0
7800
F000
E000
E000
E000
E000
F000
F803
7FFF
3FFF
1FFE
00E0
ENDCHAR
STARTCHAR 025C
ENCODING 604
SWIDTH 472 0
DWIDTH 21 0
BBX 16 26 3 -1
BITMAP
0700
FFF0
FFF8
FFFC
C03E
001E
000E
000E
001E
003C
01FC
0FF0
0FF0
0FFC
003E
001E
000F
000F
000F
000F
001E
803E
FFFC
FFF8
FFF0
0700
ENDCHAR
STARTCHAR 025D
ENCODING 605
SWIDTH 697 0
DWIDTH 31 0
BBX 28 26 3 -1
BITMAP
07000000
FFF00000
FFF80000
FFFC1E00
C03E7E00
001FFE00
000FFE00
000FCE00
001F0E00
003E0F00
01FC0F00
0FF00FF0
0FF007F0
0FFC03F0
003E00F0
001E0000
000F0000
000F0000
000F0000
000F0000
001E0000
803E0000
FFFC0000
FFF80000
FFF00000
07000000
ENDCHAR
STARTCHAR 025E
ENCODING 606
SWIDTH 585 0
DWIDTH 26 0
BBX 22 26 2 -1
BITMAP
003C00
03FFC0
0FFFE0
1FFFF0
3F00F8
3C0078
7C0078
780038
780078
F000F0
F007F0
F03FC0
F03FC0
F03FF0
F000F8
F00078
F00038
78003C
78003C
7C003C
3C0078
3F00F8
1FFFF0
0FFFE0
03FFC0
003C00
ENDCHAR
STARTCHAR 025F
ENCODING 607
SWIDTH 247 0
DWIDTH 11 0
BBX 11 33 -1 -9
BITMAP
0700
0700
0700
0700
0700
0700
0700
0700
0700
0700
0700
7FE0
7FE0
7FE0
0700
0700
0700
0700
0700
0700
0700
0700
0700
0700
0700
0700
0700
0F00
0F00
1F00
FE00
FC00
F800
ENDCHAR
STARTCHAR 0260
ENCODING 608
SWIDTH 630 0
DWIDTH 28 0
BBX 26 42 2 -9
BITMAP
00001FC0
00003FC0
00007FC0
00007800
0000F000
0000F000
0000F000
0000F000
00C0F000
07F8F000
0FFEF000
1FFEF000
3E07F000
3C03F000
7801F000
7801F000
7001F000
F000F000
F000F000
F000F000
F000F000
F000F000
F000F000
F000F000
7000F000
7801F000
7801F000
7C03F000
3E07F000
1F1FF000
1FFEF000
0FFCF000
03F0E000
0000E000
0001E000
0001E000
0001E000
1003C000
1C0FC000
1FFF8000
1FFF0000
07FC0000
ENDCHAR
STARTCHAR 0261
ENCODING 609
SWIDTH 562 0
DWIDTH 25 0
BBX 20 33 2 -9
BITMAP
03FFF0
0FFFF0
1FFFF0
3F00F0
3C00F0
7800F0
7800F0
7000F0
F000F0
F000F0
F000F0
F000F0
F000F0
F000F0
F000F0
7000F0
7801F0
7801F0
7C03F0
3E07F0
1F1FF0
1FFEF0
0FFCF0
03F0E0
0000E0
0001E0
0001E0
0001E0
1003C0
1C0FC0
1FFF80
1FFF00
07FC00
ENDCHAR
STARTCHAR 0262
ENCODING 610
SWIDTH 562 0
DWIDTH 25 0
BBX 19 26 2 -1
BITMAP
003800
03FF00
0FFFC0
1FFFE0
3F01E0
3C0060
7C0000
780000
780000
F00000
F00000
F00000
F00000
F007E0
F007E0
F007E0
F000E0
7800E0
7800E0
7C00E0
3C00E0
3F00E0
1FFFE0
0FFFE0
03FFC0
007000
ENDCHAR
STARTCHAR 0263
ENCODING 611
SWIDTH 540 0
DWIDTH 24 0
BBX 19 33 2 -9
BITMAP
F000E0
7001E0
7801E0
3803C0
3C03C0
3C0780
1E0780
1E0700
0F0F00
0F0E00
071E00
079C00
03BC00
03F800
01F800
01F000
00F000
00F000
01F000
01F800
03F800
03BC00
079C00
071E00
0F0E00
0F0E00
0E0F00
0E0F00
0E0F00
0F1E00
0FFE00
07FC00
03F800
ENDCHAR
STARTCHAR 0264
ENCODING 612
SWIDTH 540 0
DWIDTH 24 0
BBX 19 25 2 -1
BITMAP
F001E0
7803E0
3C03C0
3C0780
1E0F80
0F0F00
0F1E00
07BE00
03FC00
03F800
01F800
01F000
01F800
03F800
03FC00
07BC00
071E00
0F0E00
0F0F00
0E0F00
0F0E00
0FFE00
07FE00
03FC00
006000
ENDCHAR
STARTCHAR 0265
ENCODING 613
SWIDTH 562 0
DWIDTH 25 0
BBX 19 33 3 -9
BITMAP
F001E0
F001E0
F001E0
F001E0
F001E0
F001E0
F001E0
F001E0
F001E0
F001E0
F001E0
F001E0
F001E0
F001E0
F001E0
F001E0
F001E0
7003E0
7803E0
7807E0
7C0FE0
3FFDE0
1FF9E0
0FF1E0
0181E0
0001E0
0001E0
0001E0
0001E0
0001E0
0001E0
0001E0
0001E0
ENDCHAR
STARTCHAR 0266
ENCODING 614
SWIDTH 562 0
DWIDTH 25 0
BBX 18 33 4 0
BITMAP
3FE000
7FE000
7FE000
F00000
F00000
E00000
E00000
E00000
E07000
E3FC00
E7FE00
EFFF00
FC0F80
F80780
F00780
F003C0
F003C0
E003C0
E003C0
E003C0
E003C0
E003C0
E003C0
E003C0
E003C0
E003C0
E003C0
E003C0
E003C0
E003C0
E003C0
E003C0
E003C0
ENDCHAR
STARTCHAR 0267
ENCODING 615
SWIDTH 562 0
DWIDTH 25 0
BBX 18 42 4 -9
BITMAP
3FE000
7FE000
7FE000
F00000
F00000
E00000
E00000
E00000
E07000
E3FC00
E7FE00
EFFF00
FC0F80
F80780
F00780
F003C0
F003C0
E003C0
E003C0
E003C0
E003C0
E003C0
E003C0
E003C0
E003C0
E003C0
E003C0
E003C0
E003C0
E003C0
E003C0
E003C0
E003C0
0003C0
0003C0
0003C0
0003C0
000380
000F80
03FF80
03FF00
03FC00
ENDCHAR
STARTCHAR 0268
ENCODING 616
SWIDTH 247 0
DWIDTH 11 0
BBX 10 33 0 0
BITMAP
0E00
0E00
0E00
0E00
0E00
0000
0000
0000
0000
0E00
0E00
0E00
0E00
0E00
0E00
0E00
0E00
0E00
0E00
0E00
FFC0
FFC0
FFC0
0E00
0E00
0E00
0E00
0E00
0E00
0E00
0E00
0E00
0E00
ENDCHAR
STARTCHAR 0269
ENCODING 617
SWIDTH 292 0
DWIDTH 13 0
BBX 9 24 3 0
BITMAP
F000
F000
F000
F000
F000
F000
F000
F000
F000
F000
F000
F000
F000
F000
F000
F000
F000
F000
F000
7000
7C00
7F80
3F80
0F80
ENDCHAR
STARTCHAR 026A
ENCODING 618
SWIDTH 337 0
DWIDTH 15 0
BBX 10 24 2 0
BITMAP
FFC0
FFC0
FFC0
0E00
0E00
0E00
0E00
0E00
0E00
0E00
0E00
0E00
0E00
0E00
0E00
0E00
0E00
0E00
0E00
0E00
FFC0
FFC0
FFC0
FFC0
ENDCHAR
STARTCHAR 026B
ENCODING 619
SWIDTH 360 0
DWIDTH 16 0
BBX 13 33 1 0
BITMAP
0780
0780
0780
0780
0780
0780
0780
0780
0780
0780
0780
0780
0780
0F98
3F98
7F98
67B8
67F0
E7F0
0780
0780
0780
0780
0780
0780
0780
0780
0780
0780
0780
0780
0780
0780
ENDCHAR
STARTCHAR 026C
ENCODING 620
SWIDTH 427 0
DWIDTH 19 0
BBX 15 33 1 0
BITMAP
01E0
01E0
01E0
01E0
01E0
01E0
01E0
01E0
01E0
01E0
1FE0
3FE0
7FE0
7BE0
73E0
F1E0
7FFE
7FFE
3FFE
07FE
01E0
01E0
01E0
01E0
01E0
01E0
01E0
01E0
01E0
01E0
01E0
01E0
01E0
ENDCHAR
STARTCHAR 026D
ENCODING 621
SWIDTH 247 0
DWIDTH 11 0
BBX 8 42 4 -9
BITMAP
E0
E0
E0
E0
E0
E0
E0
E0
E0
E0
E0
E0
E0
E0
E0
E0
E0
E0
E0
E0
E0
E0
E0
E0
E0
E0
E0
E0
E0
E0
E0
E0
E0
E0
E0
E0
F0
F0
F8
7F
3F
1F
ENDCHAR
STARTCHAR 026E
ENCODING 622
SWIDTH 630 0
DWIDTH 28 0
BBX 22 42 4 -9
BITMAP
E00000
E00000
E00000
E00000
E00000
E00000
E00000
E00000
E00000
FFFFF0
FFFFF0
FFFFF0
E000F0
E001E0
E003E0
E007C0
E00780
E00F00
E01E00
E03E00
E03C00
E07800
E0F000
E0FF00
E0FFC0
E0FFE0
E00FF0
E001F0
E00078
E00078
E0003C
E0003C
E0003C
00003C
00003C
000078
000078
1001F8
1F0FF0
1FFFE0
1FFFC0
07FF00
ENDCHAR
STARTCHAR 026F
ENCODING 623
SWIDTH 877 0
DWIDTH 39 0
BBX 31 25 4 -1
BITMAP
E003800E
E003800E
E003800E
E003800E
E003800E
E003800E
E003800E
E003800E
E003800E
E003800E
E003800E
E003800E
E003800E
E003800E
E003800E
E007801E
E007801E
E007801E
F00FC03E
F00FC03E
783DE0EE
7FF9FFEE
3FF0FFCE
1FE07F8E
02000800
ENDCHAR
STARTCHAR 0270
ENCODING 624
SWIDTH 877 0
DWIDTH 39 0
BBX 31 33 4 -9
BITMAP
E003800E
E003800E
E003800E
E003800E
E003800E
E003800E
E003800E
E003800E
E003800E
E003800E
E003800E
E003800E
E003800E
E003800E
E003800E
E007801E
E007801E
E007801E
F00FC03E
F00FC03E
783DE0EE
7FF9FFEE
3FF0FFCE
1FE07F8E
0200080E
0000000E
0000000E
0000000E
0000000E
0000000E
0000000E
0000000E
0000000E
ENDCHAR
STARTCHAR 0271
ENCODING 625
SWIDTH 877 0
DWIDTH 39 0
BBX 31 34 4 -9
BITMAP
006001C0
E3FC0FF0
E7FE1FF8
EFFF3FFC
FC0F703C
F807E01E
F007C01E
F007C01E
E007C01E
E003800E
E003800E
E003800E
E003800E
E003800E
E003800E
E003800E
E003800E
E003800E
E003800E
E003800E
E003800E
E003800E
E003800E
E003800E
E003800E
0000000E
0000000E
0000000E
0000001E
0000001E
0000003C
00000FFC
00000FF8
00000FF0
ENDCHAR
STARTCHAR 0272
ENCODING 626
SWIDTH 585 0
DWIDTH 26 0
BBX 23 34 -1 -9
BITMAP
000380
071FE0
073FF8
077FF8
07F07C
07C03C
07801C
07801E
07801E
07001E
07001E
07001E
07001E
07001E
07001E
07001E
07001E
07001E
07001E
07001E
07001E
07001E
07001E
07001E
07001E
070000
070000
070000
0F0000
0F0000
1F0000
FE0000
FC0000
F80000
ENDCHAR
STARTCHAR 0273
ENCODING 627
SWIDTH 562 0
DWIDTH 25 0
BBX 22 34 4 -9
BITMAP
007000
E3FC00
E7FE00
EFFF00
FC0F80
F80780
F00780
F003C0
F003C0
E003C0
E003C0
E003C0
E003C0
E003C0
E003C0
E003C0
E003C0
E003C0
E003C0
E003C0
E003C0
E003C0
E003C0
E003C0
E003C0
0003C0
0003C0
0003C0
0003C0
0001C0
0001E0
0001FC
0000FC
00003C
ENDCHAR
STARTCHAR 0274
ENCODING 628
SWIDTH 562 0
DWIDTH 25 0
BBX 19 24 3 0
BITMAP
FC01E0
FC01E0
FE01E0
FE01E0
FF01E0
FF01E0
F781E0
F781E0
F3C1E0
F3C1E0
F1E1E0
F1E1E0
F0F1E0
F0F1E0
F079E0
F079E0
F03DE0
F03DE0
F01FE0
F01FE0
F00FE0
F00FE0
F007E0
F007E0
ENDCHAR
STARTCHAR 0275
ENCODING 629
SWIDTH 540 0
DWIDTH 24 0
BBX 20 26 2 -1
BITMAP
007000
07FE00
0FFF00
1FFF80
3E07C0
3C03E0
7801E0
7801E0
7000F0
F000F0
F000F0
FFFFF0
FFFFF0
FFFFF0
F000F0
F000F0
F000F0
7000F0
7801E0
7801E0
3C03E0
3E07C0
1FFF80
0FFF00
07FE00
006000
ENDCHAR
STARTCHAR 0276
ENCODING 630
SWIDTH 765 0
DWIDTH 34 0
BBX 28 24 2 0
BITMAP
00FFFFF0
03FFFFF0
0FFFFFF0
1F038000
3E038000
3C038000
78038000
70038000
70038000
F003FFF0
F003FFF0
F003FFF0
F003FFF0
F0038000
F0038000
70038000
70038000
78038000
3C038000
3E038000
1F038000
0FFFFFF0
03FFFFF0
00FFFFF0
ENDCHAR
STARTCHAR 0277
ENCODING 631
SWIDTH 652 0
DWIDTH 29 0
BBX 23 26 3 -1
BITMAP
003800
03FF80
07FFC0
1FFFE0
1F01F0
3E00F8
7C0078
78003C
78003C
F0003C
F0001E
F0381E
F0381E
F0381E
F0381E
F0381E
F0381E
F0381E
F07C1E
F07C1E
706C3C
78EE3C
7FEFF8
3FC7F8
1F83F0
0600C0
ENDCHAR
STARTCHAR 0278
ENCODING 632
SWIDTH 585 0
DWIDTH 26 0
BBX 22 42 2 -9
BITMAP
007800
007800
007800
007800
007800
007800
007800
007800
007800
07FF80
0FFFC0
1FFFE0
3E79F0
3C78F0
787878
787878
707878
F0783C
F0783C
F0783C
F0783C
F0783C
F0783C
F0783C
F0783C
707878
787878
787878
3C78F0
3E79F0
1FFFE0
0FFFC0
07FF80
007800
007800
007800
007800
007800
007800
007800
007800
007800
ENDCHAR
STARTCHAR 0279
ENCODING 633
SWIDTH 360 0
DWIDTH 16 0
BBX 13 25 0 -1
BITMAP
0078
0078
0078
0078
0078
0078
0078
0078
0078
0078
0078
0078
0078
0078
0078
0078
0078
00F8
00F8
01F8
03F8
FF78
FE78
FC78
4000
ENDCHAR
STARTCHAR 027A
ENCODING 634
SWIDTH 360 0
DWIDTH 16 0
BBX 13 34 0 -1
BITMAP
0078
0078
0078
0078
0078
0078
0078
0078
0078
0078
0078
0078
0078
0078
0078
0078
0078
0078
0078
0078
0078
0078
0078
0078
0078
0078
00F8
00F8
01F8
03F8
FF78
FE78
FC78
4000
ENDCHAR
STARTCHAR 027B
ENCODING 635
SWIDTH 360 0
DWIDTH 16 0
BBX 17 33 0 -9
BITMAP
007800
007800
007800
007800
007800
007800
007800
007800
007800
007800
007800
007800
007800
007800
007800
007800
007800
00F800
00F800
01F800
03F800
FF7800
FE7800
FC7800
407800
007800
007800
007800
003800
003C00
003F80
001F80
000F80
ENDCHAR
STARTCHAR 027C
ENCODING 636
SWIDTH 360 0
DWIDTH 16 0
BBX 12 34 4 -9
BITMAP
0070
E3F0
E7F0
EFF0
FE00
F800
F000
F000
F000
E000
E000
E000
E000
E000
E000
E000
E000
E000
E000
E000
E000
E000
E000
E000
E000
E000
E000
E000
E000
E000
E000
E000
E000
E000
ENDCHAR
STARTCHAR 027D
ENCODING 637
SWIDTH 360 0
DWIDTH 16 0
BBX 12 34 4 -9
BITMAP
0070
E3F0
E7F0
EFF0
FE00
F800
F000
F000
F000
E000
E000
E000
E000
E000
E000
E000
E000
E000
E000
E000
E000
E000
E000
E000
E000
E000
E000
E000
E000
F000
F800
7FE0
3FE0
1FE0
ENDCHAR
STARTCHAR 027E
ENCODING 638
SWIDTH 472 0
DWIDTH 21 0
BBX 14 25 3 0
BITMAP
00FC
07FC
0FFC
0FFC
1E00
1E00
1C00
1C00
1C00
1C00
1C00
1C00
1C00
1C00
1C00
1C00
1C00
1C00
1C00
1C00
1C00
FF80
FF80
FF80
FF80
ENDCHAR
STARTCHAR 027F
ENCODING 639
SWIDTH 472 0
DWIDTH 21 0
BBX 15 25 2 0
BITMAP
FE00
FF80
FFC0
FFE0
01E0
00E0
00F0
00F0
00F0
00F0
00F0
00F0
00F0
00F0
00F0
00F0
00F0
00F0
00F0
00F0
00F0
07FE
07FE
07FE
07FE
ENDCHAR
STARTCHAR 0280
ENCODING 640
SWIDTH 540 0
DWIDTH 24 0
BBX 18 24 4 0
BITMAP
FFE000
FFF800
FFFC00
E07E00
E01E00
E01E00
E00E00
E00E00
E01E00
E01E00
E1FC00
FFFC00
FFF000
FFF800
E07C00
E03C00
E01E00
E00E00
E00F00
E00700
E00780
E00380
E003C0
E001C0
ENDCHAR
STARTCHAR 0281
ENCODING 641
SWIDTH 540 0
DWIDTH 24 0
BBX 18 24 4 0
BITMAP
E001C0
E003C0
E00380
E00780
E00700
E00F00
E00E00
E01E00
E03C00
E07800
FFF800
FFF000
FFFC00
E0FC00
E01E00
E01E00
E00E00
E00E00
E01E00
E01E00
E0FE00
FFFC00
FFF800
FFE000
ENDCHAR
STARTCHAR 0282
ENCODING 642
SWIDTH 472 0
DWIDTH 21 0
BBX 17 34 2 -9
BITMAP
00C000
1FFE00
3FFF00
7FFF00
780300
F00000
F00000
F00000
F00000
780000
7E0000
7FE000
3FF800
0FFE00
00FF00
001F00
000F00
000780
000780
000780
800700
E01F00
FFFE00
FFFC00
FFF800
F3C000
F00000
F00000
F00000
700000
780000
7FF000
3FF000
1FF000
ENDCHAR
STARTCHAR 0283
ENCODING 643
SWIDTH 292 0
DWIDTH 13 0
BBX 15 42 -1 -9
BITMAP
00FE
03FE
03FE
0780
0780
0700
0700
0700
0700
0700
0700
0700
0700
0700
0700
0700
0700
0700
0700
0700
0700
0700
0700
0700
0700
0700
0700
0700
0700
0700
0700
0700
0700
0700
0700
0700
0F00
0F00
1F00
FE00
FC00
F800
ENDCHAR
STARTCHAR 0284
ENCODING 644
SWIDTH 292 0
DWIDTH 13 0
BBX 15 42 -1 -9
BITMAP
00FE
03FE
03FE
0780
0780
0700
0700
0700
0700
7F00
7F00
7F00
0700
0700
0700
0700
0700
0700
0700
0700
7FE0
7FE0
7FE0
0700
0700
0700
0700
0700
0700
0700
0700
0700
0700
0700
0700
0700
0F00
0F00
1F00
FE00
FC00
F800
ENDCHAR
STARTCHAR 0285
ENCODING 645
SWIDTH 405 0
DWIDTH 18 0
BBX 15 33 1 -9
BITMAP
FE00
FF80
FF80
07C0
03C0
01C0
01C0
01C0
01C0
01C0
01C0
01C0
01C0
01C0
01C0
01C0
01C0
01C0
01C0
01C0
01C0
01C0
01C0
01C0
01C0
01C0
01E0
01E0
01E0
00F0
00FE
007E
003E
ENDCHAR
STARTCHAR 0286
ENCODING 646
SWIDTH 292 0
DWIDTH 13 0
BBX 19 42 -5 -9
BITMAP
001FE0
003FE0
003FE0
007800
007800
007000
007000
007000
007000
007000
007000
007000
007000
007000
007000
007000
007000
007000
007000
007000
007000
007000
007000
007000
007000
007000
007000
007000
007000
007000
007000
007000
007000
3FFF00
7FFF00
FFFF00
F0F000
E0F000
F1F000
FFE000
7FC000
3F8000
ENDCHAR
STARTCHAR 0287
ENCODING 647
SWIDTH 360 0
DWIDTH 16 0
BBX 14 31 1 -7
BITMAP
FE00
FF80
FFC0
03C0
01E0
01E0
01E0
01E0
01E0
01E0
01E0
01E0
01E0
01E0
01E0
01E0
01E0
01E0
01E0
01E0
01E0
FFFC
FFFC
FFFC
01E0
01E0
01E0
01E0
01E0
01E0
01E0
ENDCHAR
STARTCHAR 0288
ENCODING 648
SWIDTH 360 0
DWIDTH 16 0
BBX 14 40 1 -9
BITMAP
1C00
1C00
1C00
1C00
1C00
1C00
1C00
FFFC
FFFC
FFFC
1C00
1C00
1C00
1C00
1C00
1C00
1C00
1C00
1C00
1C00
1C00
1C00
1C00
1C00
1C00
1C00
1C00
1C00
1C00
1C00
1C00
1C00
1C00
1C00
1E00
1E00
1F00
0FFC
07FC
03FC
ENDCHAR
STARTCHAR 0289
ENCODING 649
SWIDTH 562 0
DWIDTH 25 0
BBX 25 25 0 -1
BITMAP
1E003C00
1E003C00
1E003C00
1E003C00
1E003C00
1E003C00
1E003C00
1E003C00
1E003C00
1E003C00
1E003C00
FFFFFF80
FFFFFF80
FFFFFF80
1E003C00
1E003C00
1E003C00
0E007C00
0F007C00
0F00FC00
0F81FC00
07FFBC00
03FF3C00
01FE3C00
00300000
ENDCHAR
STARTCHAR 028A
ENCODING 650
SWIDTH 540 0
DWIDTH 24 0
BBX 20 25 2 -1
BITMAP
FF8FF0
FF8FF0
FF8FF0
078F00
0F8F80
1F07C0
3E03C0
3C01E0
7801E0
7800F0
7800F0
F000F0
F000F0
F000F0
F000F0
7000F0
7000F0
7800F0
7801E0
3C01E0
3E07C0
1FFF80
0FFF00
03FE00
007000
ENDCHAR
STARTCHAR 028B
ENCODING 651
SWIDTH 540 0
DWIDTH 24 0
BBX 18 24 4 0
BITMAP
E07000
E07800
E07E00
E03E00
E01F00
E00F00
E00780
E00780
E00380
E00380
E00380
E003C0
E003C0
E003C0
E00380
E00380
E00780
E00780
F00F00
F01F00
F87E00
7FFC00
3FF800
1FE000
ENDCHAR
STARTCHAR 028C
ENCODING 652
SWIDTH 517 0
DWIDTH 23 0
BBX 21 24 1 0
BITMAP
00F800
00FC00
01FC00
01FC00
01DE00
03DE00
03CE00
038F00
078F00
078700
070780
0F0780
0F0380
0E03C0
1E03C0
1E01C0
1C01E0
3C01E0
3C00E0
3800F0
7800F0
780070
700078
F00078
ENDCHAR
STARTCHAR 028D
ENCODING 653
SWIDTH 720 0
DWIDTH 32 0
BBX 29 24 2 0
BITMAP
07C01E00
07C03E00
07C03F00
0FC03F00
0FE03F00
0FE03F00
0EE07780
0EE07780
1EF07780
1E707380
1C70F3C0
1C70E3C0
3C70E3C0
3C38E1C0
3839E1C0
3839C1E0
7839C1E0
781DC0E0
781FC0E0
701F80F0
F01F80F0
F01F8070
F00F8070
E00F0078
ENDCHAR
STARTCHAR 028E
ENCODING 654
SWIDTH 517 0
DWIDTH 23 0
BBX 21 33 1 0
BITMAP
0007E0
000FE0
001FE0
001E00
003C00
003C00
003800
007800
007800
007800
00F800
00F800
00FC00
01FC00
01FC00
03DE00
03CE00
03CF00
078F00
078700
070780
0F0780
0F0380
0E03C0
1E03C0
1E01C0
3C01E0
3C01E0
3C00F0
7800F0
780070
700078
F00078
ENDCHAR
STARTCHAR 028F
ENCODING 655
SWIDTH 540 0
DWIDTH 24 0
BBX 20 24 2 0
BITMAP
F801F0
7801E0
7C03C0
3C03C0
1E0780
1E0F80
0F0F00
0F9E00
079E00
03FC00
03F800
01F800
01F000
00F000
00F000
00F000
00F000
00F000
00F000
00F000
00F000
00F000
00F000
00F000
ENDCHAR
STARTCHAR 0290
ENCODING 656
SWIDTH 472 0
DWIDTH 21 0
BBX 22 33 2 -9
BITMAP
FFFF80
FFFF80
FFFF80
000780
000F00
001F00
003E00
003C00
007800
00F000
01F000
01E000
03C000
078000
0F8000
1F0000
1E0000
3C0000
7C0000
F80000
F00000
FFFF80
FFFF80
FFFF80
000780
000780
000380
000380
0003C0
0003E0
0001FC
0001FC
00007C
ENDCHAR
STARTCHAR 0291
ENCODING 657
SWIDTH 472 0
DWIDTH 21 0
BBX 17 26 2 -2
BITMAP
FFFF80
FFFF80
FFFF80
000780
000F00
001F00
003E00
003C00
007800
00F000
01F000
01E000
03C000
078000
0F8000
1F3E00
1E7F00
3CFF80
7CE380
F9C380
F1C780
FFFF80
FFFF00
FFFC00
01C000
01C000
ENDCHAR
STARTCHAR 0292
ENCODING 658
SWIDTH 517 0
DWIDTH 23 0
BBX 19 33 2 -9
BITMAP
FFFF80
FFFF80
FFFF80
000780
000F00
001F00
003E00
003C00
007800
00F000
01F000
03E000
03C000
078000
07F800
07FE00
07FF00
007F80
000F80
0003C0
0003C0
0001E0
0001E0
0001E0
0001E0
0001E0
0003C0
0007C0
800FC0
F87F80
FFFF00
FFFE00
3FF800
ENDCHAR
STARTCHAR 0293
ENCODING 659
SWIDTH 517 0
DWIDTH 23 0
BBX 20 33 2 -9
BITMAP
FFFF80
FFFF80
FFFF80
000780
000F00
001F00
003E00
003C00
007800
00F000
01F000
03E000
03C000
078000
07F800
07FC00
07FF00
007F80
000F80
0003C0
0003C0
0001E0
0001E0
0001E0
0FF1E0
3FFFE0
3FFFC0
781FC0
700FE0
787FE0
7FFFE0
3FFE70
1FF870
ENDCHAR
STARTCHAR 0294
ENCODING 660
SWIDTH 450 0
DWIDTH 20 0
BBX 16 33 2 0
BITMAP
7FE0
FFF0
FFFC
E07C
003E
001E
000F
000F
000F
000F
000F
000F
000F
001E
003E
00FC
07F8
07F0
07C0
0780
0780
0780
0780
0780
0780
0780
0780
0780
0780
0780
0780
0780
0780
ENDCHAR
STARTCHAR 0295
ENCODING 661
SWIDTH 450 0
DWIDTH 20 0
BBX 16 33 2 0
BITMAP
07FE
1FFF
3FFF
7E07
7801
F800
F000
F000
F000
E000
E000
F000
F000
F800
7C00
3F00
3FE0
0FE0
03E0
01E0
01E0
01E0
01E0
01E0
01E0
01E0
01E0
01E0
01E0
01E0
01E0
01E0
01E0
ENDCHAR
STARTCHAR 0296
ENCODING 662
SWIDTH 450 0
DWIDTH 20 0
BBX 16 33 2 0
BITMAP
0780
0780
0780
0780
0780
0780
0780
0780
0780
0780
0780
0780
0780
0780
07E0
07F8
07FC
007C
001E
001E
000F
000F
000F
000F
000F
000F
000F
001E
803E
F9FC
FFF8
FFF0
3FC0
ENDCHAR
STARTCHAR 0297
ENCODING 663
SWIDTH 450 0
DWIDTH 20 0
BBX 16 42 2 -9
BITMAP
07FE
1FFF
3FFF
7E07
7800
F800
F000
F000
F000
E000
E000
E000
E000
E000
E000
E000
E000
E000
E000
E000
E000
E000
E000
E000
E000
E000
E000
E000
E000
E000
E000
E000
E000
F000
F000
F000
F800
7801
7E07
3FFF
1FFF
07FE
ENDCHAR
STARTCHAR 0298
ENCODING 664
SWIDTH 697 0
DWIDTH 31 0
BBX 27 34 2 -1
BITMAP
000E0000
00FFE000
03FFF800
07FFFC00
0FC07E00
1F801F00
1F000F00
3E000F80
3C000780
7C0003C0
780003C0
780003C0
780003E0
F80001E0
F00001E0
F00E01E0
F01F01E0
F01F01E0
F00E01E0
F00001E0
F80001E0
780003E0
780003C0
780003C0
7C0007C0
3C000780
3E000F80
1F000F00
1F801F00
0FC07E00
07FFFC00
03FFF800
00FFE000
000E0000
ENDCHAR
STARTCHAR 0299
ENCODING 665
SWIDTH 517 0
DWIDTH 23 0
BBX 17 24 4 0
BITMAP
FFF000
FFFC00
FFFE00
E03F00
E00F00
E00F00
E00F00
E00F00
E01E00
E03E00
FFFC00
FFF800
FFFE00
E01F00
E00F00
E00780
E00780
E00780
E00780
E00F80
E01F00
FFFF00
FFFC00
FFF000
ENDCHAR
STARTCHAR 029A
ENCODING 666
SWIDTH 585 0
DWIDTH 26 0
BBX 22 26 2 -1
BITMAP
00F000
0FFF00
3FFF80
3FFFC0
7C03E0
7801F0
7000F0
700078
780078
780078
3F8038
0FF03C
0FF03C
3FF03C
7C003C
780038
F00078
F00078
F00078
F000F0
7801F0
7C03E0
3FFFC0
3FFF80
0FFF00
006000
ENDCHAR
STARTCHAR 029B
ENCODING 667
SWIDTH 630 0
DWIDTH 28 0
BBX 27 34 2 -1
BITMAP
00003FE0
00007FE0
0000FFE0
0000F000
0001E000
0001E000
0001E000
0001E000
0039E000
03FFE000
0FFFE000
1FFFE000
3F01E000
3C006000
7C000000
78000000
78000000
F0000000
F0000000
F0000000
F0000000
F007E000
F007E000
F007E000
F000E000
7800E000
7800E000
7C00E000
3C00E000
3F00E000
1FFFE000
0FFFE000
03FFC000
00700000
ENDCHAR
STARTCHAR 029C
ENCODING 668
SWIDTH 585 0
DWIDTH 26 0
BBX 18 24 4 0
BITMAP
E001C0
E001C0
E001C0
E001C0
E001C0
E001C0
E001C0
E001C0
E001C0
E001C0
FFFFC0
FFFFC0
FFFFC0
E001C0
E001C0
E001C0
E001C0
E001C0
E001C0
E001C0
E001C0
E001C0
E001C0
E001C0
ENDCHAR
STARTCHAR 029D
ENCODING 669
SWIDTH 270 0
DWIDTH 12 0
BBX 16 42 -5 -9
BITMAP
0070
0070
0070
0070
0070
0000
0000
0000
0000
0070
0070
0070
0070
0070
0070
0070
0070
0070
0070
0070
0070
0070
0070
0070
0070
0070
0070
0070
0070
0070
0070
0070
0070
3FFF
7FFF
FFFF
E0F0
E0F0
F1F0
FFE0
7FC0
3F80
ENDCHAR
STARTCHAR 029E
ENCODING 670
SWIDTH 585 0
DWIDTH 26 0
BBX 19 33 4 -9
BITMAP
F801E0
7C01E0
3E01E0
1F01E0
0F81E0
0781E0
03C1E0
01E1E0
00F1E0
0079E0
007DE0
003FE0
001FE0
001FE0
003DE0
0079E0
00F1E0
01E1E0
03C1E0
0781E0
0F01E0
1E01E0
3C01E0
7801E0
0001E0
0001E0
0001E0
0001E0
0001E0
0001E0
0001E0
0001E0
0001E0
ENDCHAR
STARTCHAR 029F
ENCODING 671
SWIDTH 450 0
DWIDTH 20 0
BBX 16 24 4 0
BITMAP
E000
E000
E000
E000
E000
E000
E000
E000
E000
E000
E000
E000
E000
E000
E000
E000
E000
E000
E000
E000
E000
FFFF
FFFF
FFFF
ENDCHAR
STARTCHAR 02A0
ENCODING 672
SWIDTH 652 0
DWIDTH 29 0
BBX 28 42 2 -9
BITMAP
00001FF0
00003FF0
00007FF0
00007800
0000F000
0000F000
0000F000
0000F000
00C0F000
07F8F000
0FFCF000
1FFEF000
3E07F000
3C03F000
7801F000
7801F000
7001F000
F000F000
F000F000
F000F000
F000F000
F000F000
F000F000
F000F000
F000F000
7001F000
7801F000
7801F000
3C03F000
3E07F000
1FFEF000
0FFCF000
07F8F000
00C0F000
0000F000
0000F000
0000F000
0000F000
0000F000
0000F000
0000F000
0000F000
ENDCHAR
STARTCHAR 02A1
ENCODING 673
SWIDTH 450 0
DWIDTH 20 0
BBX 16 33 2 0
BITMAP
7FE0
FFF0
FFFC
E07C
003E
001E
000F
000F
000F
000F
000F
000F
000F
001E
003E
00FC
07F8
07F0
07C0
0780
0780
0780
0780
0780
FFF8
FFF8
FFF8
0780
0780
0780
0780
0780
0780
ENDCHAR
STARTCHAR 02A2
ENCODING 674
SWIDTH 450 0
DWIDTH 20 0
BBX 16 33 2 0
BITMAP
07FE
1FFF
3FFF
7E07
7801
F800
F000
F000
F000
E000
E000
F000
F000
F800
7C00
3F00
3FE0
0FE0
03E0
01E0
01E0
01E0
01E0
01E0
1FFF
1FFF
1FFF
01E0
01E0
01E0
01E0
01E0
01E0
ENDCHAR
ENDFONT
